<?xml version="1.0" encoding="UTF-8"?>
<svg width="200.49999999980002mm" height="65.4999999998mm" viewBox="0.0 0.0 200.49999999980002 65.4999999998" xmlns="http://www.w3.org/2000/svg" xmlns:xlink="http://www.w3.org/1999/xlink" xmlns:ev="http://www.w3.org/2001/xml-events" version="1.1">
	<g class="diagram" id="606e76c70000bca801376ec3133a1181" >
		<desc>User Activity, bpmn.bpd, 606e76c70000bca801376ec3133a1181</desc>
		<g class="clickEl 5a47935a0000bca801377c17f8cb25b0">
			<desc>User, bpmn.bpd.competency, 459d40a00000c3a8014109799566893b</desc>
			<g>
				<desc>null, figure.plane, null</desc>
				<path d=" M 1.1316287881310692,65.00378787858939 L 199.61647727237346,65.00378787858939 L 199.61647727237346,0.49621212121060604 L 1.1316287881310692,0.49621212121060604 z" fill="rgb(255,255,255)"/>
				<line x1="1.1316287881310692" y1="65.00378787858939" x2="199.6164772723735" y2="65.00378787858939" stroke="rgb(0,0,0)" stroke-width="0.49621212121060576" stroke-linecap="round"/>
				<line x1="199.61647727237346" y1="65.00378787858939" x2="199.61647727237346" y2="0.4962121212106041" stroke="rgb(0,0,0)" stroke-width="0.49621212121060576" stroke-linecap="round"/>
				<line x1="199.61647727237346" y1="0.49621212121060604" x2="1.131628788131053" y2="0.49621212121060604" stroke="rgb(0,0,0)" stroke-width="0.49621212121060576" stroke-linecap="round"/>
				<line x1="1.1316287881310692" y1="0.49621212121060604" x2="1.1316287881310692" y2="65.00378787858939" stroke="rgb(0,0,0)" stroke-width="0.49621212121060576" stroke-linecap="round"/>
				<g>
					<desc>null, supplement, null</desc>
					<path d=" M 1.1316287881310692,65.00378787858939 L 11.05587121234319,65.00378787858939 L 11.05587121234319,0.49621212121060604 L 1.1316287881310692,0.49621212121060604 z" fill="rgb(255,255,255)"/>
					<line x1="1.1316287881310692" y1="65.00378787858939" x2="11.05587121234319" y2="65.00378787858939" stroke="rgb(0,0,0)" stroke-width="0.49621212121060576" stroke-linecap="round"/>
					<line x1="11.05587121234319" y1="65.00378787858939" x2="11.05587121234319" y2="0.4962121212106041" stroke="rgb(0,0,0)" stroke-width="0.49621212121060576" stroke-linecap="round"/>
					<line x1="11.05587121234319" y1="0.49621212121060604" x2="1.131628788131069" y2="0.49621212121060604" stroke="rgb(0,0,0)" stroke-width="0.49621212121060576" stroke-linecap="round"/>
					<line x1="1.1316287881310692" y1="0.49621212121060604" x2="1.1316287881310692" y2="65.00378787858939" stroke="rgb(0,0,0)" stroke-width="0.49621212121060576" stroke-linecap="round"/>
					<g transform="rotate(270.0,7.73125000023213,32.7499999999)">
						<text x="7.73125000023213" y="32.7499999999" textLength="10.261666666635334" lengthAdjust="spacingAndGlyphs" text-anchor="middle" font-family="Arial" font-size="4.876111111096223">User</text>
					</g>
				</g>
			</g>
		</g>
		<g class="clickEl 459b92580000c3a80141cb4acb521ab1">
			<desc>Stop dimming!, bpmn.bpd.event, 610d40080000bca801377da069585723</desc>
			<g>
				<desc>null, figure.plane, null</desc>
				<path d="M 110.2982954544644,40.19318181805909 A 4.962121212106055 4.962121212106062 0 0 1 115.26041666657045,35.231060605953026 L 115.26041666657045,35.231060605953026 A 4.962121212106069 4.962121212106062 0 0 1 120.22253787867652,40.19318181805909 L 120.22253787867652,40.19318181805909 A 4.962121212106069 4.962121212106062 0 0 1 115.26041666657045,45.15530303016515 L 115.26041666657045,45.15530303016515 A 4.962121212106055 4.962121212106062 0 0 1 110.2982954544644,40.19318181805909 z" fill="rgb(255,232,232)"/>
				<path d="M 110.2982954544644,40.19318181805909 A 4.962121212106055 4.962121212106062 0 0 1 115.26041666657045,35.231060605953026" stroke="rgb(255,255,255)" stroke-width="0.9924242424212115" fill="none" stroke-linecap="round"/>
				<path d="M 115.26041666657045,35.231060605953026 A 4.962121212106069 4.962121212106062 0 0 1 120.22253787867652,40.19318181805909" stroke="rgb(255,255,255)" stroke-width="0.9924242424212115" fill="none" stroke-linecap="round"/>
				<path d="M 120.22253787867652,40.19318181805909 A 4.962121212106069 4.962121212106062 0 0 1 115.26041666657045,45.15530303016515" stroke="rgb(255,255,255)" stroke-width="0.9924242424212115" fill="none" stroke-linecap="round"/>
				<path d="M 115.26041666657045,45.15530303016515 A 4.962121212106055 4.962121212106062 0 0 1 110.2982954544644,40.19318181805909" stroke="rgb(255,255,255)" stroke-width="0.9924242424212115" fill="none" stroke-linecap="round"/>
				<path d="M 110.794507575675,40.19318181805909 A 4.465909090895449 4.465909090895456 0 0 1 115.26041666657045,35.72727272716363" stroke="rgb(0,0,0)" stroke-width="0.49621212121060576" fill="none" stroke-linecap="round"/>
				<path d="M 109.80208333325379,40.19318181805909 A 5.458333333316661 5.458333333316668 0 0 1 115.26041666657045,34.73484848474242" stroke="rgb(0,0,0)" stroke-width="0.49621212121060576" fill="none" stroke-linecap="round"/>
				<path d="M 115.26041666657045,35.72727272716363 A 4.4659090908954635 4.465909090895456 0 0 1 119.72632575746591,40.19318181805909" stroke="rgb(0,0,0)" stroke-width="0.49621212121060576" fill="none" stroke-linecap="round"/>
				<path d="M 115.26041666657045,34.73484848474242 A 5.458333333316675 5.458333333316668 0 0 1 120.71874999988712,40.19318181805909" stroke="rgb(0,0,0)" stroke-width="0.49621212121060576" fill="none" stroke-linecap="round"/>
				<path d="M 119.72632575746591,40.19318181805909 A 4.4659090908954635 4.465909090895456 0 0 1 115.26041666657045,44.659090908954546" stroke="rgb(0,0,0)" stroke-width="0.49621212121060576" fill="none" stroke-linecap="round"/>
				<path d="M 120.71874999988712,40.19318181805909 A 5.458333333316675 5.458333333316668 0 0 1 115.26041666657045,45.651515151375754" stroke="rgb(0,0,0)" stroke-width="0.49621212121060576" fill="none" stroke-linecap="round"/>
				<path d="M 115.26041666657045,44.659090908954546 A 4.465909090895449 4.465909090895456 0 0 1 110.794507575675,40.19318181805909" stroke="rgb(0,0,0)" stroke-width="0.49621212121060576" fill="none" stroke-linecap="round"/>
				<path d="M 115.26041666657045,45.651515151375754 A 5.458333333316661 5.458333333316668 0 0 1 109.80208333325379,40.19318181805909" stroke="rgb(0,0,0)" stroke-width="0.49621212121060576" fill="none" stroke-linecap="round"/>
				<g>
					<desc>null, supplement, null</desc>
					<text x="115.26041666657046" y="50.21666666651333" textLength="25.842727272648347" lengthAdjust="spacingAndGlyphs" text-anchor="middle" font-family="Arial" font-size="3.9895454545332694">Stop dimming!</text>
				</g>
			</g>
		</g>
		<g class="clickEl 610e0b010000bca80137ac40800bb1b8">
			<desc>Release button, bpmn.bpd.activity, 610e25f80000bca801374e3ed702e656</desc>
			<g>
				<desc>null, figure.plane, null</desc>
				<path d=" M 135.10890151499467,45.15530303016515 L 164.88162878763106,45.15530303016515 L 164.88162878763106,35.231060605953026 L 135.10890151499467,35.231060605953026 z" fill="rgb(224,251,193)"/>
				<line x1="135.10890151499467" y1="45.15530303016515" x2="164.88162878763106" y2="45.15530303016515" stroke="rgb(0,0,0)" stroke-width="0.49621212121060576" stroke-linecap="round"/>
				<line x1="164.88162878763106" y1="45.15530303016515" x2="164.88162878763106" y2="35.231060605953026" stroke="rgb(0,0,0)" stroke-width="0.49621212121060576" stroke-linecap="round"/>
				<line x1="164.88162878763106" y1="35.231060605953026" x2="135.10890151499467" y2="35.231060605953026" stroke="rgb(0,0,0)" stroke-width="0.49621212121060576" stroke-linecap="round"/>
				<line x1="135.10890151499467" y1="35.231060605953026" x2="135.10890151499467" y2="45.15530303016515" stroke="rgb(0,0,0)" stroke-width="0.49621212121060576" stroke-linecap="round"/>
				<g>
					<desc>null, supplement, null</desc>
					<text x="149.99526515131288" y="39.29999999988" textLength="14.58863636359182" lengthAdjust="spacingAndGlyphs" text-anchor="middle" font-family="Arial" font-size="3.989545454533274">Release</text>
					<text x="149.99526515131288" y="43.76590909077546" textLength="11.07545454542073" lengthAdjust="spacingAndGlyphs" text-anchor="middle" font-family="Arial" font-size="3.989545454533274">button</text>
				</g>
			</g>
		</g>
		<g>
			<desc>, bpmn.bpd.relation, 610e3bc20000bca801378f59a6169de8</desc>
			<g>
				<desc>null, figure.lineshape, null</desc>
				<line x1="95.5049715908732" y1="40.19318181805909" x2="108.98643465901385" y2="40.19318181805909" stroke="rgb(0,0,0)" stroke-width="0.24810606060530288" stroke-linecap="round"/>
				<path d="M 110.18174085160072,40.02919921862777 A 0.1893507958481781 0.18935079584817813 0 0 1 110.18174085160072,40.35716441749041 L 108.90238733527649,41.09579951452891 A 0.19875847464273388 0.19875847464269397 0 0 1 108.62984200332019,40.82610715955758 L 108.62984200332019,40.82610715955756 A 1.289422865953128 1.2894228659531317 0 0 0 108.62984200332019,39.560256476560625 L 108.62984200332019,39.56025647656062 A 0.1987584746427215 0.1987584746427072 0 0 1 108.90238733527649,39.29056412158926 z"/>
			</g>
		</g>
		<g>
			<desc>, bpmn.bpd.relation, 610e4a1f0000bca80137c70fd0d29a81</desc>
			<g>
				<desc>null, figure.lineshape, null</desc>
				<line x1="95.5049715908732" y1="25.30681818174091" x2="108.98643465901385" y2="25.30681818174091" stroke="rgb(0,0,0)" stroke-width="0.24810606060530288" stroke-linecap="round"/>
				<path d="M 110.18174085160072,25.14283558230959 A 0.189350795848168 0.18935079584816789 0 0 1 110.18174085160072,25.470800781172226 L 108.90238733527644,26.20943587821073 A 0.19875847464270216 0.19875847464271956 0 0 1 108.62984200332019,25.93974352323936 L 108.62984200332019,25.93974352323937 A 1.2894228659531137 1.2894228659531168 0 0 0 108.62984200332019,24.67389284024244 L 108.62984200332019,24.673892840242445 A 0.1987584746427039 0.19875847464271032 0 0 1 108.90238733527646,24.404200485271087 z"/>
			</g>
		</g>
		<g>
			<desc>, bpmn.bpd.relation, 610e6c350000bca80137161676c3b540</desc>
			<g>
				<desc>null, figure.lineshape, null</desc>
				<line x1="120.3155776514035" y1="40.19318181805909" x2="133.79704071954413" y2="40.19318181805909" stroke="rgb(0,0,0)" stroke-width="0.24810606060530288" stroke-linecap="round"/>
				<path d="M 134.99234691213098,40.02919921862777 A 0.189350795848171 0.189350795848171 0 0 1 134.99234691213098,40.35716441749041 L 133.71299339580668,41.09579951452891 A 0.19875847464265448 0.1987584746427645 0 0 1 133.44044806385048,40.82610715955748 L 133.44044806385048,40.82610715955754 A 1.2894228659531086 1.2894228659531088 0 0 0 133.44044806385048,39.56025647656064 L 133.44044806385048,39.560256476560696 A 0.19875847464265448 0.1987584746427645 0 0 1 133.71299339580668,39.29056412158926 z"/>
			</g>
		</g>
		<g class="clickEl 4538920b0000c3a801415c67e334b8a1">
			<desc>Done!, bpmn.bpd.event, 610ecebe0000bca80137de097c2e3e85</desc>
			<g>
				<desc>null, figure.plane, null</desc>
				<path d="M 182.24905303000224,32.7499999999 A 4.962121212106069 4.962121212106066 0 0 1 187.2111742421083,27.787878787793932 L 187.2111742421083,27.787878787793932 A 4.962121212106098 4.962121212106066 0 0 1 192.1732954542144,32.7499999999 L 192.1732954542144,32.7499999999 A 4.962121212106098 4.962121212106048 0 0 1 187.2111742421083,37.712121212006046 L 187.2111742421083,37.712121212006046 A 4.962121212106069 4.962121212106048 0 0 1 182.24905303000224,32.7499999999 z" fill="rgb(255,232,232)"/>
				<path d="M 182.24905303000224,32.7499999999 A 4.962121212106069 4.962121212106066 0 0 1 187.2111742421083,27.787878787793932" stroke="rgb(0,0,0)" stroke-width="1.488636363631817" fill="none" stroke-linecap="round"/>
				<path d="M 187.2111742421083,27.787878787793932 A 4.962121212106098 4.962121212106066 0 0 1 192.1732954542144,32.7499999999" stroke="rgb(0,0,0)" stroke-width="1.488636363631817" fill="none" stroke-linecap="round"/>
				<path d="M 192.1732954542144,32.7499999999 A 4.962121212106098 4.962121212106048 0 0 1 187.2111742421083,37.712121212006046" stroke="rgb(0,0,0)" stroke-width="1.488636363631817" fill="none" stroke-linecap="round"/>
				<path d="M 187.2111742421083,37.712121212006046 A 4.962121212106069 4.962121212106048 0 0 1 182.24905303000224,32.7499999999" stroke="rgb(0,0,0)" stroke-width="1.488636363631817" fill="none" stroke-linecap="round"/>
				<g>
					<desc>null, supplement, null</desc>
					<text x="187.2111742421083" y="42.773484848354244" textLength="10.777727272694355" lengthAdjust="spacingAndGlyphs" text-anchor="middle" font-family="Arial" font-size="3.989545454533269">Done!</text>
				</g>
			</g>
		</g>
		<g>
			<desc>, bpmn.bpd.relation, 610f0e9c0000bca80137400ca7ffd9ea</desc>
			<g>
				<desc>null, figure.lineshape, null</desc>
				<line x1="95.5049715908732" y1="55.07954545437727" x2="172.32481060579013" y2="55.07954545437727" stroke="rgb(0,0,0)" stroke-width="0.24810606060530288" stroke-linecap="round"/>
				<path d="M 172.32481060579013,55.07954545437727 A 2.481060606053063 2.4810606060530276 0 0 0 174.8058712118432,52.59848484832424" stroke="rgb(0,0,0)" stroke-width="0.24810606060530288" fill="none" stroke-linecap="round"/>
				<line x1="174.8058712118432" y1="52.59848484832424" x2="174.8058712118432" y2="35.231060605953026" stroke="rgb(0,0,0)" stroke-width="0.24810606060530288" stroke-linecap="round"/>
				<path d="M 174.8058712118432,35.231060605953026 A 2.4810606060530347 2.4810606060530276 0 0 1 177.28693181789623,32.7499999999" stroke="rgb(0,0,0)" stroke-width="0.24810606060530288" fill="none" stroke-linecap="round"/>
				<line x1="177.28693181789623" y1="32.7499999999" x2="180.9371922345517" y2="32.7499999999" stroke="rgb(0,0,0)" stroke-width="0.24810606060530288" stroke-linecap="round"/>
				<path d="M 182.13249842713856,32.58601740046868 A 0.189350795848171 0.189350795848171 0 0 1 182.13249842713856,32.91398259933132 L 180.85314491081425,33.652617696369816 A 0.19875847464265448 0.1987584746427645 0 0 1 180.58059957885806,33.38292534139838 L 180.58059957885806,33.38292534139844 A 1.2894228659530804 1.2894228659530802 0 0 0 180.58059957885806,32.117074658401556 L 180.58059957885806,32.11707465840161 A 0.19875847464265448 0.19875847464276758 0 0 1 180.85314491081425,31.847382303430177 z"/>
			</g>
		</g>
		<g>
			<desc>, bpmn.bpd.relation, 610f3f8e0000bca801376c3031985e08</desc>
			<g>
				<desc>null, figure.lineshape, null</desc>
				<line x1="164.97466856035803" y1="40.19318181805909" x2="172.32481060579013" y2="40.19318181805909" stroke="rgb(0,0,0)" stroke-width="0.24810606060530288" stroke-linecap="round"/>
				<path d="M 172.32481060579013,40.19318181805909 A 2.481060606053063 2.481060606053042 0 0 0 174.8058712118432,37.712121212006046" stroke="rgb(0,0,0)" stroke-width="0.24810606060530288" fill="none" stroke-linecap="round"/>
				<line x1="174.8058712118432" y1="37.712121212006046" x2="174.8058712118432" y2="35.231060605953026" stroke="rgb(0,0,0)" stroke-width="0.24810606060530288" stroke-linecap="round"/>
				<path d="M 174.8058712118432,35.231060605953026 A 2.4810606060530347 2.4810606060530276 0 0 1 177.28693181789623,32.7499999999" stroke="rgb(0,0,0)" stroke-width="0.24810606060530288" fill="none" stroke-linecap="round"/>
				<line x1="177.28693181789623" y1="32.7499999999" x2="180.9371922345517" y2="32.7499999999" stroke="rgb(0,0,0)" stroke-width="0.24810606060530288" stroke-linecap="round"/>
				<path d="M 182.13249842713856,32.58601740046868 A 0.189350795848171 0.189350795848171 0 0 1 182.13249842713856,32.91398259933132 L 180.85314491081425,33.652617696369816 A 0.19875847464265448 0.1987584746427645 0 0 1 180.58059957885806,33.38292534139838 L 180.58059957885806,33.38292534139844 A 1.2894228659530804 1.2894228659530802 0 0 0 180.58059957885806,32.117074658401556 L 180.58059957885806,32.11707465840161 A 0.19875847464265448 0.19875847464276758 0 0 1 180.85314491081425,31.847382303430177 z"/>
			</g>
		</g>
		<g>
			<desc>, bpmn.bpd.relation, 610f56ed0000bca8013716190d4dfe4f</desc>
			<g>
				<desc>null, figure.lineshape, null</desc>
				<line x1="95.5049715908732" y1="10.420454545422727" x2="172.32481060579013" y2="10.420454545422727" stroke="rgb(0,0,0)" stroke-width="0.24810606060530288" stroke-linecap="round"/>
				<path d="M 172.32481060579013,10.420454545422727 A 2.481060606053063 2.4810606060530294 0 0 1 174.8058712118432,12.901515151475756" stroke="rgb(0,0,0)" stroke-width="0.24810606060530288" fill="none" stroke-linecap="round"/>
				<line x1="174.8058712118432" y1="12.901515151475756" x2="174.8058712118432" y2="30.268939393846967" stroke="rgb(0,0,0)" stroke-width="0.24810606060530288" stroke-linecap="round"/>
				<path d="M 174.8058712118432,30.268939393846967 A 2.4810606060530347 2.481060606053031 0 0 0 177.28693181789623,32.7499999999" stroke="rgb(0,0,0)" stroke-width="0.24810606060530288" fill="none" stroke-linecap="round"/>
				<line x1="177.28693181789623" y1="32.7499999999" x2="180.9371922345517" y2="32.7499999999" stroke="rgb(0,0,0)" stroke-width="0.24810606060530288" stroke-linecap="round"/>
				<path d="M 182.13249842713856,32.58601740046868 A 0.189350795848171 0.189350795848171 0 0 1 182.13249842713856,32.91398259933132 L 180.85314491081425,33.652617696369816 A 0.19875847464265448 0.1987584746427645 0 0 1 180.58059957885806,33.38292534139838 L 180.58059957885806,33.38292534139844 A 1.2894228659530804 1.2894228659530802 0 0 0 180.58059957885806,32.117074658401556 L 180.58059957885806,32.11707465840161 A 0.19875847464265448 0.19875847464276758 0 0 1 180.85314491081425,31.847382303430177 z"/>
			</g>
		</g>
		<g class="clickEl 459b92580000c3a80141cb4acb521ab1">
			<desc>Stop dimming!, bpmn.bpd.event, 459b88980000c3a801416649114d616f</desc>
			<g>
				<desc>null, figure.plane, null</desc>
				<path d="M 110.2982954544644,25.30681818174091 A 4.962121212106055 4.962121212106062 0 0 1 115.26041666657045,20.344696969634846 L 115.26041666657045,20.344696969634846 A 4.962121212106069 4.962121212106062 0 0 1 120.22253787867652,25.30681818174091 L 120.22253787867652,25.30681818174091 A 4.962121212106069 4.962121212106059 0 0 1 115.26041666657045,30.268939393846967 L 115.26041666657045,30.268939393846967 A 4.962121212106055 4.962121212106059 0 0 1 110.2982954544644,25.30681818174091 z" fill="rgb(255,232,232)"/>
				<path d="M 110.2982954544644,25.30681818174091 A 4.962121212106055 4.962121212106062 0 0 1 115.26041666657045,20.344696969634846" stroke="rgb(255,255,255)" stroke-width="0.9924242424212115" fill="none" stroke-linecap="round"/>
				<path d="M 115.26041666657045,20.344696969634846 A 4.962121212106069 4.962121212106062 0 0 1 120.22253787867652,25.30681818174091" stroke="rgb(255,255,255)" stroke-width="0.9924242424212115" fill="none" stroke-linecap="round"/>
				<path d="M 120.22253787867652,25.30681818174091 A 4.962121212106069 4.962121212106059 0 0 1 115.26041666657045,30.268939393846967" stroke="rgb(255,255,255)" stroke-width="0.9924242424212115" fill="none" stroke-linecap="round"/>
				<path d="M 115.26041666657045,30.268939393846967 A 4.962121212106055 4.962121212106059 0 0 1 110.2982954544644,25.30681818174091" stroke="rgb(255,255,255)" stroke-width="0.9924242424212115" fill="none" stroke-linecap="round"/>
				<path d="M 110.794507575675,25.30681818174091 A 4.465909090895449 4.465909090895456 0 0 1 115.26041666657045,20.84090909084545" stroke="rgb(0,0,0)" stroke-width="0.49621212121060576" fill="none" stroke-linecap="round"/>
				<path d="M 109.80208333325379,25.30681818174091 A 5.458333333316661 5.458333333316668 0 0 1 115.26041666657045,19.848484848424242" stroke="rgb(0,0,0)" stroke-width="0.49621212121060576" fill="none" stroke-linecap="round"/>
				<path d="M 115.26041666657045,20.84090909084545 A 4.4659090908954635 4.465909090895456 0 0 1 119.72632575746591,25.30681818174091" stroke="rgb(0,0,0)" stroke-width="0.49621212121060576" fill="none" stroke-linecap="round"/>
				<path d="M 115.26041666657045,19.848484848424242 A 5.458333333316675 5.458333333316668 0 0 1 120.71874999988712,25.30681818174091" stroke="rgb(0,0,0)" stroke-width="0.49621212121060576" fill="none" stroke-linecap="round"/>
				<path d="M 119.72632575746591,25.30681818174091 A 4.4659090908954635 4.465909090895453 0 0 1 115.26041666657045,29.77272727263636" stroke="rgb(0,0,0)" stroke-width="0.49621212121060576" fill="none" stroke-linecap="round"/>
				<path d="M 120.71874999988712,25.30681818174091 A 5.458333333316675 5.458333333316665 0 0 1 115.26041666657045,30.765151515057575" stroke="rgb(0,0,0)" stroke-width="0.49621212121060576" fill="none" stroke-linecap="round"/>
				<path d="M 115.26041666657045,29.77272727263636 A 4.465909090895449 4.465909090895453 0 0 1 110.794507575675,25.30681818174091" stroke="rgb(0,0,0)" stroke-width="0.49621212121060576" fill="none" stroke-linecap="round"/>
				<path d="M 115.26041666657045,30.765151515057575 A 5.458333333316661 5.458333333316665 0 0 1 109.80208333325379,25.30681818174091" stroke="rgb(0,0,0)" stroke-width="0.49621212121060576" fill="none" stroke-linecap="round"/>
				<g>
					<desc>null, supplement, null</desc>
					<text x="115.26041666657046" y="17.96287878782394" textLength="25.842727272648364" lengthAdjust="spacingAndGlyphs" text-anchor="middle" font-family="Arial" font-size="3.989545454533273">Stop dimming!</text>
				</g>
			</g>
		</g>
		<g class="clickEl 610e0b010000bca80137ac40800bb1b8">
			<desc>Release button, bpmn.bpd.activity, 459c019e0000c3a80141cdbb3080b153</desc>
			<g>
				<desc>null, figure.plane, null</desc>
				<path d=" M 135.10890151499467,30.268939393846967 L 164.88162878763106,30.268939393846967 L 164.88162878763106,20.344696969634846 L 135.10890151499467,20.344696969634846 z" fill="rgb(224,251,193)"/>
				<line x1="135.10890151499467" y1="30.268939393846967" x2="164.88162878763106" y2="30.268939393846967" stroke="rgb(0,0,0)" stroke-width="0.49621212121060576" stroke-linecap="round"/>
				<line x1="164.88162878763106" y1="30.268939393846967" x2="164.88162878763106" y2="20.344696969634846" stroke="rgb(0,0,0)" stroke-width="0.49621212121060576" stroke-linecap="round"/>
				<line x1="164.88162878763106" y1="20.344696969634846" x2="135.10890151499467" y2="20.344696969634846" stroke="rgb(0,0,0)" stroke-width="0.49621212121060576" stroke-linecap="round"/>
				<line x1="135.10890151499467" y1="20.344696969634846" x2="135.10890151499467" y2="30.268939393846967" stroke="rgb(0,0,0)" stroke-width="0.49621212121060576" stroke-linecap="round"/>
				<g>
					<desc>null, supplement, null</desc>
					<text x="149.99526515131288" y="24.413636363561817" textLength="14.58863636359182" lengthAdjust="spacingAndGlyphs" text-anchor="middle" font-family="Arial" font-size="3.989545454533274">Release</text>
					<text x="149.99526515131288" y="28.879545454457272" textLength="11.07545454542073" lengthAdjust="spacingAndGlyphs" text-anchor="middle" font-family="Arial" font-size="3.989545454533274">button</text>
				</g>
			</g>
		</g>
		<g>
			<desc>, bpmn.bpd.relation, 459c019e0000c3a80141cdbdf078ab36</desc>
			<g>
				<desc>null, figure.lineshape, null</desc>
				<line x1="120.3155776514035" y1="25.30681818174091" x2="133.79704071954413" y2="25.30681818174091" stroke="rgb(0,0,0)" stroke-width="0.24810606060530288" stroke-linecap="round"/>
				<path d="M 134.99234691213098,25.14283558230959 A 0.189350795848168 0.18935079584816789 0 0 1 134.99234691213098,25.470800781172226 L 133.71299339580668,26.20943587821073 A 0.19875847464265448 0.19875847464276758 0 0 1 133.44044806385048,25.939743523239294 L 133.44044806385048,25.93974352323935 A 1.2894228659530804 1.2894228659530838 0 0 0 133.44044806385048,24.67389284024246 L 133.44044806385048,24.673892840242505 A 0.19875847464265806 0.19875847464275528 0 0 1 133.71299339580668,24.404200485271087 z"/>
			</g>
		</g>
		<g>
			<desc>, bpmn.bpd.relation, 459c019e0000c3a80141cdbea7bb13c2</desc>
			<g>
				<desc>null, figure.lineshape, null</desc>
				<line x1="164.97466856035803" y1="25.30681818174091" x2="172.32481060579013" y2="25.30681818174091" stroke="rgb(0,0,0)" stroke-width="0.24810606060530288" stroke-linecap="round"/>
				<path d="M 172.32481060579013,25.30681818174091 A 2.481060606053063 2.481060606053024 0 0 1 174.8058712118432,27.787878787793932" stroke="rgb(0,0,0)" stroke-width="0.24810606060530288" fill="none" stroke-linecap="round"/>
				<line x1="174.8058712118432" y1="27.787878787793932" x2="174.8058712118432" y2="30.268939393846967" stroke="rgb(0,0,0)" stroke-width="0.24810606060530288" stroke-linecap="round"/>
				<path d="M 174.8058712118432,30.268939393846967 A 2.4810606060530347 2.481060606053031 0 0 0 177.28693181789623,32.7499999999" stroke="rgb(0,0,0)" stroke-width="0.24810606060530288" fill="none" stroke-linecap="round"/>
				<line x1="177.28693181789623" y1="32.7499999999" x2="180.9371922345517" y2="32.7499999999" stroke="rgb(0,0,0)" stroke-width="0.24810606060530288" stroke-linecap="round"/>
				<path d="M 182.13249842713856,32.58601740046868 A 0.189350795848171 0.189350795848171 0 0 1 182.13249842713856,32.91398259933132 L 180.85314491081425,33.652617696369816 A 0.19875847464265448 0.1987584746427645 0 0 1 180.58059957885806,33.38292534139838 L 180.58059957885806,33.38292534139844 A 1.2894228659530804 1.2894228659530802 0 0 0 180.58059957885806,32.117074658401556 L 180.58059957885806,32.11707465840161 A 0.19875847464265448 0.19875847464276758 0 0 1 180.85314491081425,31.847382303430177 z"/>
			</g>
		</g>
		<g class="clickEl 5b0839b90000bca801376dcca41ca7d0">
			<desc>Switch-off!, bpmn.bpd.event, 459e87ad0000c3a8014109821932c1dd</desc>
			<g>
				<desc>null, figure.plane, null</desc>
				<path d="M 40.82859848497956,55.07954545437727 A 4.962121212106055 4.962121212106055 0 0 1 45.79071969708561,50.11742424227121 L 45.79071969708561,50.11742424227121 A 4.962121212106055 4.962121212106055 0 0 1 50.75284090919167,55.07954545437727 L 50.75284090919167,55.07954545437727 A 4.962121212106055 4.962121212106062 0 0 1 45.79071969708561,60.04166666648333 L 45.79071969708561,60.04166666648333 A 4.962121212106055 4.962121212106062 0 0 1 40.82859848497956,55.07954545437727 z" fill="rgb(255,232,232)"/>
				<path d="M 40.82859848497956,55.07954545437727 A 4.962121212106055 4.962121212106055 0 0 1 45.79071969708561,50.11742424227121" stroke="rgb(0,0,0)" stroke-width="0.49621212121060576" fill="none" stroke-linecap="round"/>
				<path d="M 45.79071969708561,50.11742424227121 A 4.962121212106055 4.962121212106055 0 0 1 50.75284090919167,55.07954545437727" stroke="rgb(0,0,0)" stroke-width="0.49621212121060576" fill="none" stroke-linecap="round"/>
				<path d="M 50.75284090919167,55.07954545437727 A 4.962121212106055 4.962121212106062 0 0 1 45.79071969708561,60.04166666648333" stroke="rgb(0,0,0)" stroke-width="0.49621212121060576" fill="none" stroke-linecap="round"/>
				<path d="M 45.79071969708561,60.04166666648333 A 4.962121212106055 4.962121212106062 0 0 1 40.82859848497956,55.07954545437727" stroke="rgb(0,0,0)" stroke-width="0.49621212121060576" fill="none" stroke-linecap="round"/>
				<g>
					<desc>null, supplement, null</desc>
					<text x="39.33996212134773" y="56.419318181645906" textLength="18.816363636306185" lengthAdjust="spacingAndGlyphs" text-anchor="end" font-family="Arial" font-size="3.989545454533274">Switch-off!</text>
				</g>
			</g>
		</g>
		<g class="clickEl 608177820000bca801379179ebf3b6aa">
			<desc>Briefly press Down-button, bpmn.bpd.activity, 459e87ad0000c3a8014109841135c0c1</desc>
			<g>
				<desc>null, figure.plane, null</desc>
				<path d=" M 65.63920454550986,60.04166666648333 L 95.41193181814621,60.04166666648333 L 95.41193181814621,50.11742424227121 L 65.63920454550986,50.11742424227121 z" fill="rgb(224,251,193)"/>
				<line x1="65.63920454550986" y1="60.04166666648333" x2="95.41193181814621" y2="60.04166666648333" stroke="rgb(0,0,0)" stroke-width="0.49621212121060576" stroke-linecap="round"/>
				<line x1="95.41193181814621" y1="60.04166666648333" x2="95.41193181814621" y2="50.11742424227121" stroke="rgb(0,0,0)" stroke-width="0.49621212121060576" stroke-linecap="round"/>
				<line x1="95.41193181814621" y1="50.11742424227121" x2="65.63920454550986" y2="50.11742424227121" stroke="rgb(0,0,0)" stroke-width="0.49621212121060576" stroke-linecap="round"/>
				<line x1="65.63920454550986" y1="50.11742424227121" x2="65.63920454550986" y2="60.04166666648332" stroke="rgb(0,0,0)" stroke-width="0.49621212121060576" stroke-linecap="round"/>
				<g>
					<desc>null, supplement, null</desc>
					<text x="80.52556818182804" y="54.18636363619818" textLength="21.97227272720564" lengthAdjust="spacingAndGlyphs" text-anchor="middle" font-family="Arial" font-size="3.989545454533274">Briefly press</text>
					<text x="80.52556818182804" y="58.65227272709364" textLength="22.44863636356782" lengthAdjust="spacingAndGlyphs" text-anchor="middle" font-family="Arial" font-size="3.989545454533274">Down-button</text>
				</g>
			</g>
		</g>
		<g>
			<desc>, bpmn.bpd.relation, 459e87ad0000c3a801410986d333f305</desc>
			<g>
				<desc>null, figure.lineshape, null</desc>
				<line x1="50.84588068191866" y1="55.07954545437727" x2="64.32734375005931" y2="55.07954545437727" stroke="rgb(0,0,0)" stroke-width="0.24810606060530288" stroke-linecap="round"/>
				<path d="M 65.52264994264617,54.91556285494595 A 0.1893507958481781 0.18935079584817813 0 0 1 65.52264994264617,55.24352805380859 L 64.2432964263219,55.98216315084709 A 0.19875847464270216 0.19875847464271956 0 0 1 63.97075109436565,55.712470795875724 L 63.97075109436565,55.71247079587573 A 1.2894228659530997 1.2894228659531002 0 0 0 63.970751094365646,54.446620112878804 L 63.970751094365646,54.446620112878804 A 0.19875847464271182 0.1987584746427072 0 0 1 64.24329642632192,54.17692775790745 z"/>
			</g>
		</g>
		<g class="clickEl 45387c0b0000c3a801410aa03f6b9be4">
			<desc>Dim-up!, bpmn.bpd.event, 459eca480000c3a80141cfed80cd0bf8</desc>
			<g>
				<desc>null, figure.plane, null</desc>
				<path d="M 40.82859848497956,25.30681818174091 A 4.962121212106055 4.962121212106062 0 0 1 45.79071969708561,20.344696969634846 L 45.79071969708561,20.344696969634846 A 4.962121212106055 4.962121212106062 0 0 1 50.75284090919167,25.30681818174091 L 50.75284090919167,25.30681818174091 A 4.962121212106055 4.962121212106059 0 0 1 45.79071969708561,30.268939393846967 L 45.79071969708561,30.268939393846967 A 4.962121212106055 4.962121212106059 0 0 1 40.82859848497956,25.30681818174091 z" fill="rgb(255,232,232)"/>
				<path d="M 40.82859848497956,25.30681818174091 A 4.962121212106055 4.962121212106062 0 0 1 45.79071969708561,20.344696969634846" stroke="rgb(0,0,0)" stroke-width="0.49621212121060576" fill="none" stroke-linecap="round"/>
				<path d="M 45.79071969708561,20.344696969634846 A 4.962121212106055 4.962121212106062 0 0 1 50.75284090919167,25.30681818174091" stroke="rgb(0,0,0)" stroke-width="0.49621212121060576" fill="none" stroke-linecap="round"/>
				<path d="M 50.75284090919167,25.30681818174091 A 4.962121212106055 4.962121212106059 0 0 1 45.79071969708561,30.268939393846967" stroke="rgb(0,0,0)" stroke-width="0.49621212121060576" fill="none" stroke-linecap="round"/>
				<path d="M 45.79071969708561,30.268939393846967 A 4.962121212106055 4.962121212106059 0 0 1 40.82859848497956,25.30681818174091" stroke="rgb(0,0,0)" stroke-width="0.49621212121060576" fill="none" stroke-linecap="round"/>
				<g>
					<desc>null, supplement, null</desc>
					<text x="39.33996212134773" y="26.646590909009547" textLength="14.171818181774912" lengthAdjust="spacingAndGlyphs" text-anchor="end" font-family="Arial" font-size="3.989545454533274">Dim-up!</text>
				</g>
			</g>
		</g>
		<g class="clickEl 610b07100000bca80137c10f96c46247">
			<desc>Press and hold Up-button, bpmn.bpd.activity, 459eca480000c3a80141cfefd7ecbc8f</desc>
			<g>
				<desc>null, figure.plane, null</desc>
				<path d=" M 65.63920454550986,30.268939393846967 L 95.41193181814621,30.268939393846967 L 95.41193181814621,20.344696969634846 L 65.63920454550986,20.344696969634846 z" fill="rgb(224,251,193)"/>
				<line x1="65.63920454550986" y1="30.268939393846967" x2="95.41193181814621" y2="30.268939393846967" stroke="rgb(0,0,0)" stroke-width="0.49621212121060576" stroke-linecap="round"/>
				<line x1="95.41193181814621" y1="30.268939393846967" x2="95.41193181814621" y2="20.344696969634846" stroke="rgb(0,0,0)" stroke-width="0.49621212121060576" stroke-linecap="round"/>
				<line x1="95.41193181814621" y1="20.344696969634846" x2="65.63920454550986" y2="20.344696969634846" stroke="rgb(0,0,0)" stroke-width="0.49621212121060576" stroke-linecap="round"/>
				<line x1="65.63920454550986" y1="20.344696969634846" x2="65.63920454550986" y2="30.268939393846967" stroke="rgb(0,0,0)" stroke-width="0.49621212121060576" stroke-linecap="round"/>
				<g>
					<desc>null, supplement, null</desc>
					<text x="80.52556818182804" y="24.413636363561817" textLength="26.616818181736914" lengthAdjust="spacingAndGlyphs" text-anchor="middle" font-family="Arial" font-size="3.989545454533274">Press and hold</text>
					<text x="80.52556818182804" y="28.879545454457272" textLength="17.446818181764915" lengthAdjust="spacingAndGlyphs" text-anchor="middle" font-family="Arial" font-size="3.989545454533274">Up-button</text>
				</g>
			</g>
		</g>
		<g>
			<desc>, bpmn.bpd.relation, 459eca480000c3a80141cff1f09b43a4</desc>
			<g>
				<desc>null, figure.lineshape, null</desc>
				<line x1="50.84588068191866" y1="25.30681818174091" x2="64.32734375005931" y2="25.30681818174091" stroke="rgb(0,0,0)" stroke-width="0.24810606060530288" stroke-linecap="round"/>
				<path d="M 65.52264994264617,25.14283558230959 A 0.189350795848168 0.18935079584816789 0 0 1 65.52264994264617,25.470800781172226 L 64.24329642632192,26.209435878210726 A 0.19875847464270566 0.1987584746427072 0 0 1 63.97075109436565,25.939743523239372 L 63.97075109436565,25.93974352323937 A 1.2894228659531093 1.289422865953105 0 0 0 63.97075109436565,24.67389284024244 L 63.970751094365646,24.673892840242427 A 0.19875847464272595 0.19875847464269397 0 0 1 64.24329642632193,24.40420048527109 z"/>
			</g>
		</g>
		<g class="clickEl 453862540000c3a801419d91bef48cfd">
			<desc>Dim-down!, bpmn.bpd.event, 459ef08d0000c3a801417d948d354747</desc>
			<g>
				<desc>null, figure.plane, null</desc>
				<path d="M 40.82859848497956,40.19318181805909 A 4.962121212106055 4.962121212106062 0 0 1 45.79071969708561,35.231060605953026 L 45.79071969708561,35.231060605953026 A 4.962121212106055 4.962121212106062 0 0 1 50.75284090919167,40.19318181805909 L 50.75284090919167,40.19318181805909 A 4.962121212106055 4.962121212106062 0 0 1 45.79071969708561,45.15530303016515 L 45.79071969708561,45.15530303016515 A 4.962121212106055 4.962121212106062 0 0 1 40.82859848497956,40.19318181805909 z" fill="rgb(255,232,232)"/>
				<path d="M 40.82859848497956,40.19318181805909 A 4.962121212106055 4.962121212106062 0 0 1 45.79071969708561,35.231060605953026" stroke="rgb(0,0,0)" stroke-width="0.49621212121060576" fill="none" stroke-linecap="round"/>
				<path d="M 45.79071969708561,35.231060605953026 A 4.962121212106055 4.962121212106062 0 0 1 50.75284090919167,40.19318181805909" stroke="rgb(0,0,0)" stroke-width="0.49621212121060576" fill="none" stroke-linecap="round"/>
				<path d="M 50.75284090919167,40.19318181805909 A 4.962121212106055 4.962121212106062 0 0 1 45.79071969708561,45.15530303016515" stroke="rgb(0,0,0)" stroke-width="0.49621212121060576" fill="none" stroke-linecap="round"/>
				<path d="M 45.79071969708561,45.15530303016515 A 4.962121212106055 4.962121212106062 0 0 1 40.82859848497956,40.19318181805909" stroke="rgb(0,0,0)" stroke-width="0.49621212121060576" fill="none" stroke-linecap="round"/>
				<g>
					<desc>null, supplement, null</desc>
					<text x="39.33996212134773" y="41.532954545327726" textLength="19.17363636357782" lengthAdjust="spacingAndGlyphs" text-anchor="end" font-family="Arial" font-size="3.989545454533274">Dim-down!</text>
				</g>
			</g>
		</g>
		<g class="clickEl 608239830000bca801373690c7d2af0f">
			<desc>Press and hold Down-button, bpmn.bpd.activity, 459ef08d0000c3a801417d969be8aac8</desc>
			<g>
				<desc>null, figure.plane, null</desc>
				<path d=" M 65.63920454550986,45.15530303016515 L 95.41193181814621,45.15530303016515 L 95.41193181814621,35.231060605953026 L 65.63920454550986,35.231060605953026 z" fill="rgb(224,251,193)"/>
				<line x1="65.63920454550986" y1="45.15530303016515" x2="95.41193181814621" y2="45.15530303016515" stroke="rgb(0,0,0)" stroke-width="0.49621212121060576" stroke-linecap="round"/>
				<line x1="95.41193181814621" y1="45.15530303016515" x2="95.41193181814621" y2="35.231060605953026" stroke="rgb(0,0,0)" stroke-width="0.49621212121060576" stroke-linecap="round"/>
				<line x1="95.41193181814621" y1="35.231060605953026" x2="65.63920454550986" y2="35.231060605953026" stroke="rgb(0,0,0)" stroke-width="0.49621212121060576" stroke-linecap="round"/>
				<line x1="65.63920454550986" y1="35.231060605953026" x2="65.63920454550986" y2="45.15530303016515" stroke="rgb(0,0,0)" stroke-width="0.49621212121060576" stroke-linecap="round"/>
				<g>
					<desc>null, supplement, null</desc>
					<text x="80.52556818182804" y="39.29999999988" textLength="26.616818181736914" lengthAdjust="spacingAndGlyphs" text-anchor="middle" font-family="Arial" font-size="3.989545454533274">Press and hold</text>
					<text x="80.52556818182804" y="43.76590909077546" textLength="22.44863636356782" lengthAdjust="spacingAndGlyphs" text-anchor="middle" font-family="Arial" font-size="3.989545454533274">Down-button</text>
				</g>
			</g>
		</g>
		<g>
			<desc>, bpmn.bpd.relation, 459ef08d0000c3a801417d9877e0d811</desc>
			<g>
				<desc>null, figure.lineshape, null</desc>
				<line x1="50.84588068191866" y1="40.19318181805909" x2="64.32734375005931" y2="40.19318181805909" stroke="rgb(0,0,0)" stroke-width="0.24810606060530288" stroke-linecap="round"/>
				<path d="M 65.52264994264617,40.02919921862777 A 0.1893507958481781 0.18935079584817813 0 0 1 65.52264994264617,40.35716441749041 L 64.24329642632192,41.09579951452891 A 0.19875847464271182 0.1987584746427072 0 0 1 63.970751094365646,40.82610715955756 L 63.970751094365646,40.82610715955756 A 1.2894228659531155 1.289422865953113 0 0 0 63.97075109436565,39.560256476560625 L 63.97075109436565,39.56025647656063 A 0.19875847464270216 0.19875847464271956 0 0 1 64.2432964263219,39.29056412158926 z"/>
			</g>
		</g>
		<g class="clickEl 5b07e6aa0000bca8013797aad9be69ae">
			<desc>Switch-on!, bpmn.bpd.event, 459f0e3a0000c3a80141b7a7bae1d223</desc>
			<g>
				<desc>null, figure.plane, null</desc>
				<path d="M 40.82859848497956,10.420454545422727 A 4.962121212106055 4.9621212121060605 0 0 1 45.79071969708561,5.458333333316666 L 45.79071969708561,5.458333333316666 A 4.962121212106055 4.9621212121060605 0 0 1 50.75284090919167,10.420454545422727 L 50.75284090919167,10.420454545422727 A 4.962121212106055 4.9621212121060605 0 0 1 45.79071969708561,15.382575757528787 L 45.79071969708561,15.382575757528787 A 4.962121212106055 4.9621212121060605 0 0 1 40.82859848497956,10.420454545422727 z" fill="rgb(255,232,232)"/>
				<path d="M 40.82859848497956,10.420454545422727 A 4.962121212106055 4.9621212121060605 0 0 1 45.79071969708561,5.458333333316666" stroke="rgb(0,0,0)" stroke-width="0.49621212121060576" fill="none" stroke-linecap="round"/>
				<path d="M 45.79071969708561,5.458333333316666 A 4.962121212106055 4.9621212121060605 0 0 1 50.75284090919167,10.420454545422727" stroke="rgb(0,0,0)" stroke-width="0.49621212121060576" fill="none" stroke-linecap="round"/>
				<path d="M 50.75284090919167,10.420454545422727 A 4.962121212106055 4.9621212121060605 0 0 1 45.79071969708561,15.382575757528787" stroke="rgb(0,0,0)" stroke-width="0.49621212121060576" fill="none" stroke-linecap="round"/>
				<path d="M 45.79071969708561,15.382575757528787 A 4.962121212106055 4.9621212121060605 0 0 1 40.82859848497956,10.420454545422727" stroke="rgb(0,0,0)" stroke-width="0.49621212121060576" fill="none" stroke-linecap="round"/>
				<g>
					<desc>null, supplement, null</desc>
					<text x="39.33996212134773" y="11.760227272691363" textLength="18.75681818176091" lengthAdjust="spacingAndGlyphs" text-anchor="end" font-family="Arial" font-size="3.989545454533273">Switch-on!</text>
				</g>
			</g>
		</g>
		<g class="clickEl 611366530000bca80137a97f194e96a3">
			<desc>Briefly press Up-button, bpmn.bpd.activity, 459f0e3a0000c3a80141b7a99358c058</desc>
			<g>
				<desc>null, figure.plane, null</desc>
				<path d=" M 65.63920454550986,15.382575757528787 L 95.41193181814621,15.382575757528787 L 95.41193181814621,5.458333333316666 L 65.63920454550986,5.458333333316666 z" fill="rgb(224,251,193)"/>
				<line x1="65.63920454550986" y1="15.382575757528787" x2="95.41193181814621" y2="15.382575757528787" stroke="rgb(0,0,0)" stroke-width="0.49621212121060576" stroke-linecap="round"/>
				<line x1="95.41193181814621" y1="15.382575757528787" x2="95.41193181814621" y2="5.458333333316666" stroke="rgb(0,0,0)" stroke-width="0.49621212121060576" stroke-linecap="round"/>
				<line x1="95.41193181814621" y1="5.458333333316666" x2="65.63920454550986" y2="5.458333333316666" stroke="rgb(0,0,0)" stroke-width="0.49621212121060576" stroke-linecap="round"/>
				<line x1="65.63920454550986" y1="5.458333333316666" x2="65.63920454550986" y2="15.382575757528787" stroke="rgb(0,0,0)" stroke-width="0.49621212121060576" stroke-linecap="round"/>
				<g>
					<desc>null, supplement, null</desc>
					<text x="80.52556818182804" y="9.527272727243638" textLength="21.972272727205638" lengthAdjust="spacingAndGlyphs" text-anchor="middle" font-family="Arial" font-size="3.989545454533273">Briefly press</text>
					<text x="80.52556818182804" y="13.993181818139092" textLength="17.44681818176491" lengthAdjust="spacingAndGlyphs" text-anchor="middle" font-family="Arial" font-size="3.989545454533273">Up-button</text>
				</g>
			</g>
		</g>
		<g>
			<desc>, bpmn.bpd.relation, 459f0e3a0000c3a80141b7ab03c008b7</desc>
			<g>
				<desc>null, figure.lineshape, null</desc>
				<line x1="50.84588068191866" y1="10.420454545422727" x2="64.32734375005931" y2="10.420454545422727" stroke="rgb(0,0,0)" stroke-width="0.24810606060530288" stroke-linecap="round"/>
				<path d="M 65.52264994264617,10.256471945991407 A 0.18935079584817655 0.18935079584817657 0 0 1 65.52264994264617,10.584437144854046 L 64.24329642632193,11.323072241892545 A 0.19875847464272683 0.19875847464269245 0 0 1 63.970751094365646,11.05337988692121 L 63.970751094365646,11.053379886921194 A 1.2894228659531175 1.28942286595312 0 0 0 63.970751094365646,9.787529203924253 L 63.970751094365646,9.787529203924233 A 0.19875847464272858 0.19875847464268476 0 0 1 64.24329642632195,9.517836848952909 z"/>
			</g>
		</g>
	</g>
</svg>
