<?xml version="1.0" encoding="UTF-8"?>
<svg width="200.24999999980002mm" height="130.24999999980002mm" viewBox="0.0 0.0 200.24999999980002 130.24999999980002" xmlns="http://www.w3.org/2000/svg" xmlns:xlink="http://www.w3.org/1999/xlink" xmlns:ev="http://www.w3.org/2001/xml-events" version="1.1">
	<g class="diagram" id="45a1c8930000c3a801414cd1eaa70b5a" >
		<desc>Double-Button Observer Software, bpmn.bpd, 45a1c8930000c3a801414cd1eaa70b5a</desc>
		<g class="clickEl 606f16ac0000bca801373587fda932b3">
			<desc>Double-Button Observer Software, bpmn.bpd.competency, 4611cf1c0000c3a801418f7900e20660</desc>
			<g>
				<desc>null, figure.plane, null</desc>
				<path d=" M 0.1249999999,130.1249999999 L 200.1249999999,130.1249999999 L 200.1249999999,0.12499999989999822 L 0.1249999999,0.12499999989999822 z" fill="rgb(255,255,204)"/>
				<line x1="0.1249999999" y1="130.1249999999" x2="2.3698979590836737" y2="130.1249999999" stroke="rgb(0,0,0)" stroke-width="0.250000000000001" stroke-linecap="round"/>
				<line x1="3.4923469386755106" y1="130.1249999999" x2="5.737244897859185" y2="130.1249999999" stroke="rgb(0,0,0)" stroke-width="0.250000000000001" stroke-linecap="round"/>
				<line x1="6.859693877451022" y1="130.1249999999" x2="9.104591836634697" y2="130.1249999999" stroke="rgb(0,0,0)" stroke-width="0.250000000000001" stroke-linecap="round"/>
				<line x1="10.227040816226534" y1="130.1249999999" x2="12.471938775410209" y2="130.1249999999" stroke="rgb(0,0,0)" stroke-width="0.250000000000001" stroke-linecap="round"/>
				<line x1="13.594387755002046" y1="130.1249999999" x2="15.83928571418572" y2="130.1249999999" stroke="rgb(0,0,0)" stroke-width="0.250000000000001" stroke-linecap="round"/>
				<line x1="16.961734693777558" y1="130.1249999999" x2="19.206632652961233" y2="130.1249999999" stroke="rgb(0,0,0)" stroke-width="0.250000000000001" stroke-linecap="round"/>
				<line x1="20.32908163255307" y1="130.1249999999" x2="22.573979591736745" y2="130.1249999999" stroke="rgb(0,0,0)" stroke-width="0.250000000000001" stroke-linecap="round"/>
				<line x1="23.696428571328582" y1="130.1249999999" x2="25.941326530512256" y2="130.1249999999" stroke="rgb(0,0,0)" stroke-width="0.250000000000001" stroke-linecap="round"/>
				<line x1="27.063775510104094" y1="130.1249999999" x2="29.30867346928777" y2="130.1249999999" stroke="rgb(0,0,0)" stroke-width="0.250000000000001" stroke-linecap="round"/>
				<line x1="30.431122448879606" y1="130.1249999999" x2="32.67602040806328" y2="130.1249999999" stroke="rgb(0,0,0)" stroke-width="0.250000000000001" stroke-linecap="round"/>
				<line x1="33.79846938765512" y1="130.1249999999" x2="36.04336734683879" y2="130.1249999999" stroke="rgb(0,0,0)" stroke-width="0.250000000000001" stroke-linecap="round"/>
				<line x1="37.16581632643063" y1="130.1249999999" x2="39.410714285614304" y2="130.1249999999" stroke="rgb(0,0,0)" stroke-width="0.250000000000001" stroke-linecap="round"/>
				<line x1="40.53316326520614" y1="130.1249999999" x2="42.778061224389816" y2="130.1249999999" stroke="rgb(0,0,0)" stroke-width="0.250000000000001" stroke-linecap="round"/>
				<line x1="43.90051020398165" y1="130.1249999999" x2="46.14540816316533" y2="130.1249999999" stroke="rgb(0,0,0)" stroke-width="0.250000000000001" stroke-linecap="round"/>
				<line x1="47.267857142757165" y1="130.1249999999" x2="49.51275510194084" y2="130.1249999999" stroke="rgb(0,0,0)" stroke-width="0.250000000000001" stroke-linecap="round"/>
				<line x1="50.63520408153268" y1="130.1249999999" x2="52.88010204071635" y2="130.1249999999" stroke="rgb(0,0,0)" stroke-width="0.250000000000001" stroke-linecap="round"/>
				<line x1="54.00255102030819" y1="130.1249999999" x2="56.247448979491864" y2="130.1249999999" stroke="rgb(0,0,0)" stroke-width="0.250000000000001" stroke-linecap="round"/>
				<line x1="57.3698979590837" y1="130.1249999999" x2="59.614795918267376" y2="130.1249999999" stroke="rgb(0,0,0)" stroke-width="0.250000000000001" stroke-linecap="round"/>
				<line x1="60.73724489785921" y1="130.1249999999" x2="62.98214285704289" y2="130.1249999999" stroke="rgb(0,0,0)" stroke-width="0.250000000000001" stroke-linecap="round"/>
				<line x1="64.10459183663473" y1="130.1249999999" x2="66.3494897958184" y2="130.1249999999" stroke="rgb(0,0,0)" stroke-width="0.250000000000001" stroke-linecap="round"/>
				<line x1="67.47193877541024" y1="130.1249999999" x2="69.71683673459391" y2="130.1249999999" stroke="rgb(0,0,0)" stroke-width="0.250000000000001" stroke-linecap="round"/>
				<line x1="70.83928571418575" y1="130.1249999999" x2="73.08418367336942" y2="130.1249999999" stroke="rgb(0,0,0)" stroke-width="0.250000000000001" stroke-linecap="round"/>
				<line x1="74.20663265296126" y1="130.1249999999" x2="76.45153061214494" y2="130.1249999999" stroke="rgb(0,0,0)" stroke-width="0.250000000000001" stroke-linecap="round"/>
				<line x1="77.57397959173677" y1="130.1249999999" x2="79.81887755092045" y2="130.1249999999" stroke="rgb(0,0,0)" stroke-width="0.250000000000001" stroke-linecap="round"/>
				<line x1="80.94132653051228" y1="130.1249999999" x2="83.18622448969596" y2="130.1249999999" stroke="rgb(0,0,0)" stroke-width="0.250000000000001" stroke-linecap="round"/>
				<line x1="84.3086734692878" y1="130.1249999999" x2="86.55357142847147" y2="130.1249999999" stroke="rgb(0,0,0)" stroke-width="0.250000000000001" stroke-linecap="round"/>
				<line x1="87.67602040806331" y1="130.1249999999" x2="89.92091836724698" y2="130.1249999999" stroke="rgb(0,0,0)" stroke-width="0.250000000000001" stroke-linecap="round"/>
				<line x1="91.04336734683882" y1="130.1249999999" x2="93.2882653060225" y2="130.1249999999" stroke="rgb(0,0,0)" stroke-width="0.250000000000001" stroke-linecap="round"/>
				<line x1="94.41071428561433" y1="130.1249999999" x2="96.65561224479801" y2="130.1249999999" stroke="rgb(0,0,0)" stroke-width="0.250000000000001" stroke-linecap="round"/>
				<line x1="97.77806122438984" y1="130.1249999999" x2="100.02295918357352" y2="130.1249999999" stroke="rgb(0,0,0)" stroke-width="0.250000000000001" stroke-linecap="round"/>
				<line x1="101.14540816316536" y1="130.1249999999" x2="103.39030612234903" y2="130.1249999999" stroke="rgb(0,0,0)" stroke-width="0.250000000000001" stroke-linecap="round"/>
				<line x1="104.51275510194087" y1="130.1249999999" x2="106.75765306112454" y2="130.1249999999" stroke="rgb(0,0,0)" stroke-width="0.250000000000001" stroke-linecap="round"/>
				<line x1="107.88010204071638" y1="130.1249999999" x2="110.12499999990006" y2="130.1249999999" stroke="rgb(0,0,0)" stroke-width="0.250000000000001" stroke-linecap="round"/>
				<line x1="111.24744897949189" y1="130.1249999999" x2="113.49234693867557" y2="130.1249999999" stroke="rgb(0,0,0)" stroke-width="0.250000000000001" stroke-linecap="round"/>
				<line x1="114.6147959182674" y1="130.1249999999" x2="116.85969387745108" y2="130.1249999999" stroke="rgb(0,0,0)" stroke-width="0.250000000000001" stroke-linecap="round"/>
				<line x1="117.98214285704292" y1="130.1249999999" x2="120.22704081622659" y2="130.1249999999" stroke="rgb(0,0,0)" stroke-width="0.250000000000001" stroke-linecap="round"/>
				<line x1="121.34948979581843" y1="130.1249999999" x2="123.5943877550021" y2="130.1249999999" stroke="rgb(0,0,0)" stroke-width="0.250000000000001" stroke-linecap="round"/>
				<line x1="124.71683673459394" y1="130.1249999999" x2="126.96173469377761" y2="130.1249999999" stroke="rgb(0,0,0)" stroke-width="0.250000000000001" stroke-linecap="round"/>
				<line x1="128.08418367336944" y1="130.1249999999" x2="130.3290816325531" y2="130.1249999999" stroke="rgb(0,0,0)" stroke-width="0.250000000000001" stroke-linecap="round"/>
				<line x1="131.45153061214495" y1="130.1249999999" x2="133.69642857132862" y2="130.1249999999" stroke="rgb(0,0,0)" stroke-width="0.250000000000001" stroke-linecap="round"/>
				<line x1="134.81887755092046" y1="130.1249999999" x2="137.06377551010414" y2="130.1249999999" stroke="rgb(0,0,0)" stroke-width="0.250000000000001" stroke-linecap="round"/>
				<line x1="138.18622448969597" y1="130.1249999999" x2="140.43112244887965" y2="130.1249999999" stroke="rgb(0,0,0)" stroke-width="0.250000000000001" stroke-linecap="round"/>
				<line x1="141.55357142847149" y1="130.1249999999" x2="143.79846938765516" y2="130.1249999999" stroke="rgb(0,0,0)" stroke-width="0.250000000000001" stroke-linecap="round"/>
				<line x1="144.920918367247" y1="130.1249999999" x2="147.16581632643067" y2="130.1249999999" stroke="rgb(0,0,0)" stroke-width="0.250000000000001" stroke-linecap="round"/>
				<line x1="148.2882653060225" y1="130.1249999999" x2="150.53316326520618" y2="130.1249999999" stroke="rgb(0,0,0)" stroke-width="0.250000000000001" stroke-linecap="round"/>
				<line x1="151.65561224479802" y1="130.1249999999" x2="153.9005102039817" y2="130.1249999999" stroke="rgb(0,0,0)" stroke-width="0.250000000000001" stroke-linecap="round"/>
				<line x1="155.02295918357353" y1="130.1249999999" x2="157.2678571427572" y2="130.1249999999" stroke="rgb(0,0,0)" stroke-width="0.250000000000001" stroke-linecap="round"/>
				<line x1="158.39030612234905" y1="130.1249999999" x2="160.63520408153272" y2="130.1249999999" stroke="rgb(0,0,0)" stroke-width="0.250000000000001" stroke-linecap="round"/>
				<line x1="161.75765306112456" y1="130.1249999999" x2="164.00255102030823" y2="130.1249999999" stroke="rgb(0,0,0)" stroke-width="0.250000000000001" stroke-linecap="round"/>
				<line x1="165.12499999990007" y1="130.1249999999" x2="167.36989795908374" y2="130.1249999999" stroke="rgb(0,0,0)" stroke-width="0.250000000000001" stroke-linecap="round"/>
				<line x1="168.49234693867558" y1="130.1249999999" x2="170.73724489785926" y2="130.1249999999" stroke="rgb(0,0,0)" stroke-width="0.250000000000001" stroke-linecap="round"/>
				<line x1="171.8596938774511" y1="130.1249999999" x2="174.10459183663477" y2="130.1249999999" stroke="rgb(0,0,0)" stroke-width="0.250000000000001" stroke-linecap="round"/>
				<line x1="175.2270408162266" y1="130.1249999999" x2="177.47193877541028" y2="130.1249999999" stroke="rgb(0,0,0)" stroke-width="0.250000000000001" stroke-linecap="round"/>
				<line x1="178.59438775500212" y1="130.1249999999" x2="180.8392857141858" y2="130.1249999999" stroke="rgb(0,0,0)" stroke-width="0.250000000000001" stroke-linecap="round"/>
				<line x1="181.96173469377763" y1="130.1249999999" x2="184.2066326529613" y2="130.1249999999" stroke="rgb(0,0,0)" stroke-width="0.250000000000001" stroke-linecap="round"/>
				<line x1="185.32908163255314" y1="130.1249999999" x2="187.57397959173682" y2="130.1249999999" stroke="rgb(0,0,0)" stroke-width="0.250000000000001" stroke-linecap="round"/>
				<line x1="188.69642857132865" y1="130.1249999999" x2="190.94132653051233" y2="130.1249999999" stroke="rgb(0,0,0)" stroke-width="0.250000000000001" stroke-linecap="round"/>
				<line x1="192.06377551010416" y1="130.1249999999" x2="194.30867346928784" y2="130.1249999999" stroke="rgb(0,0,0)" stroke-width="0.250000000000001" stroke-linecap="round"/>
				<line x1="195.43112244887968" y1="130.1249999999" x2="197.67602040806335" y2="130.1249999999" stroke="rgb(0,0,0)" stroke-width="0.250000000000001" stroke-linecap="round"/>
				<line x1="198.7984693876552" y1="130.1249999999" x2="200.12499999989998" y2="130.1249999999" stroke="rgb(0,0,0)" stroke-width="0.250000000000001" stroke-linecap="round"/>
				<line x1="200.1249999999" y1="130.1249999999" x2="200.1249999999" y2="129.20663265296122" stroke="rgb(0,0,0)" stroke-width="0.250000000000001" stroke-linecap="round"/>
				<line x1="200.1249999999" y1="128.08418367336938" x2="200.1249999999" y2="125.8392857141857" stroke="rgb(0,0,0)" stroke-width="0.250000000000001" stroke-linecap="round"/>
				<line x1="200.1249999999" y1="124.71683673459387" x2="200.1249999999" y2="122.4719387754102" stroke="rgb(0,0,0)" stroke-width="0.250000000000001" stroke-linecap="round"/>
				<line x1="200.1249999999" y1="121.34948979581836" x2="200.1249999999" y2="119.10459183663468" stroke="rgb(0,0,0)" stroke-width="0.250000000000001" stroke-linecap="round"/>
				<line x1="200.1249999999" y1="117.98214285704285" x2="200.1249999999" y2="115.73724489785917" stroke="rgb(0,0,0)" stroke-width="0.250000000000001" stroke-linecap="round"/>
				<line x1="200.1249999999" y1="114.61479591826733" x2="200.1249999999" y2="112.36989795908366" stroke="rgb(0,0,0)" stroke-width="0.250000000000001" stroke-linecap="round"/>
				<line x1="200.1249999999" y1="111.24744897949182" x2="200.1249999999" y2="109.00255102030815" stroke="rgb(0,0,0)" stroke-width="0.250000000000001" stroke-linecap="round"/>
				<line x1="200.1249999999" y1="107.88010204071631" x2="200.1249999999" y2="105.63520408153263" stroke="rgb(0,0,0)" stroke-width="0.250000000000001" stroke-linecap="round"/>
				<line x1="200.1249999999" y1="104.5127551019408" x2="200.1249999999" y2="102.26785714275712" stroke="rgb(0,0,0)" stroke-width="0.250000000000001" stroke-linecap="round"/>
				<line x1="200.1249999999" y1="101.14540816316529" x2="200.1249999999" y2="98.90051020398161" stroke="rgb(0,0,0)" stroke-width="0.250000000000001" stroke-linecap="round"/>
				<line x1="200.1249999999" y1="97.77806122438977" x2="200.1249999999" y2="95.5331632652061" stroke="rgb(0,0,0)" stroke-width="0.250000000000001" stroke-linecap="round"/>
				<line x1="200.1249999999" y1="94.41071428561426" x2="200.1249999999" y2="92.16581632643059" stroke="rgb(0,0,0)" stroke-width="0.250000000000001" stroke-linecap="round"/>
				<line x1="200.1249999999" y1="91.04336734683875" x2="200.1249999999" y2="88.79846938765508" stroke="rgb(0,0,0)" stroke-width="0.250000000000001" stroke-linecap="round"/>
				<line x1="200.1249999999" y1="87.67602040806324" x2="200.1249999999" y2="85.43112244887956" stroke="rgb(0,0,0)" stroke-width="0.250000000000001" stroke-linecap="round"/>
				<line x1="200.1249999999" y1="84.30867346928773" x2="200.1249999999" y2="82.06377551010405" stroke="rgb(0,0,0)" stroke-width="0.250000000000001" stroke-linecap="round"/>
				<line x1="200.1249999999" y1="80.94132653051221" x2="200.1249999999" y2="78.69642857132854" stroke="rgb(0,0,0)" stroke-width="0.250000000000001" stroke-linecap="round"/>
				<line x1="200.1249999999" y1="77.5739795917367" x2="200.1249999999" y2="75.32908163255303" stroke="rgb(0,0,0)" stroke-width="0.250000000000001" stroke-linecap="round"/>
				<line x1="200.1249999999" y1="74.20663265296119" x2="200.1249999999" y2="71.96173469377752" stroke="rgb(0,0,0)" stroke-width="0.250000000000001" stroke-linecap="round"/>
				<line x1="200.1249999999" y1="70.83928571418568" x2="200.1249999999" y2="68.594387755002" stroke="rgb(0,0,0)" stroke-width="0.250000000000001" stroke-linecap="round"/>
				<line x1="200.1249999999" y1="67.47193877541017" x2="200.1249999999" y2="65.22704081622649" stroke="rgb(0,0,0)" stroke-width="0.250000000000001" stroke-linecap="round"/>
				<line x1="200.1249999999" y1="64.10459183663465" x2="200.1249999999" y2="61.85969387745098" stroke="rgb(0,0,0)" stroke-width="0.250000000000001" stroke-linecap="round"/>
				<line x1="200.1249999999" y1="60.73724489785914" x2="200.1249999999" y2="58.49234693867547" stroke="rgb(0,0,0)" stroke-width="0.250000000000001" stroke-linecap="round"/>
				<line x1="200.1249999999" y1="57.36989795908363" x2="200.1249999999" y2="55.124999999899956" stroke="rgb(0,0,0)" stroke-width="0.250000000000001" stroke-linecap="round"/>
				<line x1="200.1249999999" y1="54.00255102030812" x2="200.1249999999" y2="51.757653061124444" stroke="rgb(0,0,0)" stroke-width="0.250000000000001" stroke-linecap="round"/>
				<line x1="200.1249999999" y1="50.635204081532606" x2="200.1249999999" y2="48.39030612234893" stroke="rgb(0,0,0)" stroke-width="0.250000000000001" stroke-linecap="round"/>
				<line x1="200.1249999999" y1="47.267857142757094" x2="200.1249999999" y2="45.02295918357342" stroke="rgb(0,0,0)" stroke-width="0.250000000000001" stroke-linecap="round"/>
				<line x1="200.1249999999" y1="43.90051020398158" x2="200.1249999999" y2="41.65561224479791" stroke="rgb(0,0,0)" stroke-width="0.250000000000001" stroke-linecap="round"/>
				<line x1="200.1249999999" y1="40.53316326520607" x2="200.1249999999" y2="38.288265306022396" stroke="rgb(0,0,0)" stroke-width="0.250000000000001" stroke-linecap="round"/>
				<line x1="200.1249999999" y1="37.16581632643056" x2="200.1249999999" y2="34.920918367246884" stroke="rgb(0,0,0)" stroke-width="0.250000000000001" stroke-linecap="round"/>
				<line x1="200.1249999999" y1="33.79846938765505" x2="200.1249999999" y2="31.553571428471372" stroke="rgb(0,0,0)" stroke-width="0.250000000000001" stroke-linecap="round"/>
				<line x1="200.1249999999" y1="30.431122448879535" x2="200.1249999999" y2="28.18622448969586" stroke="rgb(0,0,0)" stroke-width="0.250000000000001" stroke-linecap="round"/>
				<line x1="200.1249999999" y1="27.063775510104023" x2="200.1249999999" y2="24.818877550920348" stroke="rgb(0,0,0)" stroke-width="0.250000000000001" stroke-linecap="round"/>
				<line x1="200.1249999999" y1="23.69642857132851" x2="200.1249999999" y2="21.451530612144836" stroke="rgb(0,0,0)" stroke-width="0.250000000000001" stroke-linecap="round"/>
				<line x1="200.1249999999" y1="20.329081632553" x2="200.1249999999" y2="18.084183673369324" stroke="rgb(0,0,0)" stroke-width="0.250000000000001" stroke-linecap="round"/>
				<line x1="200.1249999999" y1="16.961734693777487" x2="200.1249999999" y2="14.716836734593812" stroke="rgb(0,0,0)" stroke-width="0.250000000000001" stroke-linecap="round"/>
				<line x1="200.1249999999" y1="13.594387755001975" x2="200.1249999999" y2="11.3494897958183" stroke="rgb(0,0,0)" stroke-width="0.250000000000001" stroke-linecap="round"/>
				<line x1="200.1249999999" y1="10.227040816226463" x2="200.1249999999" y2="7.982142857042789" stroke="rgb(0,0,0)" stroke-width="0.250000000000001" stroke-linecap="round"/>
				<line x1="200.1249999999" y1="6.859693877450953" x2="200.1249999999" y2="4.614795918267279" stroke="rgb(0,0,0)" stroke-width="0.250000000000001" stroke-linecap="round"/>
				<line x1="200.1249999999" y1="3.492346938675442" x2="200.1249999999" y2="1.2474489794917685" stroke="rgb(0,0,0)" stroke-width="0.250000000000001" stroke-linecap="round"/>
				<line x1="200.1249999999" y1="0.12499999989999822" x2="197.88010204071634" y2="0.12499999989999822" stroke="rgb(0,0,0)" stroke-width="0.250000000000001" stroke-linecap="round"/>
				<line x1="196.7576530611245" y1="0.12499999989999822" x2="194.51275510194083" y2="0.12499999989999822" stroke="rgb(0,0,0)" stroke-width="0.250000000000001" stroke-linecap="round"/>
				<line x1="193.390306122349" y1="0.12499999989999822" x2="191.1454081631653" y2="0.12499999989999822" stroke="rgb(0,0,0)" stroke-width="0.250000000000001" stroke-linecap="round"/>
				<line x1="190.02295918357348" y1="0.12499999989999822" x2="187.7780612243898" y2="0.12499999989999822" stroke="rgb(0,0,0)" stroke-width="0.250000000000001" stroke-linecap="round"/>
				<line x1="186.65561224479796" y1="0.12499999989999822" x2="184.4107142856143" y2="0.12499999989999822" stroke="rgb(0,0,0)" stroke-width="0.250000000000001" stroke-linecap="round"/>
				<line x1="183.28826530602245" y1="0.12499999989999822" x2="181.04336734683878" y2="0.12499999989999822" stroke="rgb(0,0,0)" stroke-width="0.250000000000001" stroke-linecap="round"/>
				<line x1="179.92091836724694" y1="0.12499999989999822" x2="177.67602040806327" y2="0.12499999989999822" stroke="rgb(0,0,0)" stroke-width="0.250000000000001" stroke-linecap="round"/>
				<line x1="176.55357142847143" y1="0.12499999989999822" x2="174.30867346928775" y2="0.12499999989999822" stroke="rgb(0,0,0)" stroke-width="0.250000000000001" stroke-linecap="round"/>
				<line x1="173.18622448969592" y1="0.12499999989999822" x2="170.94132653051224" y2="0.12499999989999822" stroke="rgb(0,0,0)" stroke-width="0.250000000000001" stroke-linecap="round"/>
				<line x1="169.8188775509204" y1="0.12499999989999822" x2="167.57397959173673" y2="0.12499999989999822" stroke="rgb(0,0,0)" stroke-width="0.250000000000001" stroke-linecap="round"/>
				<line x1="166.4515306121449" y1="0.12499999989999822" x2="164.20663265296122" y2="0.12499999989999822" stroke="rgb(0,0,0)" stroke-width="0.250000000000001" stroke-linecap="round"/>
				<line x1="163.08418367336938" y1="0.12499999989999822" x2="160.8392857141857" y2="0.12499999989999822" stroke="rgb(0,0,0)" stroke-width="0.250000000000001" stroke-linecap="round"/>
				<line x1="159.71683673459387" y1="0.12499999989999822" x2="157.4719387754102" y2="0.12499999989999822" stroke="rgb(0,0,0)" stroke-width="0.250000000000001" stroke-linecap="round"/>
				<line x1="156.34948979581836" y1="0.12499999989999822" x2="154.10459183663468" y2="0.12499999989999822" stroke="rgb(0,0,0)" stroke-width="0.250000000000001" stroke-linecap="round"/>
				<line x1="152.98214285704285" y1="0.12499999989999822" x2="150.73724489785917" y2="0.12499999989999822" stroke="rgb(0,0,0)" stroke-width="0.250000000000001" stroke-linecap="round"/>
				<line x1="149.61479591826733" y1="0.12499999989999822" x2="147.36989795908366" y2="0.12499999989999822" stroke="rgb(0,0,0)" stroke-width="0.250000000000001" stroke-linecap="round"/>
				<line x1="146.24744897949182" y1="0.12499999989999822" x2="144.00255102030815" y2="0.12499999989999822" stroke="rgb(0,0,0)" stroke-width="0.250000000000001" stroke-linecap="round"/>
				<line x1="142.8801020407163" y1="0.12499999989999822" x2="140.63520408153263" y2="0.12499999989999822" stroke="rgb(0,0,0)" stroke-width="0.250000000000001" stroke-linecap="round"/>
				<line x1="139.5127551019408" y1="0.12499999989999822" x2="137.26785714275712" y2="0.12499999989999822" stroke="rgb(0,0,0)" stroke-width="0.250000000000001" stroke-linecap="round"/>
				<line x1="136.14540816316529" y1="0.12499999989999822" x2="133.9005102039816" y2="0.12499999989999822" stroke="rgb(0,0,0)" stroke-width="0.250000000000001" stroke-linecap="round"/>
				<line x1="132.77806122438977" y1="0.12499999989999822" x2="130.5331632652061" y2="0.12499999989999822" stroke="rgb(0,0,0)" stroke-width="0.250000000000001" stroke-linecap="round"/>
				<line x1="129.41071428561426" y1="0.12499999989999822" x2="127.16581632643059" y2="0.12499999989999822" stroke="rgb(0,0,0)" stroke-width="0.250000000000001" stroke-linecap="round"/>
				<line x1="126.04336734683875" y1="0.12499999989999822" x2="123.79846938765508" y2="0.12499999989999822" stroke="rgb(0,0,0)" stroke-width="0.250000000000001" stroke-linecap="round"/>
				<line x1="122.67602040806324" y1="0.12499999989999822" x2="120.43112244887956" y2="0.12499999989999822" stroke="rgb(0,0,0)" stroke-width="0.250000000000001" stroke-linecap="round"/>
				<line x1="119.30867346928773" y1="0.12499999989999822" x2="117.06377551010405" y2="0.12499999989999822" stroke="rgb(0,0,0)" stroke-width="0.250000000000001" stroke-linecap="round"/>
				<line x1="115.94132653051221" y1="0.12499999989999822" x2="113.69642857132854" y2="0.12499999989999822" stroke="rgb(0,0,0)" stroke-width="0.250000000000001" stroke-linecap="round"/>
				<line x1="112.5739795917367" y1="0.12499999989999822" x2="110.32908163255303" y2="0.12499999989999822" stroke="rgb(0,0,0)" stroke-width="0.250000000000001" stroke-linecap="round"/>
				<line x1="109.20663265296119" y1="0.12499999989999822" x2="106.96173469377752" y2="0.12499999989999822" stroke="rgb(0,0,0)" stroke-width="0.250000000000001" stroke-linecap="round"/>
				<line x1="105.83928571418568" y1="0.12499999989999822" x2="103.594387755002" y2="0.12499999989999822" stroke="rgb(0,0,0)" stroke-width="0.250000000000001" stroke-linecap="round"/>
				<line x1="102.47193877541017" y1="0.12499999989999822" x2="100.22704081622649" y2="0.12499999989999822" stroke="rgb(0,0,0)" stroke-width="0.250000000000001" stroke-linecap="round"/>
				<line x1="99.10459183663465" y1="0.12499999989999822" x2="96.85969387745098" y2="0.12499999989999822" stroke="rgb(0,0,0)" stroke-width="0.250000000000001" stroke-linecap="round"/>
				<line x1="95.73724489785914" y1="0.12499999989999822" x2="93.49234693867547" y2="0.12499999989999822" stroke="rgb(0,0,0)" stroke-width="0.250000000000001" stroke-linecap="round"/>
				<line x1="92.36989795908363" y1="0.12499999989999822" x2="90.12499999989996" y2="0.12499999989999822" stroke="rgb(0,0,0)" stroke-width="0.250000000000001" stroke-linecap="round"/>
				<line x1="89.00255102030812" y1="0.12499999989999822" x2="86.75765306112444" y2="0.12499999989999822" stroke="rgb(0,0,0)" stroke-width="0.250000000000001" stroke-linecap="round"/>
				<line x1="85.6352040815326" y1="0.12499999989999822" x2="83.39030612234893" y2="0.12499999989999822" stroke="rgb(0,0,0)" stroke-width="0.250000000000001" stroke-linecap="round"/>
				<line x1="82.2678571427571" y1="0.12499999989999822" x2="80.02295918357342" y2="0.12499999989999822" stroke="rgb(0,0,0)" stroke-width="0.250000000000001" stroke-linecap="round"/>
				<line x1="78.90051020398158" y1="0.12499999989999822" x2="76.65561224479791" y2="0.12499999989999822" stroke="rgb(0,0,0)" stroke-width="0.250000000000001" stroke-linecap="round"/>
				<line x1="75.53316326520607" y1="0.12499999989999822" x2="73.2882653060224" y2="0.12499999989999822" stroke="rgb(0,0,0)" stroke-width="0.250000000000001" stroke-linecap="round"/>
				<line x1="72.16581632643056" y1="0.12499999989999822" x2="69.92091836724688" y2="0.12499999989999822" stroke="rgb(0,0,0)" stroke-width="0.250000000000001" stroke-linecap="round"/>
				<line x1="68.79846938765505" y1="0.12499999989999822" x2="66.55357142847137" y2="0.12499999989999822" stroke="rgb(0,0,0)" stroke-width="0.250000000000001" stroke-linecap="round"/>
				<line x1="65.43112244887953" y1="0.12499999989999822" x2="63.18622448969586" y2="0.12499999989999822" stroke="rgb(0,0,0)" stroke-width="0.250000000000001" stroke-linecap="round"/>
				<line x1="62.06377551010402" y1="0.12499999989999822" x2="59.81887755092035" y2="0.12499999989999822" stroke="rgb(0,0,0)" stroke-width="0.250000000000001" stroke-linecap="round"/>
				<line x1="58.69642857132851" y1="0.12499999989999822" x2="56.451530612144836" y2="0.12499999989999822" stroke="rgb(0,0,0)" stroke-width="0.250000000000001" stroke-linecap="round"/>
				<line x1="55.329081632553" y1="0.12499999989999822" x2="53.084183673369324" y2="0.12499999989999822" stroke="rgb(0,0,0)" stroke-width="0.250000000000001" stroke-linecap="round"/>
				<line x1="51.96173469377749" y1="0.12499999989999822" x2="49.71683673459381" y2="0.12499999989999822" stroke="rgb(0,0,0)" stroke-width="0.250000000000001" stroke-linecap="round"/>
				<line x1="48.594387755001975" y1="0.12499999989999822" x2="46.3494897958183" y2="0.12499999989999822" stroke="rgb(0,0,0)" stroke-width="0.250000000000001" stroke-linecap="round"/>
				<line x1="45.22704081622646" y1="0.12499999989999822" x2="42.98214285704279" y2="0.12499999989999822" stroke="rgb(0,0,0)" stroke-width="0.250000000000001" stroke-linecap="round"/>
				<line x1="41.85969387745095" y1="0.12499999989999822" x2="39.614795918267276" y2="0.12499999989999822" stroke="rgb(0,0,0)" stroke-width="0.250000000000001" stroke-linecap="round"/>
				<line x1="38.49234693867544" y1="0.12499999989999822" x2="36.247448979491764" y2="0.12499999989999822" stroke="rgb(0,0,0)" stroke-width="0.250000000000001" stroke-linecap="round"/>
				<line x1="35.12499999989993" y1="0.12499999989999822" x2="32.88010204071625" y2="0.12499999989999822" stroke="rgb(0,0,0)" stroke-width="0.250000000000001" stroke-linecap="round"/>
				<line x1="31.757653061124415" y1="0.12499999989999822" x2="29.51275510194074" y2="0.12499999989999822" stroke="rgb(0,0,0)" stroke-width="0.250000000000001" stroke-linecap="round"/>
				<line x1="28.390306122348903" y1="0.12499999989999822" x2="26.14540816316523" y2="0.12499999989999822" stroke="rgb(0,0,0)" stroke-width="0.250000000000001" stroke-linecap="round"/>
				<line x1="25.02295918357339" y1="0.12499999989999822" x2="22.778061224389717" y2="0.12499999989999822" stroke="rgb(0,0,0)" stroke-width="0.250000000000001" stroke-linecap="round"/>
				<line x1="21.65561224479788" y1="0.12499999989999822" x2="19.410714285614205" y2="0.12499999989999822" stroke="rgb(0,0,0)" stroke-width="0.250000000000001" stroke-linecap="round"/>
				<line x1="18.288265306022367" y1="0.12499999989999822" x2="16.043367346838693" y2="0.12499999989999822" stroke="rgb(0,0,0)" stroke-width="0.250000000000001" stroke-linecap="round"/>
				<line x1="14.920918367246855" y1="0.12499999989999822" x2="12.67602040806318" y2="0.12499999989999822" stroke="rgb(0,0,0)" stroke-width="0.250000000000001" stroke-linecap="round"/>
				<line x1="11.553571428471344" y1="0.12499999989999822" x2="9.308673469287669" y2="0.12499999989999822" stroke="rgb(0,0,0)" stroke-width="0.250000000000001" stroke-linecap="round"/>
				<line x1="8.186224489695832" y1="0.12499999989999822" x2="5.941326530512158" y2="0.12499999989999822" stroke="rgb(0,0,0)" stroke-width="0.250000000000001" stroke-linecap="round"/>
				<line x1="4.818877550920321" y1="0.12499999989999822" x2="2.5739795917366477" y2="0.12499999989999822" stroke="rgb(0,0,0)" stroke-width="0.250000000000001" stroke-linecap="round"/>
				<line x1="1.4515306121448108" y1="0.12499999989999822" x2="0.12499999990001243" y2="0.12499999989999822" stroke="rgb(0,0,0)" stroke-width="0.250000000000001" stroke-linecap="round"/>
				<line x1="0.1249999999" y1="0.12499999990000488" x2="0.1249999999" y2="1.043367346838798" stroke="rgb(0,0,0)" stroke-width="0.250000000000001" stroke-linecap="round"/>
				<line x1="0.1249999999" y1="2.165816326430635" x2="0.1249999999" y2="4.410714285614309" stroke="rgb(0,0,0)" stroke-width="0.250000000000001" stroke-linecap="round"/>
				<line x1="0.1249999999" y1="5.533163265206145" x2="0.1249999999" y2="7.778061224389819" stroke="rgb(0,0,0)" stroke-width="0.250000000000001" stroke-linecap="round"/>
				<line x1="0.1249999999" y1="8.900510203981655" x2="0.1249999999" y2="11.145408163165328" stroke="rgb(0,0,0)" stroke-width="0.250000000000001" stroke-linecap="round"/>
				<line x1="0.1249999999" y1="12.267857142757165" x2="0.1249999999" y2="14.51275510194084" stroke="rgb(0,0,0)" stroke-width="0.250000000000001" stroke-linecap="round"/>
				<line x1="0.1249999999" y1="15.635204081532677" x2="0.1249999999" y2="17.880102040716352" stroke="rgb(0,0,0)" stroke-width="0.250000000000001" stroke-linecap="round"/>
				<line x1="0.1249999999" y1="19.00255102030819" x2="0.1249999999" y2="21.247448979491864" stroke="rgb(0,0,0)" stroke-width="0.250000000000001" stroke-linecap="round"/>
				<line x1="0.1249999999" y1="22.3698979590837" x2="0.1249999999" y2="24.614795918267376" stroke="rgb(0,0,0)" stroke-width="0.250000000000001" stroke-linecap="round"/>
				<line x1="0.1249999999" y1="25.737244897859213" x2="0.1249999999" y2="27.982142857042888" stroke="rgb(0,0,0)" stroke-width="0.250000000000001" stroke-linecap="round"/>
				<line x1="0.1249999999" y1="29.104591836634725" x2="0.1249999999" y2="31.3494897958184" stroke="rgb(0,0,0)" stroke-width="0.250000000000001" stroke-linecap="round"/>
				<line x1="0.1249999999" y1="32.47193877541024" x2="0.1249999999" y2="34.71683673459391" stroke="rgb(0,0,0)" stroke-width="0.250000000000001" stroke-linecap="round"/>
				<line x1="0.1249999999" y1="35.83928571418575" x2="0.1249999999" y2="38.084183673369424" stroke="rgb(0,0,0)" stroke-width="0.250000000000001" stroke-linecap="round"/>
				<line x1="0.1249999999" y1="39.20663265296126" x2="0.1249999999" y2="41.451530612144936" stroke="rgb(0,0,0)" stroke-width="0.250000000000001" stroke-linecap="round"/>
				<line x1="0.1249999999" y1="42.57397959173677" x2="0.1249999999" y2="44.81887755092045" stroke="rgb(0,0,0)" stroke-width="0.250000000000001" stroke-linecap="round"/>
				<line x1="0.1249999999" y1="45.941326530512285" x2="0.1249999999" y2="48.18622448969596" stroke="rgb(0,0,0)" stroke-width="0.250000000000001" stroke-linecap="round"/>
				<line x1="0.1249999999" y1="49.3086734692878" x2="0.1249999999" y2="51.55357142847147" stroke="rgb(0,0,0)" stroke-width="0.250000000000001" stroke-linecap="round"/>
				<line x1="0.1249999999" y1="52.67602040806331" x2="0.1249999999" y2="54.92091836724698" stroke="rgb(0,0,0)" stroke-width="0.250000000000001" stroke-linecap="round"/>
				<line x1="0.1249999999" y1="56.04336734683882" x2="0.1249999999" y2="58.288265306022495" stroke="rgb(0,0,0)" stroke-width="0.250000000000001" stroke-linecap="round"/>
				<line x1="0.1249999999" y1="59.41071428561433" x2="0.1249999999" y2="61.65561224479801" stroke="rgb(0,0,0)" stroke-width="0.250000000000001" stroke-linecap="round"/>
				<line x1="0.1249999999" y1="62.778061224389845" x2="0.1249999999" y2="65.02295918357352" stroke="rgb(0,0,0)" stroke-width="0.250000000000001" stroke-linecap="round"/>
				<line x1="0.1249999999" y1="66.14540816316536" x2="0.1249999999" y2="68.39030612234903" stroke="rgb(0,0,0)" stroke-width="0.250000000000001" stroke-linecap="round"/>
				<line x1="0.1249999999" y1="69.51275510194087" x2="0.1249999999" y2="71.75765306112454" stroke="rgb(0,0,0)" stroke-width="0.250000000000001" stroke-linecap="round"/>
				<line x1="0.1249999999" y1="72.88010204071638" x2="0.1249999999" y2="75.12499999990006" stroke="rgb(0,0,0)" stroke-width="0.250000000000001" stroke-linecap="round"/>
				<line x1="0.1249999999" y1="76.24744897949189" x2="0.1249999999" y2="78.49234693867557" stroke="rgb(0,0,0)" stroke-width="0.250000000000001" stroke-linecap="round"/>
				<line x1="0.1249999999" y1="79.6147959182674" x2="0.1249999999" y2="81.85969387745108" stroke="rgb(0,0,0)" stroke-width="0.250000000000001" stroke-linecap="round"/>
				<line x1="0.1249999999" y1="82.98214285704292" x2="0.1249999999" y2="85.22704081622659" stroke="rgb(0,0,0)" stroke-width="0.250000000000001" stroke-linecap="round"/>
				<line x1="0.1249999999" y1="86.34948979581843" x2="0.1249999999" y2="88.5943877550021" stroke="rgb(0,0,0)" stroke-width="0.250000000000001" stroke-linecap="round"/>
				<line x1="0.1249999999" y1="89.71683673459394" x2="0.1249999999" y2="91.96173469377761" stroke="rgb(0,0,0)" stroke-width="0.250000000000001" stroke-linecap="round"/>
				<line x1="0.1249999999" y1="93.08418367336945" x2="0.1249999999" y2="95.32908163255313" stroke="rgb(0,0,0)" stroke-width="0.250000000000001" stroke-linecap="round"/>
				<line x1="0.1249999999" y1="96.45153061214496" x2="0.1249999999" y2="98.69642857132864" stroke="rgb(0,0,0)" stroke-width="0.250000000000001" stroke-linecap="round"/>
				<line x1="0.1249999999" y1="99.81887755092048" x2="0.1249999999" y2="102.06377551010415" stroke="rgb(0,0,0)" stroke-width="0.250000000000001" stroke-linecap="round"/>
				<line x1="0.1249999999" y1="103.18622448969599" x2="0.1249999999" y2="105.43112244887966" stroke="rgb(0,0,0)" stroke-width="0.250000000000001" stroke-linecap="round"/>
				<line x1="0.1249999999" y1="106.5535714284715" x2="0.1249999999" y2="108.79846938765517" stroke="rgb(0,0,0)" stroke-width="0.250000000000001" stroke-linecap="round"/>
				<line x1="0.1249999999" y1="109.92091836724701" x2="0.1249999999" y2="112.16581632643069" stroke="rgb(0,0,0)" stroke-width="0.250000000000001" stroke-linecap="round"/>
				<line x1="0.1249999999" y1="113.28826530602252" x2="0.1249999999" y2="115.5331632652062" stroke="rgb(0,0,0)" stroke-width="0.250000000000001" stroke-linecap="round"/>
				<line x1="0.1249999999" y1="116.65561224479804" x2="0.1249999999" y2="118.90051020398171" stroke="rgb(0,0,0)" stroke-width="0.250000000000001" stroke-linecap="round"/>
				<line x1="0.1249999999" y1="120.02295918357355" x2="0.1249999999" y2="122.26785714275722" stroke="rgb(0,0,0)" stroke-width="0.250000000000001" stroke-linecap="round"/>
				<line x1="0.1249999999" y1="123.39030612234906" x2="0.1249999999" y2="125.63520408153273" stroke="rgb(0,0,0)" stroke-width="0.250000000000001" stroke-linecap="round"/>
				<line x1="0.1249999999" y1="126.75765306112457" x2="0.1249999999" y2="129.00255102030823" stroke="rgb(0,0,0)" stroke-width="0.250000000000001" stroke-linecap="round"/>
				<g>
					<desc>null, supplement, null</desc>
					<text x="1.6249999999" y="6.774999999899999" textLength="73.47999999999999" lengthAdjust="spacingAndGlyphs" text-anchor="start" font-family="Arial" font-size="4.913333333333334">Double-Button Observer Software</text>
				</g>
			</g>
		</g>
		<g>
			<desc>, bpmn.bpd.relation, 45a27daf0000c3a80141cf1a953964c9</desc>
			<g>
				<desc>null, figure.lineshape, null</desc>
				<line x1="17.7187499999" y1="62.6249999999" x2="23.803124999900003" y2="62.6249999999" stroke="rgb(0,0,0)" stroke-width="0.250000000000001" stroke-linecap="round"/>
				<path d="M 25.007555667243114,62.4597656249 A 0.1907962217712546 0.19079622177125463 0 0 1 25.007555667243114,62.790234374899995 L 23.718436093538408,63.53450790779603 A 0.20027571490777496 0.2002757149077676 0 0 1 23.44381026286407,63.262756832556896 L 23.44381026286407,63.26275683255689 A 1.299265788597943 1.299265788597943 0 0 0 23.44381026286407,61.98724316724311 L 23.44381026286407,61.9872431672431 A 0.20027571490777496 0.2002757149077676 0 0 1 23.718436093538408,61.71549209200396 z"/>
			</g>
		</g>
		<g>
			<desc>Logical Operator XOR, bpmn.bpd.gateway, 45a2ff6b0000c3a801419b50938651e2</desc>
			<g>
				<desc>null, figure.plane, null</desc>
				<path d=" M 82.6249999999,57.6249999999 L 87.6249999999,62.6249999999 L 82.6249999999,67.6249999999 L 77.6249999999,62.6249999999 z" fill="rgb(255,255,255)"/>
				<line x1="82.6249999999" y1="57.6249999999" x2="87.6249999999" y2="62.6249999999" stroke="rgb(0,0,0)" stroke-width="0.500000000000002" stroke-linecap="round"/>
				<line x1="87.6249999999" y1="62.6249999999" x2="82.6249999999" y2="67.6249999999" stroke="rgb(0,0,0)" stroke-width="0.500000000000002" stroke-linecap="round"/>
				<line x1="82.6249999999" y1="67.6249999999" x2="77.6249999999" y2="62.6249999999" stroke="rgb(0,0,0)" stroke-width="0.500000000000002" stroke-linecap="round"/>
				<line x1="77.6249999999" y1="62.6249999999" x2="82.6249999999" y2="57.6249999999" stroke="rgb(0,0,0)" stroke-width="0.500000000000002" stroke-linecap="round"/>
			</g>
			<g>
				<desc>null, figure.plane, null</desc>
				<g>
					<desc>null, supplement, null</desc>
					<path d=" M 81.47115384605385,59.8749999999 L 83.31730769220769,65.3749999999 L 83.77884615374614,65.3749999999 L 81.9326923075923,59.8749999999 z"/>
					<line x1="81.47115384605385" y1="59.8749999999" x2="83.31730769220769" y2="65.3749999999" stroke="rgb(0,0,0)" stroke-width="0.250000000000001" stroke-linecap="round"/>
					<line x1="83.31730769220769" y1="65.3749999999" x2="83.77884615374614" y2="65.3749999999" stroke="rgb(0,0,0)" stroke-width="0.250000000000001" stroke-linecap="round"/>
					<line x1="83.77884615374614" y1="65.3749999999" x2="81.9326923075923" y2="59.8749999999" stroke="rgb(0,0,0)" stroke-width="0.250000000000001" stroke-linecap="round"/>
					<line x1="81.9326923075923" y1="59.8749999999" x2="81.47115384605385" y2="59.8749999999" stroke="rgb(0,0,0)" stroke-width="0.250000000000001" stroke-linecap="round"/>
					<path d=" M 83.31730769220769,59.8749999999 L 81.47115384605385,65.3749999999 L 81.9326923075923,65.3749999999 L 83.77884615374614,59.8749999999 z"/>
					<line x1="83.31730769220769" y1="59.8749999999" x2="81.47115384605385" y2="65.3749999999" stroke="rgb(0,0,0)" stroke-width="0.250000000000001" stroke-linecap="round"/>
					<line x1="81.47115384605385" y1="65.3749999999" x2="81.9326923075923" y2="65.3749999999" stroke="rgb(0,0,0)" stroke-width="0.250000000000001" stroke-linecap="round"/>
					<line x1="81.9326923075923" y1="65.3749999999" x2="83.77884615374614" y2="59.8749999999" stroke="rgb(0,0,0)" stroke-width="0.250000000000001" stroke-linecap="round"/>
					<line x1="83.77884615374614" y1="59.8749999999" x2="83.31730769220769" y2="59.8749999999" stroke="rgb(0,0,0)" stroke-width="0.250000000000001" stroke-linecap="round"/>
				</g>
				<g>
					<desc>null, supplement, null</desc>
					<text x="82.6249999999" y="72.72499999989999" textLength="12.54" lengthAdjust="spacingAndGlyphs" text-anchor="middle" font-family="Arial" font-size="4.0200000000000005">Kind of</text>
					<text x="82.6249999999" y="77.22499999989999" textLength="17.46" lengthAdjust="spacingAndGlyphs" text-anchor="middle" font-family="Arial" font-size="4.0200000000000005">Activation</text>
				</g>
			</g>
		</g>
		<g>
			<desc>, bpmn.bpd.relation, 45a327170000c3a8014115305cd326e2</desc>
			<g>
				<desc>null, figure.lineshape, null</desc>
				<line x1="70.2187499999" y1="62.6249999999" x2="76.30312499989999" y2="62.6249999999" stroke="rgb(0,0,0)" stroke-width="0.250000000000001" stroke-linecap="round"/>
				<path d="M 77.50755566724311,62.4597656249 A 0.1907962217712546 0.19079622177125463 0 0 1 77.50755566724311,62.790234374899995 L 76.2184360935384,63.53450790779603 A 0.20027571490777496 0.2002757149077694 0 0 1 75.94381026286406,63.26275683255689 L 75.94381026286406,63.26275683255689 A 1.299265788597949 1.299265788597949 0 0 0 75.94381026286406,61.98724316724311 L 75.94381026286406,61.98724316724311 A 0.20027571490777496 0.2002757149077694 0 0 1 76.2184360935384,61.71549209200396 z"/>
			</g>
		</g>
		<g>
			<desc>, bpmn.bpd.relation, 45a413680000c3a80141d599fb039f2f</desc>
			<g>
				<desc>null, figure.lineshape, null</desc>
				<line x1="87.7187499999" y1="62.6249999999" x2="95.1249999999" y2="62.6249999999" stroke="rgb(0,0,0)" stroke-width="0.250000000000001" stroke-linecap="round"/>
				<path d="M 95.1249999999,62.6249999999 A 2.5 2.5 0 0 0 97.6249999999,60.1249999999" stroke="rgb(0,0,0)" stroke-width="0.250000000000001" fill="none" stroke-linecap="round"/>
				<line x1="97.6249999999" y1="60.1249999999" x2="97.6249999999" y2="50.1249999999" stroke="rgb(0,0,0)" stroke-width="0.250000000000001" stroke-linecap="round"/>
				<path d="M 97.6249999999,50.1249999999 A 2.5 2.5 0 0 1 100.1249999999,47.6249999999" stroke="rgb(0,0,0)" stroke-width="0.250000000000001" fill="none" stroke-linecap="round"/>
				<line x1="100.1249999999" y1="47.6249999999" x2="108.80312499989988" y2="47.6249999999" stroke="rgb(0,0,0)" stroke-width="0.250000000000001" stroke-linecap="round"/>
				<path d="M 110.007555667243,47.4597656249 A 0.1907962217712546 0.19079622177125463 0 0 1 110.007555667243,47.790234374899995 L 108.71843609353829,48.53450790779603 A 0.20027571490777496 0.2002757149077694 0 0 1 108.44381026286395,48.26275683255689 L 108.44381026286395,48.26275683255689 A 1.299265788597949 1.299265788597949 0 0 0 108.44381026286395,46.98724316724311 L 108.44381026286395,46.98724316724311 A 0.20027571490777496 0.2002757149077694 0 0 1 108.71843609353829,46.71549209200396 z"/>
			</g>
		</g>
		<g>
			<desc>, bpmn.bpd.relation, 45a53b900000c3a801412378f27a49b8</desc>
			<g>
				<desc>null, figure.lineshape, null</desc>
				<line x1="87.7187499999" y1="62.6249999999" x2="95.1249999999" y2="62.6249999999" stroke="rgb(0,0,0)" stroke-width="0.250000000000001" stroke-linecap="round"/>
				<path d="M 95.1249999999,62.6249999999 A 2.5 2.5 0 0 0 97.6249999999,60.1249999999" stroke="rgb(0,0,0)" stroke-width="0.250000000000001" fill="none" stroke-linecap="round"/>
				<line x1="97.6249999999" y1="60.1249999999" x2="97.6249999999" y2="20.124999999899998" stroke="rgb(0,0,0)" stroke-width="0.250000000000001" stroke-linecap="round"/>
				<path d="M 97.6249999999,20.124999999899998 A 2.5 2.5 0 0 1 100.1249999999,17.624999999899998" stroke="rgb(0,0,0)" stroke-width="0.250000000000001" fill="none" stroke-linecap="round"/>
				<line x1="100.1249999999" y1="17.624999999899998" x2="138.8031249999" y2="17.624999999899998" stroke="rgb(0,0,0)" stroke-width="0.250000000000001" stroke-linecap="round"/>
				<path d="M 140.0075556672431,17.459765624899998 A 0.19079622177126482 0.1907962217712648 0 0 1 140.0075556672431,17.7902343749 L 138.7184360935384,18.53450790779603 A 0.2002757149077591 0.20027571490777246 0 0 1 138.44381026286408,18.26275683255688 L 138.44381026286408,18.26275683255689 A 1.299265788597949 1.299265788597949 0 0 0 138.44381026286408,16.987243167243108 L 138.44381026286408,16.987243167243115 A 0.2002757149077591 0.20027571490777246 0 0 1 138.7184360935384,16.715492092003966 z"/>
			</g>
		</g>
		<g class="clickEl 4543fe900000c3a80141f5253ff13c35">
			<desc>up-long!, bpmn.bpd.event.intermediate, 45a6a22e0000c3a801415136ee6954be</desc>
			<g>
				<desc>null, figure.dot, null</desc>
			</g>
			<g>
				<desc>null, figure.plane, null</desc>
				<path d="M 110.1249999999,47.6249999999 A 5.0 5.0 0 0 1 115.1249999999,42.6249999999 L 115.1249999999,42.6249999999 A 5.0 5.0 0 0 1 120.1249999999,47.6249999999 L 120.1249999999,47.6249999999 A 5.0 5.0 0 0 1 115.1249999999,52.6249999999 L 115.1249999999,52.6249999999 A 5.0 5.0 0 0 1 110.1249999999,47.6249999999 z" fill="rgb(255,232,232)"/>
				<path d="M 110.1249999999,47.6249999999 A 5.0 5.0 0 0 1 115.1249999999,42.6249999999" stroke="rgb(255,255,255)" stroke-width="1.000000000000004" fill="none" stroke-linecap="round"/>
				<path d="M 115.1249999999,42.6249999999 A 5.0 5.0 0 0 1 120.1249999999,47.6249999999" stroke="rgb(255,255,255)" stroke-width="1.000000000000004" fill="none" stroke-linecap="round"/>
				<path d="M 120.1249999999,47.6249999999 A 5.0 5.0 0 0 1 115.1249999999,52.6249999999" stroke="rgb(255,255,255)" stroke-width="1.000000000000004" fill="none" stroke-linecap="round"/>
				<path d="M 115.1249999999,52.6249999999 A 5.0 5.0 0 0 1 110.1249999999,47.6249999999" stroke="rgb(255,255,255)" stroke-width="1.000000000000004" fill="none" stroke-linecap="round"/>
				<path d="M 110.6249999999,47.6249999999 A 4.499999999999998 4.499999999999998 0 0 1 115.1249999999,43.1249999999" stroke="rgb(0,0,0)" stroke-width="0.500000000000002" fill="none" stroke-linecap="round"/>
				<path d="M 109.6249999999,47.6249999999 A 5.500000000000002 5.500000000000002 0 0 1 115.1249999999,42.1249999999" stroke="rgb(0,0,0)" stroke-width="0.500000000000002" fill="none" stroke-linecap="round"/>
				<path d="M 115.1249999999,43.1249999999 A 4.499999999999998 4.499999999999998 0 0 1 119.6249999999,47.6249999999" stroke="rgb(0,0,0)" stroke-width="0.500000000000002" fill="none" stroke-linecap="round"/>
				<path d="M 115.1249999999,42.1249999999 A 5.500000000000002 5.500000000000002 0 0 1 120.6249999999,47.6249999999" stroke="rgb(0,0,0)" stroke-width="0.500000000000002" fill="none" stroke-linecap="round"/>
				<path d="M 119.6249999999,47.6249999999 A 4.499999999999998 4.499999999999998 0 0 1 115.1249999999,52.1249999999" stroke="rgb(0,0,0)" stroke-width="0.500000000000002" fill="none" stroke-linecap="round"/>
				<path d="M 120.6249999999,47.6249999999 A 5.500000000000002 5.500000000000002 0 0 1 115.1249999999,53.1249999999" stroke="rgb(0,0,0)" stroke-width="0.500000000000002" fill="none" stroke-linecap="round"/>
				<path d="M 115.1249999999,52.1249999999 A 4.499999999999998 4.499999999999998 0 0 1 110.6249999999,47.6249999999" stroke="rgb(0,0,0)" stroke-width="0.500000000000002" fill="none" stroke-linecap="round"/>
				<path d="M 115.1249999999,53.1249999999 A 5.500000000000002 5.500000000000002 0 0 1 109.6249999999,47.6249999999" stroke="rgb(0,0,0)" stroke-width="0.500000000000002" fill="none" stroke-linecap="round"/>
				<g>
					<desc>null, supplement, null</desc>
					<text x="115.1249999999" y="40.2249999999" textLength="14.64" lengthAdjust="spacingAndGlyphs" text-anchor="middle" font-family="Arial" font-size="4.0200000000000005">up-long!</text>
				</g>
			</g>
		</g>
		<g>
			<desc>, bpmn.bpd.relation, 45a785a90000c3a801415dd1a681c28f</desc>
			<g>
				<desc>null, figure.lineshape, null</desc>
				<line x1="150.2187499999" y1="17.624999999899998" x2="190.1249999999" y2="17.624999999899998" stroke="rgb(0,0,0)" stroke-width="0.250000000000001" stroke-linecap="round"/>
				<path d="M 190.1249999999,17.624999999899998 A 2.5 2.5 0 0 1 192.6249999999,20.124999999899998" stroke="rgb(0,0,0)" stroke-width="0.250000000000001" fill="none" stroke-linecap="round"/>
				<line x1="192.6249999999" y1="20.124999999899998" x2="192.6249999999" y2="120.1249999999" stroke="rgb(0,0,0)" stroke-width="0.250000000000001" stroke-linecap="round"/>
				<path d="M 192.6249999999,120.1249999999 A 2.5 2.5 0 0 1 190.1249999999,122.6249999999" stroke="rgb(0,0,0)" stroke-width="0.250000000000001" fill="none" stroke-linecap="round"/>
				<line x1="190.1249999999" y1="122.6249999999" x2="32.62499999990001" y2="122.6249999999" stroke="rgb(0,0,0)" stroke-width="0.250000000000001" stroke-linecap="round"/>
				<path d="M 32.6249999999,122.6249999999 A 2.4999999999999964 2.5 0 0 1 30.1249999999,120.1249999999" stroke="rgb(0,0,0)" stroke-width="0.250000000000001" fill="none" stroke-linecap="round"/>
				<line x1="30.1249999999" y1="120.1249999999" x2="30.1249999999" y2="68.94687499990003" stroke="rgb(0,0,0)" stroke-width="0.250000000000001" stroke-linecap="round"/>
				<path d="M 29.9597656249,67.74244433255689 A 0.19079622177125768 0.1907962217712575 0 0 1 30.290234374900002,67.74244433255689 L 31.034507907796034,69.03156390626158 A 0.20027571490775614 0.20027571490778917 0 0 1 30.76275683255691,69.30618973693593 L 30.762756832556892,69.30618973693593 A 1.2992657885979482 1.299265788597949 0 0 0 29.48724316724311,69.30618973693593 L 29.487243167243093,69.30618973693593 A 0.2002757149077561 0.2002757149077891 0 0 1 29.21549209200397,69.03156390626158 z"/>
			</g>
		</g>
		<g>
			<desc>, bpmn.bpd.event.start, 45a809490000c3a801418dd10d6f7ac6</desc>
			<g>
				<desc>null, figure.dot, null</desc>
			</g>
			<g>
				<desc>null, figure.plane, null</desc>
				<path d="M 7.6249999999,62.6249999999 A 5.0 5.0 0 0 1 12.624999999899998,57.6249999999 L 12.6249999999,57.6249999999 A 5.000000000000002 5.0 0 0 1 17.6249999999,62.6249999999 L 17.6249999999,62.6249999999 A 5.000000000000002 5.0 0 0 1 12.6249999999,67.6249999999 L 12.6249999999,67.6249999999 A 5.0 5.0 0 0 1 7.6249999999,62.6249999999 z" fill="rgb(255,232,232)"/>
				<path d="M 7.6249999999,62.6249999999 A 5.0 5.0 0 0 1 12.624999999899998,57.6249999999" stroke="rgb(0,0,0)" stroke-width="0.500000000000002" fill="none" stroke-linecap="round"/>
				<path d="M 12.6249999999,57.6249999999 A 5.000000000000002 5.0 0 0 1 17.6249999999,62.6249999999" stroke="rgb(0,0,0)" stroke-width="0.500000000000002" fill="none" stroke-linecap="round"/>
				<path d="M 17.6249999999,62.6249999999 A 5.000000000000002 5.0 0 0 1 12.6249999999,67.6249999999" stroke="rgb(0,0,0)" stroke-width="0.500000000000002" fill="none" stroke-linecap="round"/>
				<path d="M 12.6249999999,67.6249999999 A 5.0 5.0 0 0 1 7.6249999999,62.6249999999" stroke="rgb(0,0,0)" stroke-width="0.500000000000002" fill="none" stroke-linecap="round"/>
			</g>
		</g>
		<g class="clickEl 45450be80000c3a801414f280f146c71">
			<desc>down-long!, bpmn.bpd.event.intermediate, 45a858430000c3a80141e03e5a6885b3</desc>
			<g>
				<desc>null, figure.dot, null</desc>
			</g>
			<g>
				<desc>null, figure.plane, null</desc>
				<path d="M 110.1249999999,77.6249999999 A 5.0 5.0 0 0 1 115.1249999999,72.6249999999 L 115.1249999999,72.6249999999 A 5.0 5.0 0 0 1 120.1249999999,77.6249999999 L 120.1249999999,77.6249999999 A 5.0 5.0 0 0 1 115.1249999999,82.6249999999 L 115.1249999999,82.6249999999 A 5.0 5.0 0 0 1 110.1249999999,77.6249999999 z" fill="rgb(255,232,232)"/>
				<path d="M 110.1249999999,77.6249999999 A 5.0 5.0 0 0 1 115.1249999999,72.6249999999" stroke="rgb(255,255,255)" stroke-width="1.000000000000004" fill="none" stroke-linecap="round"/>
				<path d="M 115.1249999999,72.6249999999 A 5.0 5.0 0 0 1 120.1249999999,77.6249999999" stroke="rgb(255,255,255)" stroke-width="1.000000000000004" fill="none" stroke-linecap="round"/>
				<path d="M 120.1249999999,77.6249999999 A 5.0 5.0 0 0 1 115.1249999999,82.6249999999" stroke="rgb(255,255,255)" stroke-width="1.000000000000004" fill="none" stroke-linecap="round"/>
				<path d="M 115.1249999999,82.6249999999 A 5.0 5.0 0 0 1 110.1249999999,77.6249999999" stroke="rgb(255,255,255)" stroke-width="1.000000000000004" fill="none" stroke-linecap="round"/>
				<path d="M 110.6249999999,77.6249999999 A 4.499999999999998 4.499999999999998 0 0 1 115.1249999999,73.1249999999" stroke="rgb(0,0,0)" stroke-width="0.500000000000002" fill="none" stroke-linecap="round"/>
				<path d="M 109.6249999999,77.6249999999 A 5.500000000000002 5.500000000000002 0 0 1 115.1249999999,72.1249999999" stroke="rgb(0,0,0)" stroke-width="0.500000000000002" fill="none" stroke-linecap="round"/>
				<path d="M 115.1249999999,73.1249999999 A 4.499999999999998 4.499999999999998 0 0 1 119.6249999999,77.6249999999" stroke="rgb(0,0,0)" stroke-width="0.500000000000002" fill="none" stroke-linecap="round"/>
				<path d="M 115.1249999999,72.1249999999 A 5.500000000000002 5.500000000000002 0 0 1 120.6249999999,77.6249999999" stroke="rgb(0,0,0)" stroke-width="0.500000000000002" fill="none" stroke-linecap="round"/>
				<path d="M 119.6249999999,77.6249999999 A 4.499999999999998 4.499999999999998 0 0 1 115.1249999999,82.1249999999" stroke="rgb(0,0,0)" stroke-width="0.500000000000002" fill="none" stroke-linecap="round"/>
				<path d="M 120.6249999999,77.6249999999 A 5.500000000000002 5.500000000000002 0 0 1 115.1249999999,83.1249999999" stroke="rgb(0,0,0)" stroke-width="0.500000000000002" fill="none" stroke-linecap="round"/>
				<path d="M 115.1249999999,82.1249999999 A 4.499999999999998 4.499999999999998 0 0 1 110.6249999999,77.6249999999" stroke="rgb(0,0,0)" stroke-width="0.500000000000002" fill="none" stroke-linecap="round"/>
				<path d="M 115.1249999999,83.1249999999 A 5.500000000000002 5.500000000000002 0 0 1 109.6249999999,77.6249999999" stroke="rgb(0,0,0)" stroke-width="0.500000000000002" fill="none" stroke-linecap="round"/>
				<g>
					<desc>null, supplement, null</desc>
					<text x="115.1249999999" y="70.22499999989999" textLength="19.68" lengthAdjust="spacingAndGlyphs" text-anchor="middle" font-family="Arial" font-size="4.0200000000000005">down-long!</text>
				</g>
			</g>
		</g>
		<g>
			<desc>, bpmn.bpd.relation, 45a8f2ad0000c3a80141d812c6ac0700</desc>
			<g>
				<desc>null, figure.lineshape, null</desc>
				<line x1="160.2187499999" y1="47.6249999999" x2="168.8031249999" y2="47.6249999999" stroke="rgb(0,0,0)" stroke-width="0.250000000000001" stroke-linecap="round"/>
				<path d="M 170.0075556672431,47.459765624899994 A 0.1907962217712679 0.19079622177126787 0 0 1 170.0075556672431,47.7902343749 L 168.7184360935384,48.53450790779603 A 0.2002757149077556 0.2002757149077817 0 0 1 168.44381026286408,48.262756832556875 L 168.44381026286408,48.26275683255689 A 1.299265788597949 1.299265788597949 0 0 0 168.44381026286408,46.98724316724311 L 168.44381026286408,46.98724316724312 A 0.2002757149077556 0.2002757149077817 0 0 1 168.7184360935384,46.71549209200396 z"/>
			</g>
		</g>
		<g>
			<desc>Logical Operator XOR, bpmn.bpd.gateway, 45aa24090000c3a80141a33e122aa34a</desc>
			<g>
				<desc>null, figure.plane, null</desc>
				<path d=" M 30.1249999999,57.6249999999 L 35.1249999999,62.6249999999 L 30.1249999999,67.6249999999 L 25.1249999999,62.6249999999 z" fill="rgb(255,255,255)"/>
				<line x1="30.1249999999" y1="57.6249999999" x2="35.1249999999" y2="62.6249999999" stroke="rgb(0,0,0)" stroke-width="0.500000000000002" stroke-linecap="round"/>
				<line x1="35.1249999999" y1="62.6249999999" x2="30.1249999999" y2="67.6249999999" stroke="rgb(0,0,0)" stroke-width="0.500000000000002" stroke-linecap="round"/>
				<line x1="30.1249999999" y1="67.6249999999" x2="25.1249999999" y2="62.6249999999" stroke="rgb(0,0,0)" stroke-width="0.500000000000002" stroke-linecap="round"/>
				<line x1="25.1249999999" y1="62.6249999999" x2="30.1249999999" y2="57.6249999999" stroke="rgb(0,0,0)" stroke-width="0.500000000000002" stroke-linecap="round"/>
			</g>
			<g>
				<desc>null, figure.plane, null</desc>
				<g>
					<desc>null, supplement, null</desc>
					<path d=" M 28.97115384605385,59.8749999999 L 30.817307692207695,65.3749999999 L 31.278846153746155,65.3749999999 L 29.43269230759231,59.8749999999 z"/>
					<line x1="28.97115384605385" y1="59.8749999999" x2="30.817307692207695" y2="65.3749999999" stroke="rgb(0,0,0)" stroke-width="0.250000000000001" stroke-linecap="round"/>
					<line x1="30.817307692207695" y1="65.3749999999" x2="31.278846153746155" y2="65.3749999999" stroke="rgb(0,0,0)" stroke-width="0.250000000000001" stroke-linecap="round"/>
					<line x1="31.278846153746155" y1="65.3749999999" x2="29.43269230759231" y2="59.8749999999" stroke="rgb(0,0,0)" stroke-width="0.250000000000001" stroke-linecap="round"/>
					<line x1="29.43269230759231" y1="59.8749999999" x2="28.97115384605385" y2="59.8749999999" stroke="rgb(0,0,0)" stroke-width="0.250000000000001" stroke-linecap="round"/>
					<path d=" M 30.817307692207695,59.8749999999 L 28.97115384605385,65.3749999999 L 29.43269230759231,65.3749999999 L 31.278846153746155,59.8749999999 z"/>
					<line x1="30.817307692207695" y1="59.8749999999" x2="28.97115384605385" y2="65.3749999999" stroke="rgb(0,0,0)" stroke-width="0.250000000000001" stroke-linecap="round"/>
					<line x1="28.97115384605385" y1="65.3749999999" x2="29.43269230759231" y2="65.3749999999" stroke="rgb(0,0,0)" stroke-width="0.250000000000001" stroke-linecap="round"/>
					<line x1="29.43269230759231" y1="65.3749999999" x2="31.278846153746155" y2="59.8749999999" stroke="rgb(0,0,0)" stroke-width="0.250000000000001" stroke-linecap="round"/>
					<line x1="31.278846153746155" y1="59.8749999999" x2="30.817307692207695" y2="59.8749999999" stroke="rgb(0,0,0)" stroke-width="0.250000000000001" stroke-linecap="round"/>
				</g>
			</g>
		</g>
		<g>
			<desc>, bpmn.bpd.relation, 45aac20c0000c3a801419c63c2ae1ad1</desc>
			<g>
				<desc>null, figure.lineshape, null</desc>
				<line x1="120.2187499999" y1="47.6249999999" x2="128.8031249999" y2="47.6249999999" stroke="rgb(0,0,0)" stroke-width="0.250000000000001" stroke-linecap="round"/>
				<path d="M 130.0075556672431,47.459765624899994 A 0.1907962217712679 0.19079622177126787 0 0 1 130.0075556672431,47.7902343749 L 128.7184360935384,48.53450790779603 A 0.2002757149077556 0.2002757149077817 0 0 1 128.44381026286408,48.262756832556875 L 128.44381026286408,48.26275683255689 A 1.299265788597949 1.299265788597949 0 0 0 128.44381026286408,46.98724316724311 L 128.44381026286408,46.98724316724312 A 0.2002757149077556 0.2002757149077817 0 0 1 128.7184360935384,46.71549209200396 z"/>
			</g>
		</g>
		<g>
			<desc>, bpmn.bpd.relation, 45abd1280000c3a80141569882a93b9f</desc>
			<g>
				<desc>null, figure.lineshape, null</desc>
				<line x1="160.2187499999" y1="77.6249999999" x2="168.8031249999" y2="77.6249999999" stroke="rgb(0,0,0)" stroke-width="0.250000000000001" stroke-linecap="round"/>
				<path d="M 170.0075556672431,77.4597656249 A 0.19079622177126174 0.1907962217712617 0 0 1 170.0075556672431,77.7902343749 L 168.7184360935384,78.53450790779604 A 0.2002757149077591 0.2002757149077817 0 0 1 168.44381026286408,78.26275683255687 L 168.44381026286408,78.26275683255689 A 1.299265788597949 1.299265788597949 0 0 0 168.44381026286408,76.98724316724311 L 168.44381026286408,76.98724316724312 A 0.2002757149077591 0.2002757149077817 0 0 1 168.7184360935384,76.71549209200396 z"/>
			</g>
		</g>
		<g class="clickEl 453facbb0000c3a80141c43d2fb4f5e2">
			<desc>released!, bpmn.bpd.event.intermediate, 45abd1280000c3a80141569977bb6da2</desc>
			<g>
				<desc>null, figure.dot, null</desc>
			</g>
			<g>
				<desc>null, figure.plane, null</desc>
				<path d="M 170.1249999999,77.6249999999 A 5.0 5.0 0 0 1 175.1249999999,72.6249999999 L 175.1249999999,72.6249999999 A 5.0 5.0 0 0 1 180.1249999999,77.6249999999 L 180.1249999999,77.6249999999 A 5.0 5.0 0 0 1 175.1249999999,82.6249999999 L 175.1249999999,82.6249999999 A 5.0 5.0 0 0 1 170.1249999999,77.6249999999 z" fill="rgb(255,232,232)"/>
				<path d="M 170.1249999999,77.6249999999 A 5.0 5.0 0 0 1 175.1249999999,72.6249999999" stroke="rgb(255,255,255)" stroke-width="1.000000000000004" fill="none" stroke-linecap="round"/>
				<path d="M 175.1249999999,72.6249999999 A 5.0 5.0 0 0 1 180.1249999999,77.6249999999" stroke="rgb(255,255,255)" stroke-width="1.000000000000004" fill="none" stroke-linecap="round"/>
				<path d="M 180.1249999999,77.6249999999 A 5.0 5.0 0 0 1 175.1249999999,82.6249999999" stroke="rgb(255,255,255)" stroke-width="1.000000000000004" fill="none" stroke-linecap="round"/>
				<path d="M 175.1249999999,82.6249999999 A 5.0 5.0 0 0 1 170.1249999999,77.6249999999" stroke="rgb(255,255,255)" stroke-width="1.000000000000004" fill="none" stroke-linecap="round"/>
				<path d="M 170.6249999999,77.6249999999 A 4.499999999999998 4.499999999999998 0 0 1 175.1249999999,73.1249999999" stroke="rgb(0,0,0)" stroke-width="0.500000000000002" fill="none" stroke-linecap="round"/>
				<path d="M 169.6249999999,77.6249999999 A 5.500000000000002 5.500000000000002 0 0 1 175.1249999999,72.1249999999" stroke="rgb(0,0,0)" stroke-width="0.500000000000002" fill="none" stroke-linecap="round"/>
				<path d="M 175.1249999999,73.1249999999 A 4.499999999999998 4.499999999999998 0 0 1 179.6249999999,77.6249999999" stroke="rgb(0,0,0)" stroke-width="0.500000000000002" fill="none" stroke-linecap="round"/>
				<path d="M 175.1249999999,72.1249999999 A 5.500000000000002 5.500000000000002 0 0 1 180.6249999999,77.6249999999" stroke="rgb(0,0,0)" stroke-width="0.500000000000002" fill="none" stroke-linecap="round"/>
				<path d="M 179.6249999999,77.6249999999 A 4.499999999999998 4.499999999999998 0 0 1 175.1249999999,82.1249999999" stroke="rgb(0,0,0)" stroke-width="0.500000000000002" fill="none" stroke-linecap="round"/>
				<path d="M 180.6249999999,77.6249999999 A 5.500000000000002 5.500000000000002 0 0 1 175.1249999999,83.1249999999" stroke="rgb(0,0,0)" stroke-width="0.500000000000002" fill="none" stroke-linecap="round"/>
				<path d="M 175.1249999999,82.1249999999 A 4.499999999999998 4.499999999999998 0 0 1 170.6249999999,77.6249999999" stroke="rgb(0,0,0)" stroke-width="0.500000000000002" fill="none" stroke-linecap="round"/>
				<path d="M 175.1249999999,83.1249999999 A 5.500000000000002 5.500000000000002 0 0 1 169.6249999999,77.6249999999" stroke="rgb(0,0,0)" stroke-width="0.500000000000002" fill="none" stroke-linecap="round"/>
				<g>
					<desc>null, supplement, null</desc>
					<text x="175.1249999999" y="70.22499999989999" textLength="16.68" lengthAdjust="spacingAndGlyphs" text-anchor="middle" font-family="Arial" font-size="4.0200000000000005">released!</text>
				</g>
			</g>
		</g>
		<g>
			<desc>, bpmn.bpd.relation, 45abd1280000c3a80141569b8d841975</desc>
			<g>
				<desc>null, figure.lineshape, null</desc>
				<line x1="120.2187499999" y1="77.6249999999" x2="128.8031249999" y2="77.6249999999" stroke="rgb(0,0,0)" stroke-width="0.250000000000001" stroke-linecap="round"/>
				<path d="M 130.0075556672431,77.4597656249 A 0.19079622177126174 0.1907962217712617 0 0 1 130.0075556672431,77.7902343749 L 128.7184360935384,78.53450790779604 A 0.2002757149077591 0.2002757149077817 0 0 1 128.44381026286408,78.26275683255687 L 128.44381026286408,78.26275683255689 A 1.299265788597949 1.299265788597949 0 0 0 128.44381026286408,76.98724316724311 L 128.44381026286408,76.98724316724312 A 0.2002757149077591 0.2002757149077817 0 0 1 128.7184360935384,76.71549209200396 z"/>
			</g>
		</g>
		<g>
			<desc>, bpmn.bpd.relation, 45ad22d00000c3a80141701c94010ad1</desc>
			<g>
				<desc>null, figure.lineshape, null</desc>
				<line x1="87.7187499999" y1="62.6249999999" x2="95.12499999990011" y2="62.6249999999" stroke="rgb(0,0,0)" stroke-width="0.250000000000001" stroke-linecap="round"/>
				<path d="M 95.12499999990011,62.6249999999 A 2.5 2.5 0 0 1 97.62499999990011,65.1249999999" stroke="rgb(0,0,0)" stroke-width="0.250000000000001" fill="none" stroke-linecap="round"/>
				<line x1="97.62499999990011" y1="65.1249999999" x2="97.62499999990011" y2="75.1249999999" stroke="rgb(0,0,0)" stroke-width="0.250000000000001" stroke-linecap="round"/>
				<path d="M 97.62499999990011,75.1249999999 A 2.5 2.5 0 0 0 100.12499999990011,77.6249999999" stroke="rgb(0,0,0)" stroke-width="0.250000000000001" fill="none" stroke-linecap="round"/>
				<line x1="100.12499999990011" y1="77.6249999999" x2="108.80312499989999" y2="77.6249999999" stroke="rgb(0,0,0)" stroke-width="0.250000000000001" stroke-linecap="round"/>
				<path d="M 110.00755566724311,77.4597656249 A 0.1907962217712546 0.19079622177125463 0 0 1 110.00755566724311,77.7902343749 L 108.71843609353841,78.53450790779603 A 0.2002757149077908 0.20027571490774998 0 0 1 108.44381026286406,78.2627568325569 L 108.44381026286406,78.26275683255689 A 1.299265788597949 1.299265788597949 0 0 0 108.44381026286406,76.98724316724311 L 108.44381026286406,76.9872431672431 A 0.2002757149077908 0.20027571490774998 0 0 1 108.71843609353841,76.71549209200397 z"/>
			</g>
		</g>
		<g>
			<desc>, bpmn.bpd.relation, 45ad454e0000c3a801412dc193b79cdb</desc>
			<g>
				<desc>null, figure.lineshape, null</desc>
				<line x1="87.7187499999" y1="62.6249999999" x2="95.12499999990011" y2="62.6249999999" stroke="rgb(0,0,0)" stroke-width="0.250000000000001" stroke-linecap="round"/>
				<path d="M 95.12499999990011,62.6249999999 A 2.5 2.5 0 0 1 97.62499999990011,65.1249999999" stroke="rgb(0,0,0)" stroke-width="0.250000000000001" fill="none" stroke-linecap="round"/>
				<line x1="97.62499999990011" y1="65.1249999999" x2="97.62499999990011" y2="105.1249999999" stroke="rgb(0,0,0)" stroke-width="0.250000000000001" stroke-linecap="round"/>
				<path d="M 97.62499999990011,105.1249999999 A 2.5 2.5 0 0 0 100.12499999990011,107.6249999999" stroke="rgb(0,0,0)" stroke-width="0.250000000000001" fill="none" stroke-linecap="round"/>
				<line x1="100.12499999990011" y1="107.6249999999" x2="138.8031249999" y2="107.6249999999" stroke="rgb(0,0,0)" stroke-width="0.250000000000001" stroke-linecap="round"/>
				<path d="M 140.0075556672431,107.45976562489999 A 0.19079622177127406 0.190796221771274 0 0 1 140.0075556672431,107.79023437490001 L 138.7184360935384,108.53450790779604 A 0.2002757149077591 0.2002757149077817 0 0 1 138.44381026286408,108.26275683255687 L 138.44381026286408,108.26275683255689 A 1.299265788597949 1.299265788597949 0 0 0 138.44381026286408,106.98724316724311 L 138.44381026286408,106.98724316724312 A 0.2002757149077591 0.2002757149077817 0 0 1 138.7184360935384,106.71549209200396 z"/>
			</g>
		</g>
		<g>
			<desc>, bpmn.bpd.relation, 45af30570000c3a8014198df917d710d</desc>
			<g>
				<desc>null, figure.lineshape, null</desc>
				<line x1="150.2187499998991" y1="107.6249999999" x2="190.1249999999" y2="107.6249999999" stroke="rgb(0,0,0)" stroke-width="0.250000000000001" stroke-linecap="round"/>
				<path d="M 190.1249999999,107.6249999999 A 2.5 2.5 0 0 1 192.6249999999,110.1249999999" stroke="rgb(0,0,0)" stroke-width="0.250000000000001" fill="none" stroke-linecap="round"/>
				<line x1="192.6249999999" y1="110.1249999999" x2="192.6249999999" y2="120.1249999999" stroke="rgb(0,0,0)" stroke-width="0.250000000000001" stroke-linecap="round"/>
				<path d="M 192.6249999999,120.1249999999 A 2.5 2.5 0 0 1 190.1249999999,122.6249999999" stroke="rgb(0,0,0)" stroke-width="0.250000000000001" fill="none" stroke-linecap="round"/>
				<line x1="190.1249999999" y1="122.6249999999" x2="32.62499999990001" y2="122.6249999999" stroke="rgb(0,0,0)" stroke-width="0.250000000000001" stroke-linecap="round"/>
				<path d="M 32.6249999999,122.6249999999 A 2.4999999999999964 2.5 0 0 1 30.1249999999,120.1249999999" stroke="rgb(0,0,0)" stroke-width="0.250000000000001" fill="none" stroke-linecap="round"/>
				<line x1="30.1249999999" y1="120.1249999999" x2="30.1249999999" y2="68.94687499989998" stroke="rgb(0,0,0)" stroke-width="0.250000000000001" stroke-linecap="round"/>
				<path d="M 29.9597656249,67.74244433255689 A 0.19079622177125768 0.1907962217712575 0 0 1 30.290234374900002,67.74244433255689 L 31.034507907796034,69.03156390626158 A 0.20027571490775614 0.20027571490778917 0 0 1 30.76275683255691,69.30618973693593 L 30.762756832556892,69.30618973693593 A 1.2992657885979482 1.299265788597949 0 0 0 29.48724316724311,69.30618973693593 L 29.487243167243093,69.30618973693593 A 0.2002757149077561 0.2002757149077891 0 0 1 29.21549209200397,69.03156390626158 z"/>
			</g>
		</g>
		<g>
			<desc>, bpmn.bpd.relation, 45af85870000c3a80141f1847539d2e0</desc>
			<g>
				<desc>null, figure.lineshape, null</desc>
				<line x1="180.2187499999" y1="77.6249999999" x2="190.1249999999" y2="77.6249999999" stroke="rgb(0,0,0)" stroke-width="0.250000000000001" stroke-linecap="round"/>
				<path d="M 190.1249999999,77.6249999999 A 2.5 2.5 0 0 1 192.6249999999,80.1249999999" stroke="rgb(0,0,0)" stroke-width="0.250000000000001" fill="none" stroke-linecap="round"/>
				<line x1="192.6249999999" y1="80.1249999999" x2="192.6249999999" y2="120.1249999999" stroke="rgb(0,0,0)" stroke-width="0.250000000000001" stroke-linecap="round"/>
				<path d="M 192.6249999999,120.1249999999 A 2.5 2.5 0 0 1 190.1249999999,122.6249999999" stroke="rgb(0,0,0)" stroke-width="0.250000000000001" fill="none" stroke-linecap="round"/>
				<line x1="190.1249999999" y1="122.6249999999" x2="32.62499999990001" y2="122.6249999999" stroke="rgb(0,0,0)" stroke-width="0.250000000000001" stroke-linecap="round"/>
				<path d="M 32.6249999999,122.6249999999 A 2.4999999999999964 2.5 0 0 1 30.1249999999,120.1249999999" stroke="rgb(0,0,0)" stroke-width="0.250000000000001" fill="none" stroke-linecap="round"/>
				<line x1="30.1249999999" y1="120.1249999999" x2="30.1249999999" y2="68.94687499989998" stroke="rgb(0,0,0)" stroke-width="0.250000000000001" stroke-linecap="round"/>
				<path d="M 29.9597656249,67.74244433255689 A 0.19079622177125768 0.1907962217712575 0 0 1 30.290234374900002,67.74244433255689 L 31.034507907796034,69.03156390626158 A 0.20027571490775614 0.20027571490778917 0 0 1 30.76275683255691,69.30618973693593 L 30.762756832556892,69.30618973693593 A 1.2992657885979482 1.299265788597949 0 0 0 29.48724316724311,69.30618973693593 L 29.487243167243093,69.30618973693593 A 0.2002757149077561 0.2002757149077891 0 0 1 29.21549209200397,69.03156390626158 z"/>
			</g>
		</g>
		<g>
			<desc>, bpmn.bpd.relation, 45afa0770000c3a8014128586c88ac96</desc>
			<g>
				<desc>null, figure.lineshape, null</desc>
				<line x1="180.2187499999" y1="47.6249999999" x2="190.1249999999" y2="47.6249999999" stroke="rgb(0,0,0)" stroke-width="0.250000000000001" stroke-linecap="round"/>
				<path d="M 190.1249999999,47.6249999999 A 2.5 2.5 0 0 1 192.6249999999,50.1249999999" stroke="rgb(0,0,0)" stroke-width="0.250000000000001" fill="none" stroke-linecap="round"/>
				<line x1="192.6249999999" y1="50.1249999999" x2="192.6249999999" y2="120.1249999999" stroke="rgb(0,0,0)" stroke-width="0.250000000000001" stroke-linecap="round"/>
				<path d="M 192.6249999999,120.1249999999 A 2.5 2.5 0 0 1 190.1249999999,122.6249999999" stroke="rgb(0,0,0)" stroke-width="0.250000000000001" fill="none" stroke-linecap="round"/>
				<line x1="190.1249999999" y1="122.6249999999" x2="32.62499999990001" y2="122.6249999999" stroke="rgb(0,0,0)" stroke-width="0.250000000000001" stroke-linecap="round"/>
				<path d="M 32.6249999999,122.6249999999 A 2.4999999999999964 2.5 0 0 1 30.1249999999,120.1249999999" stroke="rgb(0,0,0)" stroke-width="0.250000000000001" fill="none" stroke-linecap="round"/>
				<line x1="30.1249999999" y1="120.1249999999" x2="30.1249999999" y2="68.94687499989998" stroke="rgb(0,0,0)" stroke-width="0.250000000000001" stroke-linecap="round"/>
				<path d="M 29.9597656249,67.74244433255689 A 0.19079622177125768 0.1907962217712575 0 0 1 30.290234374900002,67.74244433255689 L 31.034507907796034,69.03156390626158 A 0.20027571490775614 0.20027571490778917 0 0 1 30.76275683255691,69.30618973693593 L 30.762756832556892,69.30618973693593 A 1.2992657885979482 1.299265788597949 0 0 0 29.48724316724311,69.30618973693593 L 29.487243167243093,69.30618973693593 A 0.2002757149077561 0.2002757149077891 0 0 1 29.21549209200397,69.03156390626158 z"/>
			</g>
		</g>
		<g>
			<desc>, bpmn.bpd.relation, 45afdd670000c3a80141b40b453b74b9</desc>
			<g>
				<desc>null, figure.lineshape, null</desc>
				<line x1="35.2187499999" y1="62.6249999999" x2="38.8031249999" y2="62.6249999999" stroke="rgb(0,0,0)" stroke-width="0.250000000000001" stroke-linecap="round"/>
				<path d="M 40.00755566724311,62.4597656249 A 0.1907962217712546 0.19079622177125463 0 0 1 40.00755566724311,62.790234374899995 L 38.71843609353841,63.53450790779603 A 0.2002757149077812 0.20027571490776583 0 0 1 38.44381026286406,63.262756832556896 L 38.44381026286406,63.26275683255689 A 1.2992657885979368 1.2992657885979368 0 0 0 38.44381026286406,61.98724316724311 L 38.44381026286406,61.9872431672431 A 0.2002757149077812 0.20027571490776583 0 0 1 38.71843609353841,61.71549209200396 z"/>
			</g>
		</g>
		<g class="clickEl 453facbb0000c3a80141c43d2fb4f5e2">
			<desc>released!, bpmn.bpd.event.intermediate, 45b091a80000c3a801411f0934478a48</desc>
			<g>
				<desc>null, figure.dot, null</desc>
			</g>
			<g>
				<desc>null, figure.plane, null</desc>
				<path d="M 170.1249999999,47.6249999999 A 5.0 5.0 0 0 1 175.1249999999,42.6249999999 L 175.1249999999,42.6249999999 A 5.0 5.0 0 0 1 180.1249999999,47.6249999999 L 180.1249999999,47.6249999999 A 5.0 5.0 0 0 1 175.1249999999,52.6249999999 L 175.1249999999,52.6249999999 A 5.0 5.0 0 0 1 170.1249999999,47.6249999999 z" fill="rgb(255,232,232)"/>
				<path d="M 170.1249999999,47.6249999999 A 5.0 5.0 0 0 1 175.1249999999,42.6249999999" stroke="rgb(255,255,255)" stroke-width="1.000000000000004" fill="none" stroke-linecap="round"/>
				<path d="M 175.1249999999,42.6249999999 A 5.0 5.0 0 0 1 180.1249999999,47.6249999999" stroke="rgb(255,255,255)" stroke-width="1.000000000000004" fill="none" stroke-linecap="round"/>
				<path d="M 180.1249999999,47.6249999999 A 5.0 5.0 0 0 1 175.1249999999,52.6249999999" stroke="rgb(255,255,255)" stroke-width="1.000000000000004" fill="none" stroke-linecap="round"/>
				<path d="M 175.1249999999,52.6249999999 A 5.0 5.0 0 0 1 170.1249999999,47.6249999999" stroke="rgb(255,255,255)" stroke-width="1.000000000000004" fill="none" stroke-linecap="round"/>
				<path d="M 170.6249999999,47.6249999999 A 4.499999999999998 4.499999999999998 0 0 1 175.1249999999,43.1249999999" stroke="rgb(0,0,0)" stroke-width="0.500000000000002" fill="none" stroke-linecap="round"/>
				<path d="M 169.6249999999,47.6249999999 A 5.500000000000002 5.500000000000002 0 0 1 175.1249999999,42.1249999999" stroke="rgb(0,0,0)" stroke-width="0.500000000000002" fill="none" stroke-linecap="round"/>
				<path d="M 175.1249999999,43.1249999999 A 4.499999999999998 4.499999999999998 0 0 1 179.6249999999,47.6249999999" stroke="rgb(0,0,0)" stroke-width="0.500000000000002" fill="none" stroke-linecap="round"/>
				<path d="M 175.1249999999,42.1249999999 A 5.500000000000002 5.500000000000002 0 0 1 180.6249999999,47.6249999999" stroke="rgb(0,0,0)" stroke-width="0.500000000000002" fill="none" stroke-linecap="round"/>
				<path d="M 179.6249999999,47.6249999999 A 4.499999999999998 4.499999999999998 0 0 1 175.1249999999,52.1249999999" stroke="rgb(0,0,0)" stroke-width="0.500000000000002" fill="none" stroke-linecap="round"/>
				<path d="M 180.6249999999,47.6249999999 A 5.500000000000002 5.500000000000002 0 0 1 175.1249999999,53.1249999999" stroke="rgb(0,0,0)" stroke-width="0.500000000000002" fill="none" stroke-linecap="round"/>
				<path d="M 175.1249999999,52.1249999999 A 4.499999999999998 4.499999999999998 0 0 1 170.6249999999,47.6249999999" stroke="rgb(0,0,0)" stroke-width="0.500000000000002" fill="none" stroke-linecap="round"/>
				<path d="M 175.1249999999,53.1249999999 A 5.500000000000002 5.500000000000002 0 0 1 169.6249999999,47.6249999999" stroke="rgb(0,0,0)" stroke-width="0.500000000000002" fill="none" stroke-linecap="round"/>
				<g>
					<desc>null, supplement, null</desc>
					<text x="175.1249999999" y="40.2249999999" textLength="16.68" lengthAdjust="spacingAndGlyphs" text-anchor="middle" font-family="Arial" font-size="4.0200000000000005">released!</text>
				</g>
			</g>
		</g>
		<g class="clickEl 453d34af0000c3a80141918f84641161">
			<desc>up-short!, bpmn.bpd.event.intermediate, 45b122230000c3a80141c4d004785e0d</desc>
			<g>
				<desc>null, figure.dot, null</desc>
			</g>
			<g>
				<desc>null, figure.plane, null</desc>
				<path d="M 140.1249999999,17.624999999899998 A 5.0 5.0 0 0 1 145.1249999999,12.624999999899998 L 145.1249999999,12.624999999899998 A 5.0 5.0 0 0 1 150.1249999999,17.624999999899998 L 150.1249999999,17.624999999899998 A 5.0 5.0 0 0 1 145.1249999999,22.624999999899998 L 145.1249999999,22.624999999899998 A 5.0 5.0 0 0 1 140.1249999999,17.624999999899998 z" fill="rgb(255,232,232)"/>
				<path d="M 140.1249999999,17.624999999899998 A 5.0 5.0 0 0 1 145.1249999999,12.624999999899998" stroke="rgb(255,255,255)" stroke-width="1.000000000000004" fill="none" stroke-linecap="round"/>
				<path d="M 145.1249999999,12.624999999899998 A 5.0 5.0 0 0 1 150.1249999999,17.624999999899998" stroke="rgb(255,255,255)" stroke-width="1.000000000000004" fill="none" stroke-linecap="round"/>
				<path d="M 150.1249999999,17.624999999899998 A 5.0 5.0 0 0 1 145.1249999999,22.624999999899998" stroke="rgb(255,255,255)" stroke-width="1.000000000000004" fill="none" stroke-linecap="round"/>
				<path d="M 145.1249999999,22.624999999899998 A 5.0 5.0 0 0 1 140.1249999999,17.624999999899998" stroke="rgb(255,255,255)" stroke-width="1.000000000000004" fill="none" stroke-linecap="round"/>
				<path d="M 140.6249999999,17.624999999899998 A 4.499999999999998 4.499999999999998 0 0 1 145.1249999999,13.1249999999" stroke="rgb(0,0,0)" stroke-width="0.500000000000002" fill="none" stroke-linecap="round"/>
				<path d="M 139.6249999999,17.624999999899998 A 5.500000000000002 5.500000000000002 0 0 1 145.1249999999,12.124999999899996" stroke="rgb(0,0,0)" stroke-width="0.500000000000002" fill="none" stroke-linecap="round"/>
				<path d="M 145.1249999999,13.1249999999 A 4.499999999999998 4.499999999999998 0 0 1 149.6249999999,17.624999999899998" stroke="rgb(0,0,0)" stroke-width="0.500000000000002" fill="none" stroke-linecap="round"/>
				<path d="M 145.1249999999,12.124999999899996 A 5.500000000000002 5.500000000000002 0 0 1 150.6249999999,17.624999999899998" stroke="rgb(0,0,0)" stroke-width="0.500000000000002" fill="none" stroke-linecap="round"/>
				<path d="M 149.6249999999,17.624999999899998 A 4.499999999999998 4.499999999999998 0 0 1 145.1249999999,22.124999999899998" stroke="rgb(0,0,0)" stroke-width="0.500000000000002" fill="none" stroke-linecap="round"/>
				<path d="M 150.6249999999,17.624999999899998 A 5.500000000000002 5.500000000000002 0 0 1 145.1249999999,23.124999999899998" stroke="rgb(0,0,0)" stroke-width="0.500000000000002" fill="none" stroke-linecap="round"/>
				<path d="M 145.1249999999,22.124999999899998 A 4.499999999999998 4.499999999999998 0 0 1 140.6249999999,17.624999999899998" stroke="rgb(0,0,0)" stroke-width="0.500000000000002" fill="none" stroke-linecap="round"/>
				<path d="M 145.1249999999,23.124999999899998 A 5.500000000000002 5.500000000000002 0 0 1 139.6249999999,17.624999999899998" stroke="rgb(0,0,0)" stroke-width="0.500000000000002" fill="none" stroke-linecap="round"/>
				<g>
					<desc>null, supplement, null</desc>
					<text x="145.1249999999" y="10.2249999999" textLength="16.02" lengthAdjust="spacingAndGlyphs" text-anchor="middle" font-family="Arial" font-size="4.0200000000000005">up-short!</text>
				</g>
			</g>
		</g>
		<g class="clickEl 4536b0350000c3a801415986f8ea806a">
			<desc>down-short!, bpmn.bpd.event.intermediate, 45b1821d0000c3a80141938c4104c8a2</desc>
			<g>
				<desc>null, figure.dot, null</desc>
			</g>
			<g>
				<desc>null, figure.plane, null</desc>
				<path d="M 140.1249999999,107.6249999999 A 5.0 5.0 0 0 1 145.1249999999,102.6249999999 L 145.1249999999,102.6249999999 A 5.0 5.0 0 0 1 150.1249999999,107.6249999999 L 150.1249999999,107.6249999999 A 5.0 5.0 0 0 1 145.1249999999,112.6249999999 L 145.1249999999,112.6249999999 A 5.0 5.0 0 0 1 140.1249999999,107.6249999999 z" fill="rgb(255,232,232)"/>
				<path d="M 140.1249999999,107.6249999999 A 5.0 5.0 0 0 1 145.1249999999,102.6249999999" stroke="rgb(255,255,255)" stroke-width="1.000000000000004" fill="none" stroke-linecap="round"/>
				<path d="M 145.1249999999,102.6249999999 A 5.0 5.0 0 0 1 150.1249999999,107.6249999999" stroke="rgb(255,255,255)" stroke-width="1.000000000000004" fill="none" stroke-linecap="round"/>
				<path d="M 150.1249999999,107.6249999999 A 5.0 5.0 0 0 1 145.1249999999,112.6249999999" stroke="rgb(255,255,255)" stroke-width="1.000000000000004" fill="none" stroke-linecap="round"/>
				<path d="M 145.1249999999,112.6249999999 A 5.0 5.0 0 0 1 140.1249999999,107.6249999999" stroke="rgb(255,255,255)" stroke-width="1.000000000000004" fill="none" stroke-linecap="round"/>
				<path d="M 140.6249999999,107.6249999999 A 4.499999999999998 4.499999999999998 0 0 1 145.1249999999,103.1249999999" stroke="rgb(0,0,0)" stroke-width="0.500000000000002" fill="none" stroke-linecap="round"/>
				<path d="M 139.6249999999,107.6249999999 A 5.500000000000002 5.500000000000002 0 0 1 145.1249999999,102.1249999999" stroke="rgb(0,0,0)" stroke-width="0.500000000000002" fill="none" stroke-linecap="round"/>
				<path d="M 145.1249999999,103.1249999999 A 4.499999999999998 4.499999999999998 0 0 1 149.6249999999,107.6249999999" stroke="rgb(0,0,0)" stroke-width="0.500000000000002" fill="none" stroke-linecap="round"/>
				<path d="M 145.1249999999,102.1249999999 A 5.500000000000002 5.500000000000002 0 0 1 150.6249999999,107.6249999999" stroke="rgb(0,0,0)" stroke-width="0.500000000000002" fill="none" stroke-linecap="round"/>
				<path d="M 149.6249999999,107.6249999999 A 4.499999999999998 4.499999999999998 0 0 1 145.1249999999,112.1249999999" stroke="rgb(0,0,0)" stroke-width="0.500000000000002" fill="none" stroke-linecap="round"/>
				<path d="M 150.6249999999,107.6249999999 A 5.500000000000002 5.500000000000002 0 0 1 145.1249999999,113.1249999999" stroke="rgb(0,0,0)" stroke-width="0.500000000000002" fill="none" stroke-linecap="round"/>
				<path d="M 145.1249999999,112.1249999999 A 4.499999999999998 4.499999999999998 0 0 1 140.6249999999,107.6249999999" stroke="rgb(0,0,0)" stroke-width="0.500000000000002" fill="none" stroke-linecap="round"/>
				<path d="M 145.1249999999,113.1249999999 A 5.500000000000002 5.500000000000002 0 0 1 139.6249999999,107.6249999999" stroke="rgb(0,0,0)" stroke-width="0.500000000000002" fill="none" stroke-linecap="round"/>
				<g>
					<desc>null, supplement, null</desc>
					<text x="145.1249999999" y="100.22499999989999" textLength="21.06" lengthAdjust="spacingAndGlyphs" text-anchor="middle" font-family="Arial" font-size="4.0200000000000005">down-short!</text>
				</g>
			</g>
		</g>
		<g class="clickEl 45a236e00000c3a801410f6503287e16">
			<desc>Wait for Activation, bpmn.bpd.activity, 460a7e600000c3a801414a62dfb12fd8</desc>
			<g>
				<desc>null, figure.plane, null</desc>
				<path d=" M 40.1249999999,70.1249999999 L 70.1249999999,70.1249999999 L 70.1249999999,55.1249999999 L 40.1249999999,55.1249999999 z" fill="rgb(255,255,255)"/>
				<line x1="40.1249999999" y1="70.1249999999" x2="70.1249999999" y2="70.1249999999" stroke="rgb(0,0,0)" stroke-width="0.500000000000002" stroke-linecap="round"/>
				<line x1="70.1249999999" y1="70.1249999999" x2="70.1249999999" y2="55.1249999999" stroke="rgb(0,0,0)" stroke-width="0.500000000000002" stroke-linecap="round"/>
				<line x1="70.1249999999" y1="55.1249999999" x2="40.1249999999" y2="55.1249999999" stroke="rgb(0,0,0)" stroke-width="0.500000000000002" stroke-linecap="round"/>
				<line x1="40.1249999999" y1="55.1249999999" x2="40.1249999999" y2="70.1249999999" stroke="rgb(0,0,0)" stroke-width="0.500000000000002" stroke-linecap="round"/>
				<g>
					<desc>null, supplement, null</desc>
					<text x="55.1249999999" y="61.7249999999" textLength="14.040000000000001" lengthAdjust="spacingAndGlyphs" text-anchor="middle" font-family="Arial" font-size="4.0200000000000005">Wait for</text>
					<text x="55.1249999999" y="66.2249999999" textLength="17.46" lengthAdjust="spacingAndGlyphs" text-anchor="middle" font-family="Arial" font-size="4.0200000000000005">Activation</text>
				</g>
			</g>
		</g>
		<g class="clickEl 45a3b13c0000c3a801415e97f5bc29d1">
			<desc>Wait for Deactivation, bpmn.bpd.activity, 460b2bbe0000c3a80141eabce85d2f9d</desc>
			<g>
				<desc>null, figure.plane, null</desc>
				<path d=" M 130.1249999999,55.1249999999 L 160.1249999999,55.1249999999 L 160.1249999999,40.1249999999 L 130.1249999999,40.1249999999 z" fill="rgb(255,255,255)"/>
				<line x1="130.1249999999" y1="55.1249999999" x2="160.1249999999" y2="55.1249999999" stroke="rgb(0,0,0)" stroke-width="0.500000000000002" stroke-linecap="round"/>
				<line x1="160.1249999999" y1="55.1249999999" x2="160.1249999999" y2="40.1249999999" stroke="rgb(0,0,0)" stroke-width="0.500000000000002" stroke-linecap="round"/>
				<line x1="160.1249999999" y1="40.1249999999" x2="130.1249999999" y2="40.1249999999" stroke="rgb(0,0,0)" stroke-width="0.500000000000002" stroke-linecap="round"/>
				<line x1="130.1249999999" y1="40.1249999999" x2="130.1249999999" y2="55.1249999999" stroke="rgb(0,0,0)" stroke-width="0.500000000000002" stroke-linecap="round"/>
				<g>
					<desc>null, supplement, null</desc>
					<text x="145.1249999999" y="46.7249999999" textLength="14.040000000000001" lengthAdjust="spacingAndGlyphs" text-anchor="middle" font-family="Arial" font-size="4.0200000000000005">Wait for</text>
					<text x="145.1249999999" y="51.2249999999" textLength="22.08" lengthAdjust="spacingAndGlyphs" text-anchor="middle" font-family="Arial" font-size="4.0200000000000005">Deactivation</text>
				</g>
			</g>
		</g>
		<g class="clickEl 45a3b13c0000c3a801415e97f5bc29d1">
			<desc>Wait for Deactivation, bpmn.bpd.activity, 460b6f620000c3a80141b3268ed4fa2d</desc>
			<g>
				<desc>null, figure.plane, null</desc>
				<path d=" M 130.1249999999,85.1249999999 L 160.1249999999,85.1249999999 L 160.1249999999,70.1249999999 L 130.1249999999,70.1249999999 z" fill="rgb(255,255,255)"/>
				<line x1="130.1249999999" y1="85.1249999999" x2="160.1249999999" y2="85.1249999999" stroke="rgb(0,0,0)" stroke-width="0.500000000000002" stroke-linecap="round"/>
				<line x1="160.1249999999" y1="85.1249999999" x2="160.1249999999" y2="70.1249999999" stroke="rgb(0,0,0)" stroke-width="0.500000000000002" stroke-linecap="round"/>
				<line x1="160.1249999999" y1="70.1249999999" x2="130.1249999999" y2="70.1249999999" stroke="rgb(0,0,0)" stroke-width="0.500000000000002" stroke-linecap="round"/>
				<line x1="130.1249999999" y1="70.1249999999" x2="130.1249999999" y2="85.1249999999" stroke="rgb(0,0,0)" stroke-width="0.500000000000002" stroke-linecap="round"/>
				<g>
					<desc>null, supplement, null</desc>
					<text x="145.1249999999" y="76.72499999989999" textLength="14.040000000000001" lengthAdjust="spacingAndGlyphs" text-anchor="middle" font-family="Arial" font-size="4.0200000000000005">Wait for</text>
					<text x="145.1249999999" y="81.22499999989999" textLength="22.08" lengthAdjust="spacingAndGlyphs" text-anchor="middle" font-family="Arial" font-size="4.0200000000000005">Deactivation</text>
				</g>
			</g>
		</g>
	</g>
</svg>
