<?xml version="1.0" encoding="UTF-8"?>
<svg width="225.24999999980002mm" height="135.24999999980002mm" viewBox="0.0 0.0 225.24999999980002 135.24999999980002" xmlns="http://www.w3.org/2000/svg" xmlns:xlink="http://www.w3.org/1999/xlink" xmlns:ev="http://www.w3.org/2001/xml-events" version="1.1">
	<g class="diagram" id="5af364560000bca80137b84017f4e832" >
		<desc>Dimmer Controller Software, fmc.pn, 5af364560000bca80137b84017f4e832</desc>
		<g class="clickEl 5a85347c0000bca80137ad485c7cd330">
			<desc>Dimmer Controller Software, fmc.pn.competency, 5b4a5aba0000bca801378f02c693bb4c</desc>
			<g>
				<desc>null, figure.plane, null</desc>
				<path d=" M 0.12499999990000177,135.1249999999 L 225.1249999999,135.1249999999 L 225.1249999999,0.12499999989999822 L 0.12499999990000177,0.12499999989999822 z" fill="rgb(255,255,204)"/>
				<line x1="0.12499999990000177" y1="135.1249999999" x2="2.3785211266605653" y2="135.1249999999" stroke="rgb(0,0,0)" stroke-width="0.250000000000002" stroke-linecap="round"/>
				<line x1="3.5052816900408468" y1="135.1249999999" x2="5.75880281680141" y2="135.1249999999" stroke="rgb(0,0,0)" stroke-width="0.250000000000002" stroke-linecap="round"/>
				<line x1="6.885563380181692" y1="135.1249999999" x2="9.139084506942256" y2="135.1249999999" stroke="rgb(0,0,0)" stroke-width="0.250000000000002" stroke-linecap="round"/>
				<line x1="10.265845070322538" y1="135.1249999999" x2="12.519366197083102" y2="135.1249999999" stroke="rgb(0,0,0)" stroke-width="0.250000000000002" stroke-linecap="round"/>
				<line x1="13.646126760463384" y1="135.1249999999" x2="15.899647887223948" y2="135.1249999999" stroke="rgb(0,0,0)" stroke-width="0.250000000000002" stroke-linecap="round"/>
				<line x1="17.02640845060423" y1="135.1249999999" x2="19.279929577364793" y2="135.1249999999" stroke="rgb(0,0,0)" stroke-width="0.250000000000002" stroke-linecap="round"/>
				<line x1="20.406690140745074" y1="135.1249999999" x2="22.660211267505638" y2="135.1249999999" stroke="rgb(0,0,0)" stroke-width="0.250000000000002" stroke-linecap="round"/>
				<line x1="23.786971830885918" y1="135.1249999999" x2="26.04049295764648" y2="135.1249999999" stroke="rgb(0,0,0)" stroke-width="0.250000000000002" stroke-linecap="round"/>
				<line x1="27.167253521026762" y1="135.1249999999" x2="29.420774647787326" y2="135.1249999999" stroke="rgb(0,0,0)" stroke-width="0.250000000000002" stroke-linecap="round"/>
				<line x1="30.547535211167606" y1="135.1249999999" x2="32.801056337928166" y2="135.1249999999" stroke="rgb(0,0,0)" stroke-width="0.250000000000002" stroke-linecap="round"/>
				<line x1="33.92781690130845" y1="135.1249999999" x2="36.18133802806901" y2="135.1249999999" stroke="rgb(0,0,0)" stroke-width="0.250000000000002" stroke-linecap="round"/>
				<line x1="37.30809859144929" y1="135.1249999999" x2="39.56161971820985" y2="135.1249999999" stroke="rgb(0,0,0)" stroke-width="0.250000000000002" stroke-linecap="round"/>
				<line x1="40.68838028159013" y1="135.1249999999" x2="42.94190140835069" y2="135.1249999999" stroke="rgb(0,0,0)" stroke-width="0.250000000000002" stroke-linecap="round"/>
				<line x1="44.06866197173097" y1="135.1249999999" x2="46.32218309849153" y2="135.1249999999" stroke="rgb(0,0,0)" stroke-width="0.250000000000002" stroke-linecap="round"/>
				<line x1="47.44894366187181" y1="135.1249999999" x2="49.70246478863237" y2="135.1249999999" stroke="rgb(0,0,0)" stroke-width="0.250000000000002" stroke-linecap="round"/>
				<line x1="50.82922535201265" y1="135.1249999999" x2="53.08274647877321" y2="135.1249999999" stroke="rgb(0,0,0)" stroke-width="0.250000000000002" stroke-linecap="round"/>
				<line x1="54.20950704215349" y1="135.1249999999" x2="56.46302816891405" y2="135.1249999999" stroke="rgb(0,0,0)" stroke-width="0.250000000000002" stroke-linecap="round"/>
				<line x1="57.58978873229433" y1="135.1249999999" x2="59.84330985905489" y2="135.1249999999" stroke="rgb(0,0,0)" stroke-width="0.250000000000002" stroke-linecap="round"/>
				<line x1="60.97007042243517" y1="135.1249999999" x2="63.22359154919573" y2="135.1249999999" stroke="rgb(0,0,0)" stroke-width="0.250000000000002" stroke-linecap="round"/>
				<line x1="64.35035211257602" y1="135.1249999999" x2="66.60387323933658" y2="135.1249999999" stroke="rgb(0,0,0)" stroke-width="0.250000000000002" stroke-linecap="round"/>
				<line x1="67.73063380271687" y1="135.1249999999" x2="69.98415492947743" y2="135.1249999999" stroke="rgb(0,0,0)" stroke-width="0.250000000000002" stroke-linecap="round"/>
				<line x1="71.11091549285771" y1="135.1249999999" x2="73.36443661961827" y2="135.1249999999" stroke="rgb(0,0,0)" stroke-width="0.250000000000002" stroke-linecap="round"/>
				<line x1="74.49119718299856" y1="135.1249999999" x2="76.74471830975912" y2="135.1249999999" stroke="rgb(0,0,0)" stroke-width="0.250000000000002" stroke-linecap="round"/>
				<line x1="77.87147887313941" y1="135.1249999999" x2="80.12499999989997" y2="135.1249999999" stroke="rgb(0,0,0)" stroke-width="0.250000000000002" stroke-linecap="round"/>
				<line x1="81.25176056328026" y1="135.1249999999" x2="83.50528169004082" y2="135.1249999999" stroke="rgb(0,0,0)" stroke-width="0.250000000000002" stroke-linecap="round"/>
				<line x1="84.6320422534211" y1="135.1249999999" x2="86.88556338018167" y2="135.1249999999" stroke="rgb(0,0,0)" stroke-width="0.250000000000002" stroke-linecap="round"/>
				<line x1="88.01232394356195" y1="135.1249999999" x2="90.26584507032251" y2="135.1249999999" stroke="rgb(0,0,0)" stroke-width="0.250000000000002" stroke-linecap="round"/>
				<line x1="91.3926056337028" y1="135.1249999999" x2="93.64612676046336" y2="135.1249999999" stroke="rgb(0,0,0)" stroke-width="0.250000000000002" stroke-linecap="round"/>
				<line x1="94.77288732384365" y1="135.1249999999" x2="97.02640845060421" y2="135.1249999999" stroke="rgb(0,0,0)" stroke-width="0.250000000000002" stroke-linecap="round"/>
				<line x1="98.1531690139845" y1="135.1249999999" x2="100.40669014074506" y2="135.1249999999" stroke="rgb(0,0,0)" stroke-width="0.250000000000002" stroke-linecap="round"/>
				<line x1="101.53345070412534" y1="135.1249999999" x2="103.7869718308859" y2="135.1249999999" stroke="rgb(0,0,0)" stroke-width="0.250000000000002" stroke-linecap="round"/>
				<line x1="104.91373239426619" y1="135.1249999999" x2="107.16725352102675" y2="135.1249999999" stroke="rgb(0,0,0)" stroke-width="0.250000000000002" stroke-linecap="round"/>
				<line x1="108.29401408440704" y1="135.1249999999" x2="110.5475352111676" y2="135.1249999999" stroke="rgb(0,0,0)" stroke-width="0.250000000000002" stroke-linecap="round"/>
				<line x1="111.67429577454789" y1="135.1249999999" x2="113.92781690130845" y2="135.1249999999" stroke="rgb(0,0,0)" stroke-width="0.250000000000002" stroke-linecap="round"/>
				<line x1="115.05457746468873" y1="135.1249999999" x2="117.3080985914493" y2="135.1249999999" stroke="rgb(0,0,0)" stroke-width="0.250000000000002" stroke-linecap="round"/>
				<line x1="118.43485915482958" y1="135.1249999999" x2="120.68838028159014" y2="135.1249999999" stroke="rgb(0,0,0)" stroke-width="0.250000000000002" stroke-linecap="round"/>
				<line x1="121.81514084497043" y1="135.1249999999" x2="124.06866197173099" y2="135.1249999999" stroke="rgb(0,0,0)" stroke-width="0.250000000000002" stroke-linecap="round"/>
				<line x1="125.19542253511128" y1="135.1249999999" x2="127.44894366187184" y2="135.1249999999" stroke="rgb(0,0,0)" stroke-width="0.250000000000002" stroke-linecap="round"/>
				<line x1="128.5757042252521" y1="135.1249999999" x2="130.82922535201268" y2="135.1249999999" stroke="rgb(0,0,0)" stroke-width="0.250000000000002" stroke-linecap="round"/>
				<line x1="131.95598591539297" y1="135.1249999999" x2="134.20950704215355" y2="135.1249999999" stroke="rgb(0,0,0)" stroke-width="0.250000000000002" stroke-linecap="round"/>
				<line x1="135.33626760553383" y1="135.1249999999" x2="137.5897887322944" y2="135.1249999999" stroke="rgb(0,0,0)" stroke-width="0.250000000000002" stroke-linecap="round"/>
				<line x1="138.7165492956747" y1="135.1249999999" x2="140.97007042243527" y2="135.1249999999" stroke="rgb(0,0,0)" stroke-width="0.250000000000002" stroke-linecap="round"/>
				<line x1="142.09683098581556" y1="135.1249999999" x2="144.35035211257613" y2="135.1249999999" stroke="rgb(0,0,0)" stroke-width="0.250000000000002" stroke-linecap="round"/>
				<line x1="145.47711267595642" y1="135.1249999999" x2="147.730633802717" y2="135.1249999999" stroke="rgb(0,0,0)" stroke-width="0.250000000000002" stroke-linecap="round"/>
				<line x1="148.85739436609728" y1="135.1249999999" x2="151.11091549285786" y2="135.1249999999" stroke="rgb(0,0,0)" stroke-width="0.250000000000002" stroke-linecap="round"/>
				<line x1="152.23767605623814" y1="135.1249999999" x2="154.49119718299872" y2="135.1249999999" stroke="rgb(0,0,0)" stroke-width="0.250000000000002" stroke-linecap="round"/>
				<line x1="155.617957746379" y1="135.1249999999" x2="157.87147887313958" y2="135.1249999999" stroke="rgb(0,0,0)" stroke-width="0.250000000000002" stroke-linecap="round"/>
				<line x1="158.99823943651987" y1="135.1249999999" x2="161.25176056328044" y2="135.1249999999" stroke="rgb(0,0,0)" stroke-width="0.250000000000002" stroke-linecap="round"/>
				<line x1="162.37852112666073" y1="135.1249999999" x2="164.6320422534213" y2="135.1249999999" stroke="rgb(0,0,0)" stroke-width="0.250000000000002" stroke-linecap="round"/>
				<line x1="165.7588028168016" y1="135.1249999999" x2="168.01232394356217" y2="135.1249999999" stroke="rgb(0,0,0)" stroke-width="0.250000000000002" stroke-linecap="round"/>
				<line x1="169.13908450694245" y1="135.1249999999" x2="171.39260563370303" y2="135.1249999999" stroke="rgb(0,0,0)" stroke-width="0.250000000000002" stroke-linecap="round"/>
				<line x1="172.51936619708331" y1="135.1249999999" x2="174.7728873238439" y2="135.1249999999" stroke="rgb(0,0,0)" stroke-width="0.250000000000002" stroke-linecap="round"/>
				<line x1="175.89964788722418" y1="135.1249999999" x2="178.15316901398475" y2="135.1249999999" stroke="rgb(0,0,0)" stroke-width="0.250000000000002" stroke-linecap="round"/>
				<line x1="179.27992957736504" y1="135.1249999999" x2="181.5334507041256" y2="135.1249999999" stroke="rgb(0,0,0)" stroke-width="0.250000000000002" stroke-linecap="round"/>
				<line x1="182.6602112675059" y1="135.1249999999" x2="184.91373239426648" y2="135.1249999999" stroke="rgb(0,0,0)" stroke-width="0.250000000000002" stroke-linecap="round"/>
				<line x1="186.04049295764676" y1="135.1249999999" x2="188.29401408440734" y2="135.1249999999" stroke="rgb(0,0,0)" stroke-width="0.250000000000002" stroke-linecap="round"/>
				<line x1="189.42077464778762" y1="135.1249999999" x2="191.6742957745482" y2="135.1249999999" stroke="rgb(0,0,0)" stroke-width="0.250000000000002" stroke-linecap="round"/>
				<line x1="192.8010563379285" y1="135.1249999999" x2="195.05457746468906" y2="135.1249999999" stroke="rgb(0,0,0)" stroke-width="0.250000000000002" stroke-linecap="round"/>
				<line x1="196.18133802806935" y1="135.1249999999" x2="198.43485915482992" y2="135.1249999999" stroke="rgb(0,0,0)" stroke-width="0.250000000000002" stroke-linecap="round"/>
				<line x1="199.5616197182102" y1="135.1249999999" x2="201.81514084497078" y2="135.1249999999" stroke="rgb(0,0,0)" stroke-width="0.250000000000002" stroke-linecap="round"/>
				<line x1="202.94190140835107" y1="135.1249999999" x2="205.19542253511165" y2="135.1249999999" stroke="rgb(0,0,0)" stroke-width="0.250000000000002" stroke-linecap="round"/>
				<line x1="206.32218309849193" y1="135.1249999999" x2="208.5757042252525" y2="135.1249999999" stroke="rgb(0,0,0)" stroke-width="0.250000000000002" stroke-linecap="round"/>
				<line x1="209.7024647886328" y1="135.1249999999" x2="211.95598591539337" y2="135.1249999999" stroke="rgb(0,0,0)" stroke-width="0.250000000000002" stroke-linecap="round"/>
				<line x1="213.08274647877366" y1="135.1249999999" x2="215.33626760553423" y2="135.1249999999" stroke="rgb(0,0,0)" stroke-width="0.250000000000002" stroke-linecap="round"/>
				<line x1="216.46302816891452" y1="135.1249999999" x2="218.7165492956751" y2="135.1249999999" stroke="rgb(0,0,0)" stroke-width="0.250000000000002" stroke-linecap="round"/>
				<line x1="219.84330985905538" y1="135.1249999999" x2="222.09683098581596" y2="135.1249999999" stroke="rgb(0,0,0)" stroke-width="0.250000000000002" stroke-linecap="round"/>
				<line x1="223.22359154919624" y1="135.1249999999" x2="225.12499999989998" y2="135.1249999999" stroke="rgb(0,0,0)" stroke-width="0.250000000000002" stroke-linecap="round"/>
				<line x1="225.1249999999" y1="135.1249999999" x2="225.1249999999" y2="134.77288732384366" stroke="rgb(0,0,0)" stroke-width="0.250000000000002" stroke-linecap="round"/>
				<line x1="225.1249999999" y1="133.64612676046337" x2="225.1249999999" y2="131.3926056337028" stroke="rgb(0,0,0)" stroke-width="0.250000000000002" stroke-linecap="round"/>
				<line x1="225.1249999999" y1="130.2658450703225" x2="225.1249999999" y2="128.01232394356194" stroke="rgb(0,0,0)" stroke-width="0.250000000000002" stroke-linecap="round"/>
				<line x1="225.1249999999" y1="126.88556338018165" x2="225.1249999999" y2="124.63204225342109" stroke="rgb(0,0,0)" stroke-width="0.250000000000002" stroke-linecap="round"/>
				<line x1="225.1249999999" y1="123.5052816900408" x2="225.1249999999" y2="121.25176056328024" stroke="rgb(0,0,0)" stroke-width="0.250000000000002" stroke-linecap="round"/>
				<line x1="225.1249999999" y1="120.12499999989996" x2="225.1249999999" y2="117.8714788731394" stroke="rgb(0,0,0)" stroke-width="0.250000000000002" stroke-linecap="round"/>
				<line x1="225.1249999999" y1="116.74471830975911" x2="225.1249999999" y2="114.49119718299855" stroke="rgb(0,0,0)" stroke-width="0.250000000000002" stroke-linecap="round"/>
				<line x1="225.1249999999" y1="113.36443661961826" x2="225.1249999999" y2="111.1109154928577" stroke="rgb(0,0,0)" stroke-width="0.250000000000002" stroke-linecap="round"/>
				<line x1="225.1249999999" y1="109.98415492947741" x2="225.1249999999" y2="107.73063380271685" stroke="rgb(0,0,0)" stroke-width="0.250000000000002" stroke-linecap="round"/>
				<line x1="225.1249999999" y1="106.60387323933656" x2="225.1249999999" y2="104.350352112576" stroke="rgb(0,0,0)" stroke-width="0.250000000000002" stroke-linecap="round"/>
				<line x1="225.1249999999" y1="103.22359154919572" x2="225.1249999999" y2="100.97007042243516" stroke="rgb(0,0,0)" stroke-width="0.250000000000002" stroke-linecap="round"/>
				<line x1="225.1249999999" y1="99.84330985905487" x2="225.1249999999" y2="97.58978873229431" stroke="rgb(0,0,0)" stroke-width="0.250000000000002" stroke-linecap="round"/>
				<line x1="225.1249999999" y1="96.46302816891402" x2="225.1249999999" y2="94.20950704215346" stroke="rgb(0,0,0)" stroke-width="0.250000000000002" stroke-linecap="round"/>
				<line x1="225.1249999999" y1="93.08274647877317" x2="225.1249999999" y2="90.82922535201261" stroke="rgb(0,0,0)" stroke-width="0.250000000000002" stroke-linecap="round"/>
				<line x1="225.1249999999" y1="89.70246478863233" x2="225.1249999999" y2="87.44894366187177" stroke="rgb(0,0,0)" stroke-width="0.250000000000002" stroke-linecap="round"/>
				<line x1="225.1249999999" y1="86.32218309849148" x2="225.1249999999" y2="84.06866197173092" stroke="rgb(0,0,0)" stroke-width="0.250000000000002" stroke-linecap="round"/>
				<line x1="225.1249999999" y1="82.94190140835063" x2="225.1249999999" y2="80.68838028159007" stroke="rgb(0,0,0)" stroke-width="0.250000000000002" stroke-linecap="round"/>
				<line x1="225.1249999999" y1="79.56161971820978" x2="225.1249999999" y2="77.30809859144922" stroke="rgb(0,0,0)" stroke-width="0.250000000000002" stroke-linecap="round"/>
				<line x1="225.1249999999" y1="76.18133802806894" x2="225.1249999999" y2="73.92781690130838" stroke="rgb(0,0,0)" stroke-width="0.250000000000002" stroke-linecap="round"/>
				<line x1="225.1249999999" y1="72.80105633792809" x2="225.1249999999" y2="70.54753521116753" stroke="rgb(0,0,0)" stroke-width="0.250000000000002" stroke-linecap="round"/>
				<line x1="225.1249999999" y1="69.42077464778724" x2="225.1249999999" y2="67.16725352102668" stroke="rgb(0,0,0)" stroke-width="0.250000000000002" stroke-linecap="round"/>
				<line x1="225.1249999999" y1="66.04049295764639" x2="225.1249999999" y2="63.78697183088583" stroke="rgb(0,0,0)" stroke-width="0.250000000000002" stroke-linecap="round"/>
				<line x1="225.1249999999" y1="62.66021126750555" x2="225.1249999999" y2="60.40669014074499" stroke="rgb(0,0,0)" stroke-width="0.250000000000002" stroke-linecap="round"/>
				<line x1="225.1249999999" y1="59.27992957736471" x2="225.1249999999" y2="57.02640845060415" stroke="rgb(0,0,0)" stroke-width="0.250000000000002" stroke-linecap="round"/>
				<line x1="225.1249999999" y1="55.89964788722387" x2="225.1249999999" y2="53.64612676046331" stroke="rgb(0,0,0)" stroke-width="0.250000000000002" stroke-linecap="round"/>
				<line x1="225.1249999999" y1="52.51936619708303" x2="225.1249999999" y2="50.26584507032247" stroke="rgb(0,0,0)" stroke-width="0.250000000000002" stroke-linecap="round"/>
				<line x1="225.1249999999" y1="49.13908450694219" x2="225.1249999999" y2="46.88556338018163" stroke="rgb(0,0,0)" stroke-width="0.250000000000002" stroke-linecap="round"/>
				<line x1="225.1249999999" y1="45.75880281680135" x2="225.1249999999" y2="43.50528169004079" stroke="rgb(0,0,0)" stroke-width="0.250000000000002" stroke-linecap="round"/>
				<line x1="225.1249999999" y1="42.37852112666051" x2="225.1249999999" y2="40.12499999989995" stroke="rgb(0,0,0)" stroke-width="0.250000000000002" stroke-linecap="round"/>
				<line x1="225.1249999999" y1="38.99823943651967" x2="225.1249999999" y2="36.74471830975911" stroke="rgb(0,0,0)" stroke-width="0.250000000000002" stroke-linecap="round"/>
				<line x1="225.1249999999" y1="35.61795774637883" x2="225.1249999999" y2="33.36443661961827" stroke="rgb(0,0,0)" stroke-width="0.250000000000002" stroke-linecap="round"/>
				<line x1="225.1249999999" y1="32.23767605623799" x2="225.1249999999" y2="29.984154929477423" stroke="rgb(0,0,0)" stroke-width="0.250000000000002" stroke-linecap="round"/>
				<line x1="225.1249999999" y1="28.857394366097143" x2="225.1249999999" y2="26.60387323933658" stroke="rgb(0,0,0)" stroke-width="0.250000000000002" stroke-linecap="round"/>
				<line x1="225.1249999999" y1="25.4771126759563" x2="225.1249999999" y2="23.223591549195735" stroke="rgb(0,0,0)" stroke-width="0.250000000000002" stroke-linecap="round"/>
				<line x1="225.1249999999" y1="22.096830985815455" x2="225.1249999999" y2="19.84330985905489" stroke="rgb(0,0,0)" stroke-width="0.250000000000002" stroke-linecap="round"/>
				<line x1="225.1249999999" y1="18.71654929567461" x2="225.1249999999" y2="16.463028168914047" stroke="rgb(0,0,0)" stroke-width="0.250000000000002" stroke-linecap="round"/>
				<line x1="225.1249999999" y1="15.336267605533765" x2="225.1249999999" y2="13.0827464787732" stroke="rgb(0,0,0)" stroke-width="0.250000000000002" stroke-linecap="round"/>
				<line x1="225.1249999999" y1="11.955985915392919" x2="225.1249999999" y2="9.702464788632355" stroke="rgb(0,0,0)" stroke-width="0.250000000000002" stroke-linecap="round"/>
				<line x1="225.1249999999" y1="8.575704225252073" x2="225.1249999999" y2="6.322183098491509" stroke="rgb(0,0,0)" stroke-width="0.250000000000002" stroke-linecap="round"/>
				<line x1="225.1249999999" y1="5.195422535111227" x2="225.1249999999" y2="2.9419014083506636" stroke="rgb(0,0,0)" stroke-width="0.250000000000002" stroke-linecap="round"/>
				<line x1="225.1249999999" y1="1.8151408449703819" x2="225.1249999999" y2="0.12499999989999822" stroke="rgb(0,0,0)" stroke-width="0.250000000000002" stroke-linecap="round"/>
				<line x1="225.1249999999" y1="0.12499999989999822" x2="224.56161971820987" y2="0.12499999989999822" stroke="rgb(0,0,0)" stroke-width="0.250000000000002" stroke-linecap="round"/>
				<line x1="223.43485915482958" y1="0.12499999989999822" x2="221.181338028069" y2="0.12499999989999822" stroke="rgb(0,0,0)" stroke-width="0.250000000000002" stroke-linecap="round"/>
				<line x1="220.05457746468872" y1="0.12499999989999822" x2="217.80105633792815" y2="0.12499999989999822" stroke="rgb(0,0,0)" stroke-width="0.250000000000002" stroke-linecap="round"/>
				<line x1="216.67429577454786" y1="0.12499999989999822" x2="214.42077464778728" y2="0.12499999989999822" stroke="rgb(0,0,0)" stroke-width="0.250000000000002" stroke-linecap="round"/>
				<line x1="213.294014084407" y1="0.12499999989999822" x2="211.04049295764642" y2="0.12499999989999822" stroke="rgb(0,0,0)" stroke-width="0.250000000000002" stroke-linecap="round"/>
				<line x1="209.91373239426613" y1="0.12499999989999822" x2="207.66021126750556" y2="0.12499999989999822" stroke="rgb(0,0,0)" stroke-width="0.250000000000002" stroke-linecap="round"/>
				<line x1="206.53345070412527" y1="0.12499999989999822" x2="204.2799295773647" y2="0.12499999989999822" stroke="rgb(0,0,0)" stroke-width="0.250000000000002" stroke-linecap="round"/>
				<line x1="203.1531690139844" y1="0.12499999989999822" x2="200.89964788722384" y2="0.12499999989999822" stroke="rgb(0,0,0)" stroke-width="0.250000000000002" stroke-linecap="round"/>
				<line x1="199.77288732384355" y1="0.12499999989999822" x2="197.51936619708297" y2="0.12499999989999822" stroke="rgb(0,0,0)" stroke-width="0.250000000000002" stroke-linecap="round"/>
				<line x1="196.3926056337027" y1="0.12499999989999822" x2="194.1390845069421" y2="0.12499999989999822" stroke="rgb(0,0,0)" stroke-width="0.250000000000002" stroke-linecap="round"/>
				<line x1="193.01232394356182" y1="0.12499999989999822" x2="190.75880281680125" y2="0.12499999989999822" stroke="rgb(0,0,0)" stroke-width="0.250000000000002" stroke-linecap="round"/>
				<line x1="189.63204225342096" y1="0.12499999989999822" x2="187.3785211266604" y2="0.12499999989999822" stroke="rgb(0,0,0)" stroke-width="0.250000000000002" stroke-linecap="round"/>
				<line x1="186.2517605632801" y1="0.12499999989999822" x2="183.99823943651953" y2="0.12499999989999822" stroke="rgb(0,0,0)" stroke-width="0.250000000000002" stroke-linecap="round"/>
				<line x1="182.87147887313924" y1="0.12499999989999822" x2="180.61795774637866" y2="0.12499999989999822" stroke="rgb(0,0,0)" stroke-width="0.250000000000002" stroke-linecap="round"/>
				<line x1="179.49119718299838" y1="0.12499999989999822" x2="177.2376760562378" y2="0.12499999989999822" stroke="rgb(0,0,0)" stroke-width="0.250000000000002" stroke-linecap="round"/>
				<line x1="176.11091549285752" y1="0.12499999989999822" x2="173.85739436609694" y2="0.12499999989999822" stroke="rgb(0,0,0)" stroke-width="0.250000000000002" stroke-linecap="round"/>
				<line x1="172.73063380271665" y1="0.12499999989999822" x2="170.47711267595608" y2="0.12499999989999822" stroke="rgb(0,0,0)" stroke-width="0.250000000000002" stroke-linecap="round"/>
				<line x1="169.3503521125758" y1="0.12499999989999822" x2="167.09683098581522" y2="0.12499999989999822" stroke="rgb(0,0,0)" stroke-width="0.250000000000002" stroke-linecap="round"/>
				<line x1="165.97007042243493" y1="0.12499999989999822" x2="163.71654929567435" y2="0.12499999989999822" stroke="rgb(0,0,0)" stroke-width="0.250000000000002" stroke-linecap="round"/>
				<line x1="162.58978873229407" y1="0.12499999989999822" x2="160.3362676055335" y2="0.12499999989999822" stroke="rgb(0,0,0)" stroke-width="0.250000000000002" stroke-linecap="round"/>
				<line x1="159.2095070421532" y1="0.12499999989999822" x2="156.95598591539263" y2="0.12499999989999822" stroke="rgb(0,0,0)" stroke-width="0.250000000000002" stroke-linecap="round"/>
				<line x1="155.82922535201234" y1="0.12499999989999822" x2="153.57570422525177" y2="0.12499999989999822" stroke="rgb(0,0,0)" stroke-width="0.250000000000002" stroke-linecap="round"/>
				<line x1="152.44894366187148" y1="0.12499999989999822" x2="150.1954225351109" y2="0.12499999989999822" stroke="rgb(0,0,0)" stroke-width="0.250000000000002" stroke-linecap="round"/>
				<line x1="149.06866197173062" y1="0.12499999989999822" x2="146.81514084497005" y2="0.12499999989999822" stroke="rgb(0,0,0)" stroke-width="0.250000000000002" stroke-linecap="round"/>
				<line x1="145.68838028158976" y1="0.12499999989999822" x2="143.43485915482918" y2="0.12499999989999822" stroke="rgb(0,0,0)" stroke-width="0.250000000000002" stroke-linecap="round"/>
				<line x1="142.3080985914489" y1="0.12499999989999822" x2="140.05457746468832" y2="0.12499999989999822" stroke="rgb(0,0,0)" stroke-width="0.250000000000002" stroke-linecap="round"/>
				<line x1="138.92781690130803" y1="0.12499999989999822" x2="136.67429577454746" y2="0.12499999989999822" stroke="rgb(0,0,0)" stroke-width="0.250000000000002" stroke-linecap="round"/>
				<line x1="135.54753521116717" y1="0.12499999989999822" x2="133.2940140844066" y2="0.12499999989999822" stroke="rgb(0,0,0)" stroke-width="0.250000000000002" stroke-linecap="round"/>
				<line x1="132.1672535210263" y1="0.12499999989999822" x2="129.91373239426574" y2="0.12499999989999822" stroke="rgb(0,0,0)" stroke-width="0.250000000000002" stroke-linecap="round"/>
				<line x1="128.78697183088545" y1="0.12499999989999822" x2="126.53345070412489" y2="0.12499999989999822" stroke="rgb(0,0,0)" stroke-width="0.250000000000002" stroke-linecap="round"/>
				<line x1="125.4066901407446" y1="0.12499999989999822" x2="123.15316901398404" y2="0.12499999989999822" stroke="rgb(0,0,0)" stroke-width="0.250000000000002" stroke-linecap="round"/>
				<line x1="122.02640845060375" y1="0.12499999989999822" x2="119.7728873238432" y2="0.12499999989999822" stroke="rgb(0,0,0)" stroke-width="0.250000000000002" stroke-linecap="round"/>
				<line x1="118.6461267604629" y1="0.12499999989999822" x2="116.39260563370235" y2="0.12499999989999822" stroke="rgb(0,0,0)" stroke-width="0.250000000000002" stroke-linecap="round"/>
				<line x1="115.26584507032206" y1="0.12499999989999822" x2="113.0123239435615" y2="0.12499999989999822" stroke="rgb(0,0,0)" stroke-width="0.250000000000002" stroke-linecap="round"/>
				<line x1="111.88556338018121" y1="0.12499999989999822" x2="109.63204225342065" y2="0.12499999989999822" stroke="rgb(0,0,0)" stroke-width="0.250000000000002" stroke-linecap="round"/>
				<line x1="108.50528169004036" y1="0.12499999989999822" x2="106.2517605632798" y2="0.12499999989999822" stroke="rgb(0,0,0)" stroke-width="0.250000000000002" stroke-linecap="round"/>
				<line x1="105.12499999989952" y1="0.12499999989999822" x2="102.87147887313895" y2="0.12499999989999822" stroke="rgb(0,0,0)" stroke-width="0.250000000000002" stroke-linecap="round"/>
				<line x1="101.74471830975867" y1="0.12499999989999822" x2="99.4911971829981" y2="0.12499999989999822" stroke="rgb(0,0,0)" stroke-width="0.250000000000002" stroke-linecap="round"/>
				<line x1="98.36443661961782" y1="0.12499999989999822" x2="96.11091549285726" y2="0.12499999989999822" stroke="rgb(0,0,0)" stroke-width="0.250000000000002" stroke-linecap="round"/>
				<line x1="94.98415492947697" y1="0.12499999989999822" x2="92.73063380271641" y2="0.12499999989999822" stroke="rgb(0,0,0)" stroke-width="0.250000000000002" stroke-linecap="round"/>
				<line x1="91.60387323933612" y1="0.12499999989999822" x2="89.35035211257556" y2="0.12499999989999822" stroke="rgb(0,0,0)" stroke-width="0.250000000000002" stroke-linecap="round"/>
				<line x1="88.22359154919528" y1="0.12499999989999822" x2="85.97007042243472" y2="0.12499999989999822" stroke="rgb(0,0,0)" stroke-width="0.250000000000002" stroke-linecap="round"/>
				<line x1="84.84330985905443" y1="0.12499999989999822" x2="82.58978873229387" y2="0.12499999989999822" stroke="rgb(0,0,0)" stroke-width="0.250000000000002" stroke-linecap="round"/>
				<line x1="81.46302816891358" y1="0.12499999989999822" x2="79.20950704215302" y2="0.12499999989999822" stroke="rgb(0,0,0)" stroke-width="0.250000000000002" stroke-linecap="round"/>
				<line x1="78.08274647877273" y1="0.12499999989999822" x2="75.82922535201217" y2="0.12499999989999822" stroke="rgb(0,0,0)" stroke-width="0.250000000000002" stroke-linecap="round"/>
				<line x1="74.70246478863189" y1="0.12499999989999822" x2="72.44894366187133" y2="0.12499999989999822" stroke="rgb(0,0,0)" stroke-width="0.250000000000002" stroke-linecap="round"/>
				<line x1="71.32218309849104" y1="0.12499999989999822" x2="69.06866197173048" y2="0.12499999989999822" stroke="rgb(0,0,0)" stroke-width="0.250000000000002" stroke-linecap="round"/>
				<line x1="67.94190140835019" y1="0.12499999989999822" x2="65.68838028158963" y2="0.12499999989999822" stroke="rgb(0,0,0)" stroke-width="0.250000000000002" stroke-linecap="round"/>
				<line x1="64.56161971820934" y1="0.12499999989999822" x2="62.30809859144878" y2="0.12499999989999822" stroke="rgb(0,0,0)" stroke-width="0.250000000000002" stroke-linecap="round"/>
				<line x1="61.1813380280685" y1="0.12499999989999822" x2="58.92781690130794" y2="0.12499999989999822" stroke="rgb(0,0,0)" stroke-width="0.250000000000002" stroke-linecap="round"/>
				<line x1="57.80105633792766" y1="0.12499999989999822" x2="55.5475352111671" y2="0.12499999989999822" stroke="rgb(0,0,0)" stroke-width="0.250000000000002" stroke-linecap="round"/>
				<line x1="54.42077464778682" y1="0.12499999989999822" x2="52.16725352102626" y2="0.12499999989999822" stroke="rgb(0,0,0)" stroke-width="0.250000000000002" stroke-linecap="round"/>
				<line x1="51.04049295764598" y1="0.12499999989999822" x2="48.78697183088542" y2="0.12499999989999822" stroke="rgb(0,0,0)" stroke-width="0.250000000000002" stroke-linecap="round"/>
				<line x1="47.66021126750514" y1="0.12499999989999822" x2="45.40669014074458" y2="0.12499999989999822" stroke="rgb(0,0,0)" stroke-width="0.250000000000002" stroke-linecap="round"/>
				<line x1="44.2799295773643" y1="0.12499999989999822" x2="42.02640845060374" y2="0.12499999989999822" stroke="rgb(0,0,0)" stroke-width="0.250000000000002" stroke-linecap="round"/>
				<line x1="40.89964788722346" y1="0.12499999989999822" x2="38.6461267604629" y2="0.12499999989999822" stroke="rgb(0,0,0)" stroke-width="0.250000000000002" stroke-linecap="round"/>
				<line x1="37.51936619708262" y1="0.12499999989999822" x2="35.26584507032206" y2="0.12499999989999822" stroke="rgb(0,0,0)" stroke-width="0.250000000000002" stroke-linecap="round"/>
				<line x1="34.13908450694178" y1="0.12499999989999822" x2="31.885563380181214" y2="0.12499999989999822" stroke="rgb(0,0,0)" stroke-width="0.250000000000002" stroke-linecap="round"/>
				<line x1="30.758802816800934" y1="0.12499999989999822" x2="28.50528169004037" y2="0.12499999989999822" stroke="rgb(0,0,0)" stroke-width="0.250000000000002" stroke-linecap="round"/>
				<line x1="27.37852112666009" y1="0.12499999989999822" x2="25.124999999899526" y2="0.12499999989999822" stroke="rgb(0,0,0)" stroke-width="0.250000000000002" stroke-linecap="round"/>
				<line x1="23.998239436519246" y1="0.12499999989999822" x2="21.74471830975868" y2="0.12499999989999822" stroke="rgb(0,0,0)" stroke-width="0.250000000000002" stroke-linecap="round"/>
				<line x1="20.6179577463784" y1="0.12499999989999822" x2="18.364436619617837" y2="0.12499999989999822" stroke="rgb(0,0,0)" stroke-width="0.250000000000002" stroke-linecap="round"/>
				<line x1="17.237676056237557" y1="0.12499999989999822" x2="14.984154929476993" y2="0.12499999989999822" stroke="rgb(0,0,0)" stroke-width="0.250000000000002" stroke-linecap="round"/>
				<line x1="13.857394366096711" y1="0.12499999989999822" x2="11.603873239336147" y2="0.12499999989999822" stroke="rgb(0,0,0)" stroke-width="0.250000000000002" stroke-linecap="round"/>
				<line x1="10.477112675955865" y1="0.12499999989999822" x2="8.223591549195302" y2="0.12499999989999822" stroke="rgb(0,0,0)" stroke-width="0.250000000000002" stroke-linecap="round"/>
				<line x1="7.09683098581502" y1="0.12499999989999822" x2="4.843309859054456" y2="0.12499999989999822" stroke="rgb(0,0,0)" stroke-width="0.250000000000002" stroke-linecap="round"/>
				<line x1="3.7165492956741737" y1="0.12499999989999822" x2="1.4630281689136102" y2="0.12499999989999822" stroke="rgb(0,0,0)" stroke-width="0.250000000000002" stroke-linecap="round"/>
				<line x1="0.33626760553332846" y1="0.12499999989999822" x2="0.12499999990001243" y2="0.12499999989999822" stroke="rgb(0,0,0)" stroke-width="0.250000000000002" stroke-linecap="round"/>
				<line x1="0.12499999990000177" y1="0.12499999990000651" x2="0.12499999990000177" y2="2.1672535210267485" stroke="rgb(0,0,0)" stroke-width="0.250000000000002" stroke-linecap="round"/>
				<line x1="0.12499999990000177" y1="3.2940140844070305" x2="0.12499999990000177" y2="5.5475352111675935" stroke="rgb(0,0,0)" stroke-width="0.250000000000002" stroke-linecap="round"/>
				<line x1="0.12499999990000177" y1="6.6742957745478755" x2="0.12499999990000177" y2="8.92781690130844" stroke="rgb(0,0,0)" stroke-width="0.250000000000002" stroke-linecap="round"/>
				<line x1="0.12499999990000177" y1="10.054577464688721" x2="0.12499999990000177" y2="12.308098591449285" stroke="rgb(0,0,0)" stroke-width="0.250000000000002" stroke-linecap="round"/>
				<line x1="0.12499999990000177" y1="13.434859154829567" x2="0.12499999990000177" y2="15.688380281590131" stroke="rgb(0,0,0)" stroke-width="0.250000000000002" stroke-linecap="round"/>
				<line x1="0.12499999990000177" y1="16.81514084497041" x2="0.12499999990000177" y2="19.068661971730975" stroke="rgb(0,0,0)" stroke-width="0.250000000000002" stroke-linecap="round"/>
				<line x1="0.12499999990000177" y1="20.195422535111256" x2="0.12499999990000177" y2="22.44894366187182" stroke="rgb(0,0,0)" stroke-width="0.250000000000002" stroke-linecap="round"/>
				<line x1="0.12499999990000177" y1="23.5757042252521" x2="0.12499999990000177" y2="25.829225352012664" stroke="rgb(0,0,0)" stroke-width="0.250000000000002" stroke-linecap="round"/>
				<line x1="0.12499999990000177" y1="26.955985915392944" x2="0.12499999990000177" y2="29.209507042153508" stroke="rgb(0,0,0)" stroke-width="0.250000000000002" stroke-linecap="round"/>
				<line x1="0.12499999990000177" y1="30.336267605533788" x2="0.12499999990000177" y2="32.58978873229435" stroke="rgb(0,0,0)" stroke-width="0.250000000000002" stroke-linecap="round"/>
				<line x1="0.12499999990000177" y1="33.71654929567463" x2="0.12499999990000177" y2="35.97007042243519" stroke="rgb(0,0,0)" stroke-width="0.250000000000002" stroke-linecap="round"/>
				<line x1="0.12499999990000177" y1="37.09683098581547" x2="0.12499999990000177" y2="39.35035211257603" stroke="rgb(0,0,0)" stroke-width="0.250000000000002" stroke-linecap="round"/>
				<line x1="0.12499999990000177" y1="40.47711267595631" x2="0.12499999990000177" y2="42.73063380271687" stroke="rgb(0,0,0)" stroke-width="0.250000000000002" stroke-linecap="round"/>
				<line x1="0.12499999990000177" y1="43.857394366097154" x2="0.12499999990000177" y2="46.110915492857714" stroke="rgb(0,0,0)" stroke-width="0.250000000000002" stroke-linecap="round"/>
				<line x1="0.12499999990000177" y1="47.237676056237994" x2="0.12499999990000177" y2="49.491197182998555" stroke="rgb(0,0,0)" stroke-width="0.250000000000002" stroke-linecap="round"/>
				<line x1="0.12499999990000177" y1="50.617957746378835" x2="0.12499999990000177" y2="52.871478873139395" stroke="rgb(0,0,0)" stroke-width="0.250000000000002" stroke-linecap="round"/>
				<line x1="0.12499999990000177" y1="53.998239436519675" x2="0.12499999990000177" y2="56.251760563280236" stroke="rgb(0,0,0)" stroke-width="0.250000000000002" stroke-linecap="round"/>
				<line x1="0.12499999990000177" y1="57.378521126660516" x2="0.12499999990000177" y2="59.632042253421076" stroke="rgb(0,0,0)" stroke-width="0.250000000000002" stroke-linecap="round"/>
				<line x1="0.12499999990000177" y1="60.75880281680136" x2="0.12499999990000177" y2="63.01232394356192" stroke="rgb(0,0,0)" stroke-width="0.250000000000002" stroke-linecap="round"/>
				<line x1="0.12499999990000177" y1="64.1390845069422" x2="0.12499999990000177" y2="66.39260563370276" stroke="rgb(0,0,0)" stroke-width="0.250000000000002" stroke-linecap="round"/>
				<line x1="0.12499999990000177" y1="67.51936619708304" x2="0.12499999990000177" y2="69.7728873238436" stroke="rgb(0,0,0)" stroke-width="0.250000000000002" stroke-linecap="round"/>
				<line x1="0.12499999990000177" y1="70.89964788722389" x2="0.12499999990000177" y2="73.15316901398445" stroke="rgb(0,0,0)" stroke-width="0.250000000000002" stroke-linecap="round"/>
				<line x1="0.12499999990000177" y1="74.27992957736474" x2="0.12499999990000177" y2="76.5334507041253" stroke="rgb(0,0,0)" stroke-width="0.250000000000002" stroke-linecap="round"/>
				<line x1="0.12499999990000177" y1="77.66021126750559" x2="0.12499999990000177" y2="79.91373239426615" stroke="rgb(0,0,0)" stroke-width="0.250000000000002" stroke-linecap="round"/>
				<line x1="0.12499999990000177" y1="81.04049295764644" x2="0.12499999990000177" y2="83.294014084407" stroke="rgb(0,0,0)" stroke-width="0.250000000000002" stroke-linecap="round"/>
				<line x1="0.12499999990000177" y1="84.42077464778728" x2="0.12499999990000177" y2="86.67429577454784" stroke="rgb(0,0,0)" stroke-width="0.250000000000002" stroke-linecap="round"/>
				<line x1="0.12499999990000177" y1="87.80105633792813" x2="0.12499999990000177" y2="90.05457746468869" stroke="rgb(0,0,0)" stroke-width="0.250000000000002" stroke-linecap="round"/>
				<line x1="0.12499999990000177" y1="91.18133802806898" x2="0.12499999990000177" y2="93.43485915482954" stroke="rgb(0,0,0)" stroke-width="0.250000000000002" stroke-linecap="round"/>
				<line x1="0.12499999990000177" y1="94.56161971820983" x2="0.12499999990000177" y2="96.81514084497039" stroke="rgb(0,0,0)" stroke-width="0.250000000000002" stroke-linecap="round"/>
				<line x1="0.12499999990000177" y1="97.94190140835067" x2="0.12499999990000177" y2="100.19542253511123" stroke="rgb(0,0,0)" stroke-width="0.250000000000002" stroke-linecap="round"/>
				<line x1="0.12499999990000177" y1="101.32218309849152" x2="0.12499999990000177" y2="103.57570422525208" stroke="rgb(0,0,0)" stroke-width="0.250000000000002" stroke-linecap="round"/>
				<line x1="0.12499999990000177" y1="104.70246478863237" x2="0.12499999990000177" y2="106.95598591539293" stroke="rgb(0,0,0)" stroke-width="0.250000000000002" stroke-linecap="round"/>
				<line x1="0.12499999990000177" y1="108.08274647877322" x2="0.12499999990000177" y2="110.33626760553378" stroke="rgb(0,0,0)" stroke-width="0.250000000000002" stroke-linecap="round"/>
				<line x1="0.12499999990000177" y1="111.46302816891406" x2="0.12499999990000177" y2="113.71654929567462" stroke="rgb(0,0,0)" stroke-width="0.250000000000002" stroke-linecap="round"/>
				<line x1="0.12499999990000177" y1="114.84330985905491" x2="0.12499999990000177" y2="117.09683098581547" stroke="rgb(0,0,0)" stroke-width="0.250000000000002" stroke-linecap="round"/>
				<line x1="0.12499999990000177" y1="118.22359154919576" x2="0.12499999990000177" y2="120.47711267595632" stroke="rgb(0,0,0)" stroke-width="0.250000000000002" stroke-linecap="round"/>
				<line x1="0.12499999990000177" y1="121.60387323933661" x2="0.12499999990000177" y2="123.85739436609717" stroke="rgb(0,0,0)" stroke-width="0.250000000000002" stroke-linecap="round"/>
				<line x1="0.12499999990000177" y1="124.98415492947746" x2="0.12499999990000177" y2="127.23767605623802" stroke="rgb(0,0,0)" stroke-width="0.250000000000002" stroke-linecap="round"/>
				<line x1="0.12499999990000177" y1="128.3644366196183" x2="0.12499999990000177" y2="130.61795774637886" stroke="rgb(0,0,0)" stroke-width="0.250000000000002" stroke-linecap="round"/>
				<line x1="0.12499999990000177" y1="131.74471830975915" x2="0.12499999990000177" y2="133.99823943651973" stroke="rgb(0,0,0)" stroke-width="0.250000000000002" stroke-linecap="round"/>
				<g>
					<desc>null, supplement, null</desc>
					<text x="168.8749999999" y="6.024999999899999" textLength="60.57333333333334" lengthAdjust="spacingAndGlyphs" text-anchor="middle" font-family="Arial" font-size="4.913333333333334">Dimmer Controller Software</text>
				</g>
			</g>
		</g>
		<g class="clickEl 5b094f8a0000bca801374c798a6587ad">
			<desc>Maximum, fmc.pn.place, 5b074ceb0000bca801377d4aceebc2fe</desc>
			<g>
				<desc>null, figure.plane, null</desc>
				<path d="M 110.1249999999,22.624999999899998 A 2.5 2.5 0 0 0 112.6249999999,25.124999999899998 L 112.6249999999,25.124999999899998 A 2.5 2.5 0 0 0 115.1249999999,22.624999999899998 L 115.1249999999,22.624999999899998 A 2.5 2.5 0 0 0 112.6249999999,20.124999999899998 L 112.6249999999,20.124999999899998 A 2.5 2.5 0 0 0 110.1249999999,22.624999999899998 z" fill="rgb(255,255,255)"/>
				<path d="M 110.1249999999,22.624999999899998 A 2.5 2.5 0 0 0 112.6249999999,25.124999999899998" stroke="rgb(0,0,0)" stroke-width="0.5000000000000016" fill="none" stroke-linecap="round"/>
				<path d="M 112.6249999999,25.124999999899998 A 2.5 2.5 0 0 0 115.1249999999,22.624999999899998" stroke="rgb(0,0,0)" stroke-width="0.5000000000000016" fill="none" stroke-linecap="round"/>
				<path d="M 115.1249999999,22.624999999899998 A 2.5 2.5 0 0 0 112.6249999999,20.124999999899998" stroke="rgb(0,0,0)" stroke-width="0.5000000000000016" fill="none" stroke-linecap="round"/>
				<path d="M 112.6249999999,20.124999999899998 A 2.5 2.5 0 0 0 110.1249999999,22.624999999899998" stroke="rgb(0,0,0)" stroke-width="0.5000000000000016" fill="none" stroke-linecap="round"/>
				<g>
					<desc>null, supplement, null</desc>
					<text x="116.6249999999" y="24.099358974258973" textLength="19.935897435897438" lengthAdjust="spacingAndGlyphs" text-anchor="start" font-family="Arial" font-size="4.294871794871795" font-weight="bold">Maximum</text>
				</g>
			</g>
		</g>
		<g class="clickEl 5b0839b90000bca801376dcca41ca7d0">
			<desc>Switch-off, fmc.pn.transition, 5b07c2490000bca80137a49b00389074</desc>
			<g>
				<desc>null, figure.plane, null</desc>
				<path d=" M 190.1249999999,125.1249999999 L 220.1249999999,125.1249999999 L 220.1249999999,110.1249999999 L 190.1249999999,110.1249999999 z" fill="rgb(255,255,255)"/>
				<line x1="190.1249999999" y1="125.1249999999" x2="220.1249999999" y2="125.1249999999" stroke="rgb(0,0,0)" stroke-width="0.5000000000000016" stroke-linecap="round"/>
				<line x1="220.1249999999" y1="125.1249999999" x2="220.1249999999" y2="110.1249999999" stroke="rgb(0,0,0)" stroke-width="0.5000000000000016" stroke-linecap="round"/>
				<line x1="220.1249999999" y1="110.1249999999" x2="190.1249999999" y2="110.1249999999" stroke="rgb(0,0,0)" stroke-width="0.5000000000000016" stroke-linecap="round"/>
				<line x1="190.1249999999" y1="110.1249999999" x2="190.1249999999" y2="125.1249999999" stroke="rgb(0,0,0)" stroke-width="0.5000000000000016" stroke-linecap="round"/>
				<g>
					<desc>null, supplement, null</desc>
					<text x="205.1249999999" y="119.1249999999" textLength="19.6" lengthAdjust="spacingAndGlyphs" text-anchor="middle" font-family="Arial" font-size="4.466666666666667">Switch-off</text>
				</g>
			</g>
		</g>
		<g class="clickEl 5b07e6aa0000bca8013797aad9be69ae">
			<desc>Switch-on, fmc.pn.transition, 5b081c790000bca8013785dd83852844</desc>
			<g>
				<desc>null, figure.plane, null</desc>
				<path d=" M 5.124999999900002,30.124999999899998 L 35.1249999999,30.124999999899998 L 35.1249999999,15.124999999899998 L 5.124999999900002,15.124999999899998 z" fill="rgb(255,255,255)"/>
				<line x1="5.124999999900002" y1="30.124999999899998" x2="35.1249999999" y2="30.124999999899998" stroke="rgb(0,0,0)" stroke-width="0.5000000000000016" stroke-linecap="round"/>
				<line x1="35.1249999999" y1="30.124999999899998" x2="35.1249999999" y2="15.124999999899998" stroke="rgb(0,0,0)" stroke-width="0.5000000000000016" stroke-linecap="round"/>
				<line x1="35.1249999999" y1="15.124999999899998" x2="5.124999999900002" y2="15.124999999899998" stroke="rgb(0,0,0)" stroke-width="0.5000000000000016" stroke-linecap="round"/>
				<line x1="5.124999999900002" y1="15.124999999899998" x2="5.124999999900002" y2="30.124999999899998" stroke="rgb(0,0,0)" stroke-width="0.5000000000000016" stroke-linecap="round"/>
				<g>
					<desc>null, supplement, null</desc>
					<text x="20.124999999899998" y="24.124999999899998" textLength="19.533333333333335" lengthAdjust="spacingAndGlyphs" text-anchor="middle" font-family="Arial" font-size="4.466666666666667">Switch-on</text>
				</g>
			</g>
		</g>
		<g class="clickEl 5b08ed8d0000bca8013719f554353b0e">
			<desc>Intermediate, fmc.pn.place, 5b08a3830000bca8013764bc78868ede</desc>
			<g>
				<desc>null, figure.plane, null</desc>
				<path d="M 110.1249999999,70.1249999999 A 2.5 2.5 0 0 0 112.6249999999,72.6249999999 L 112.6249999999,72.6249999999 A 2.5 2.5 0 0 0 115.1249999999,70.1249999999 L 115.1249999999,70.1249999999 A 2.5 2.5 0 0 0 112.6249999999,67.6249999999 L 112.6249999999,67.6249999999 A 2.5 2.5 0 0 0 110.1249999999,70.1249999999 z" fill="rgb(255,255,255)"/>
				<path d="M 110.1249999999,70.1249999999 A 2.5 2.5 0 0 0 112.6249999999,72.6249999999" stroke="rgb(0,0,0)" stroke-width="0.5000000000000016" fill="none" stroke-linecap="round"/>
				<path d="M 112.6249999999,72.6249999999 A 2.5 2.5 0 0 0 115.1249999999,70.1249999999" stroke="rgb(0,0,0)" stroke-width="0.5000000000000016" fill="none" stroke-linecap="round"/>
				<path d="M 115.1249999999,70.1249999999 A 2.5 2.5 0 0 0 112.6249999999,67.6249999999" stroke="rgb(0,0,0)" stroke-width="0.5000000000000016" fill="none" stroke-linecap="round"/>
				<path d="M 112.6249999999,67.6249999999 A 2.5 2.5 0 0 0 110.1249999999,70.1249999999" stroke="rgb(0,0,0)" stroke-width="0.5000000000000016" fill="none" stroke-linecap="round"/>
				<g>
					<desc>null, supplement, null</desc>
					<text x="116.6249999999" y="71.59935897425898" textLength="25.51282051282051" lengthAdjust="spacingAndGlyphs" text-anchor="start" font-family="Arial" font-size="4.294871794871795" font-weight="bold">Intermediate</text>
				</g>
			</g>
		</g>
		<g class="clickEl 5b078fa50000bca80137f36ed05c43cb">
			<desc>Minimum, fmc.pn.place, 5b092e340000bca801376c187bc0068a</desc>
			<g>
				<desc>null, figure.plane, null</desc>
				<path d="M 110.1249999999,117.6249999999 A 2.5 2.5 0 0 0 112.6249999999,120.1249999999 L 112.6249999999,120.1249999999 A 2.5 2.5 0 0 0 115.1249999999,117.6249999999 L 115.1249999999,117.6249999999 A 2.5 2.5 0 0 0 112.6249999999,115.1249999999 L 112.6249999999,115.1249999999 A 2.5 2.5 0 0 0 110.1249999999,117.6249999999 z" fill="rgb(255,255,255)"/>
				<path d="M 110.1249999999,117.6249999999 A 2.5 2.5 0 0 0 112.6249999999,120.1249999999" stroke="rgb(0,0,0)" stroke-width="0.5000000000000016" fill="none" stroke-linecap="round"/>
				<path d="M 112.6249999999,120.1249999999 A 2.5 2.5 0 0 0 115.1249999999,117.6249999999" stroke="rgb(0,0,0)" stroke-width="0.5000000000000016" fill="none" stroke-linecap="round"/>
				<path d="M 115.1249999999,117.6249999999 A 2.5 2.5 0 0 0 112.6249999999,115.1249999999" stroke="rgb(0,0,0)" stroke-width="0.5000000000000016" fill="none" stroke-linecap="round"/>
				<path d="M 112.6249999999,115.1249999999 A 2.5 2.5 0 0 0 110.1249999999,117.6249999999" stroke="rgb(0,0,0)" stroke-width="0.5000000000000016" fill="none" stroke-linecap="round"/>
				<g>
					<desc>null, supplement, null</desc>
					<text x="108.6249999999" y="119.09935897425898" textLength="19.038461538461537" lengthAdjust="spacingAndGlyphs" text-anchor="end" font-family="Arial" font-size="4.294871794871795" font-weight="bold">Minimum</text>
				</g>
				<g>
					<desc>null, supplement, null</desc>
					<path d="M 111.19642857132857,117.6249999999 A 1.4285714285714164 1.4285714285714164 0 0 1 112.62499999989998,116.19642857132858 L 112.62499999990001,116.19642857132858 A 1.4285714285714164 1.4285714285714164 0 0 1 114.05357142847143,117.6249999999 L 114.05357142847143,117.6249999999 A 1.4285714285714164 1.4285714285714164 0 0 1 112.62499999990001,119.05357142847141 L 112.62499999989998,119.05357142847141 A 1.4285714285714164 1.4285714285714164 0 0 1 111.19642857132857,117.6249999999 z"/>
				</g>
			</g>
		</g>
		<g class="clickEl 453d34af0000c3a80141918f84641161">
			<desc>up-short!, fmc.pn.message, 5b0a73ac0000bca801373e76d601e141</desc>
			<g>
				<desc>null, figure.lineshape, null</desc>
				<line x1="111.75262747018607" y1="67.68235691670098" x2="100.96584099239539" y2="37.4793547788871" stroke="rgb(0,0,0)" stroke-width="0.250000000000002" stroke-linecap="round"/>
				<path d="M 100.96584099239539,37.4793547788871 A 3.54751227630687 3.5475122763068754 0 0 0 97.6249999999,35.1249999999" stroke="rgb(0,0,0)" stroke-width="0.250000000000002" fill="none" stroke-linecap="round"/>
				<line x1="97.6249999999" y1="35.1249999999" x2="22.624999999899998" y2="35.1249999999" stroke="rgb(0,0,0)" stroke-width="0.250000000000002" stroke-linecap="round"/>
				<path d="M 22.6249999999,35.1249999999 A 2.5 2.5 0 0 1 20.1249999999,32.6249999999" stroke="rgb(0,0,0)" stroke-width="0.250000000000002" fill="none" stroke-linecap="round"/>
				<line x1="20.1249999999" y1="32.6249999999" x2="20.1249999999" y2="31.446874999900004" stroke="rgb(0,0,0)" stroke-width="0.250000000000002" stroke-linecap="round"/>
				<path d="M 19.9597656249,30.242444332556886 A 0.1907962217712595 0.19079622177125932 0 0 1 20.290234374900002,30.242444332556886 L 21.034507907796034,31.531563906261585 A 0.20027571490776275 0.20027571490778295 0 0 1 20.7627568325569,31.806189736935934 L 20.76275683255689,31.806189736935934 A 1.2992657885979406 1.2992657885979413 0 0 0 19.487243167243115,31.806189736935934 L 19.487243167243104,31.806189736935934 A 0.20027571490776278 0.20027571490778293 0 0 1 19.21549209200397,31.531563906261585 z"/>
				<g>
					<desc>null, supplement, null</desc>
					<text x="78.8749999999" y="39.8249999999" textLength="14.24" lengthAdjust="spacingAndGlyphs" text-anchor="middle" font-family="Arial" font-size="3.5733333333333333">up-short!</text>
				</g>
			</g>
		</g>
		<g class="clickEl 453d34af0000c3a80141918f84641161">
			<desc>up-short!, fmc.pn.message, 5b0b005b0000bca80137703344c09744</desc>
			<g>
				<desc>null, figure.lineshape, null</desc>
				<line x1="110.79094178619738" y1="115.79094178619741" x2="101.89276695286637" y2="106.8927669528664" stroke="rgb(0,0,0)" stroke-width="0.250000000000002" stroke-linecap="round"/>
				<path d="M 101.89276695286637,106.89276695286638 A 6.035533905932717 6.0355339059327235 0 0 0 97.6249999999,105.1249999999" stroke="rgb(0,0,0)" stroke-width="0.250000000000002" fill="none" stroke-linecap="round"/>
				<line x1="97.6249999999" y1="105.1249999999" x2="22.624999999899998" y2="105.1249999999" stroke="rgb(0,0,0)" stroke-width="0.250000000000002" stroke-linecap="round"/>
				<path d="M 22.6249999999,105.1249999999 A 2.5 2.5 0 0 1 20.1249999999,102.6249999999" stroke="rgb(0,0,0)" stroke-width="0.250000000000002" fill="none" stroke-linecap="round"/>
				<line x1="20.1249999999" y1="102.6249999999" x2="20.1249999999" y2="31.44687499989999" stroke="rgb(0,0,0)" stroke-width="0.250000000000002" stroke-linecap="round"/>
				<path d="M 19.9597656249,30.242444332556886 A 0.1907962217712595 0.19079622177125932 0 0 1 20.290234374900002,30.242444332556886 L 21.034507907796034,31.531563906261585 A 0.20027571490776275 0.20027571490778295 0 0 1 20.7627568325569,31.806189736935934 L 20.76275683255689,31.806189736935934 A 1.2992657885979406 1.2992657885979413 0 0 0 19.487243167243115,31.806189736935934 L 19.487243167243104,31.806189736935934 A 0.20027571490776278 0.20027571490778293 0 0 1 19.21549209200397,31.531563906261585 z"/>
				<g>
					<desc>null, supplement, null</desc>
					<text x="58.8749999999" y="109.8249999999" textLength="14.24" lengthAdjust="spacingAndGlyphs" text-anchor="middle" font-family="Arial" font-size="3.5733333333333333">up-short!</text>
				</g>
			</g>
		</g>
		<g class="clickEl 4543fe900000c3a80141f5253ff13c35">
			<desc>up-long!, fmc.pn.message, 5b0cd7c50000bca80137bf61748fe69a</desc>
			<g>
				<desc>null, figure.lineshape, null</desc>
				<line x1="111.117413434941" y1="72.2356211908426" x2="101.57809548419775" y2="85.59066632188316" stroke="rgb(0,0,0)" stroke-width="0.250000000000002" stroke-linecap="round"/>
				<path d="M 101.57809548419775,85.59066632188316 A 4.857973309658102 4.857973309658107 0 0 1 97.6249999999,87.6249999999" stroke="rgb(0,0,0)" stroke-width="0.250000000000002" fill="none" stroke-linecap="round"/>
				<line x1="97.6249999999" y1="87.6249999999" x2="96.4468749999" y2="87.6249999999" stroke="rgb(0,0,0)" stroke-width="0.250000000000002" stroke-linecap="round"/>
				<path d="M 95.24244433255689,87.7902343749 A 0.19079622177125463 0.1907962217712546 0 0 1 95.24244433255689,87.4597656249 L 96.53156390626158,86.71549209200397 A 0.20027571490779084 0.20027571490774998 0 0 1 96.80618973693593,86.9872431672431 L 96.80618973693593,86.98724316724311 A 1.2992657885979493 1.2992657885979488 0 0 0 96.80618973693593,88.26275683255689 L 96.80618973693593,88.2627568325569 A 0.20027571490779084 0.20027571490774998 0 0 1 96.53156390626158,88.53450790779603 z"/>
				<g>
					<desc>null, supplement, null</desc>
				</g>
			</g>
		</g>
		<g class="clickEl 4543fe900000c3a80141f5253ff13c35">
			<desc>up-long!, fmc.pn.message, 5b0d34360000bca80137a10e01a615d7</desc>
			<g>
				<desc>null, figure.lineshape, null</desc>
				<line x1="111.62740384605381" y1="115.23076923066922" x2="101.08653846143847" y2="89.93269230759232" stroke="rgb(0,0,0)" stroke-width="0.250000000000002" stroke-linecap="round"/>
				<path d="M 101.08653846143847,89.93269230759232 A 3.7500000000000053 3.750000000000014 0 0 0 97.6249999999,87.6249999999" stroke="rgb(0,0,0)" stroke-width="0.250000000000002" fill="none" stroke-linecap="round"/>
				<line x1="97.6249999999" y1="87.6249999999" x2="96.4468749999" y2="87.6249999999" stroke="rgb(0,0,0)" stroke-width="0.250000000000002" stroke-linecap="round"/>
				<path d="M 95.24244433255689,87.7902343749 A 0.19079622177125463 0.1907962217712546 0 0 1 95.24244433255689,87.4597656249 L 96.53156390626158,86.71549209200397 A 0.20027571490779084 0.20027571490774998 0 0 1 96.80618973693593,86.9872431672431 L 96.80618973693593,86.98724316724311 A 1.2992657885979493 1.2992657885979488 0 0 0 96.80618973693593,88.26275683255689 L 96.80618973693593,88.2627568325569 A 0.20027571490779084 0.20027571490774998 0 0 1 96.53156390626158,88.53450790779603 z"/>
				<g>
					<desc>null, supplement, null</desc>
					<text x="104.1249999999" y="86.8249999999" textLength="5.12" lengthAdjust="spacingAndGlyphs" text-anchor="start" font-family="Arial" font-size="3.5733333333333333">up-</text>
					<text x="104.1249999999" y="90.8249999999" textLength="7.8933333333333335" lengthAdjust="spacingAndGlyphs" text-anchor="start" font-family="Arial" font-size="3.5733333333333333">long!</text>
				</g>
			</g>
		</g>
		<g>
			<desc>, fmc.pn.message, 5b0dd5360000bca801372efb72d4a73d</desc>
			<g>
				<desc>null, figure.lineshape, null</desc>
				<line x1="110.4035802782797" y1="67.0150123896316" x2="101.57809548419775" y2="54.65933367791684" stroke="rgb(0,0,0)" stroke-width="0.250000000000002" stroke-linecap="round"/>
				<path d="M 101.57809548419775,54.65933367791684 A 4.857973309658094 4.8579733096580995 0 0 0 97.6249999999,52.6249999999" stroke="rgb(0,0,0)" stroke-width="0.250000000000002" fill="none" stroke-linecap="round"/>
				<line x1="97.6249999999" y1="52.6249999999" x2="95.2187499999" y2="52.6249999999" stroke="rgb(0,0,0)" stroke-width="0.250000000000002" stroke-linecap="round"/>
				<path d="M 111.23809812535752,67.89905740773126 A 0.1907962217712578 0.1907962217712492 0 0 1 110.96918464229468,68.09113846706187 L 109.61425882433582,67.47473892544396 A 0.20027571490778703 0.20027571490774987 0 0 1 109.67576874832459,67.09331459085311 L 109.67576874832459,67.09331459085311 A 1.2992657885979406 1.2992657885979393 0 0 0 110.71369691077199,66.3519373319621 L 110.71369691077201,66.3519373319621 A 0.20027571490775883 0.20027571490779247 0 0 1 111.09445287830026,66.41745745832655 z"/>
			</g>
		</g>
		<g class="clickEl 5b2f95ec0000bca8013709bfa81d701f">
			<desc>Decreasing, fmc.pn.place, 5b1476c10000bca80137712e066c756d</desc>
			<g>
				<desc>null, figure.plane, null</desc>
				<path d="M 165.1249999999,70.1249999999 A 2.5 2.5 0 0 0 167.6249999999,72.6249999999 L 167.6249999999,72.6249999999 A 2.5 2.5 0 0 0 170.1249999999,70.1249999999 L 170.1249999999,70.1249999999 A 2.5 2.5 0 0 0 167.6249999999,67.6249999999 L 167.6249999999,67.6249999999 A 2.5 2.5 0 0 0 165.1249999999,70.1249999999 z" fill="rgb(255,255,255)"/>
				<path d="M 165.1249999999,70.1249999999 A 2.5 2.5 0 0 0 167.6249999999,72.6249999999" stroke="rgb(0,0,0)" stroke-width="0.5000000000000016" fill="none" stroke-linecap="round"/>
				<path d="M 167.6249999999,72.6249999999 A 2.5 2.5 0 0 0 170.1249999999,70.1249999999" stroke="rgb(0,0,0)" stroke-width="0.5000000000000016" fill="none" stroke-linecap="round"/>
				<path d="M 170.1249999999,70.1249999999 A 2.5 2.5 0 0 0 167.6249999999,67.6249999999" stroke="rgb(0,0,0)" stroke-width="0.5000000000000016" fill="none" stroke-linecap="round"/>
				<path d="M 167.6249999999,67.6249999999 A 2.5 2.5 0 0 0 165.1249999999,70.1249999999" stroke="rgb(0,0,0)" stroke-width="0.5000000000000016" fill="none" stroke-linecap="round"/>
				<g>
					<desc>null, supplement, null</desc>
					<text x="171.6249999999" y="71.59935897425898" textLength="23.076923076923073" lengthAdjust="spacingAndGlyphs" text-anchor="start" font-family="Arial" font-size="4.294871794871795" font-weight="bold">Decreasing</text>
				</g>
			</g>
		</g>
		<g class="clickEl 5b2d29070000bca801378a6c020cf8f5">
			<desc>Start-decreasing, fmc.pn.transition, 5b14e8380000bca801376385e0f3e31a</desc>
			<g>
				<desc>null, figure.plane, null</desc>
				<path d=" M 130.1249999999,60.1249999999 L 160.1249999999,60.1249999999 L 160.1249999999,45.1249999999 L 130.1249999999,45.1249999999 z" fill="rgb(255,255,255)"/>
				<line x1="130.1249999999" y1="60.1249999999" x2="160.1249999999" y2="60.1249999999" stroke="rgb(0,0,0)" stroke-width="0.5000000000000016" stroke-linecap="round"/>
				<line x1="160.1249999999" y1="60.1249999999" x2="160.1249999999" y2="45.1249999999" stroke="rgb(0,0,0)" stroke-width="0.5000000000000016" stroke-linecap="round"/>
				<line x1="160.1249999999" y1="45.1249999999" x2="130.1249999999" y2="45.1249999999" stroke="rgb(0,0,0)" stroke-width="0.5000000000000016" stroke-linecap="round"/>
				<line x1="130.1249999999" y1="45.1249999999" x2="130.1249999999" y2="60.1249999999" stroke="rgb(0,0,0)" stroke-width="0.5000000000000016" stroke-linecap="round"/>
				<g>
					<desc>null, supplement, null</desc>
					<text x="145.1249999999" y="51.6249999999" textLength="10.933333333333334" lengthAdjust="spacingAndGlyphs" text-anchor="middle" font-family="Arial" font-size="4.466666666666667">Start-</text>
					<text x="145.1249999999" y="56.6249999999" textLength="21.8" lengthAdjust="spacingAndGlyphs" text-anchor="middle" font-family="Arial" font-size="4.466666666666667">decreasing</text>
				</g>
			</g>
		</g>
		<g class="clickEl 45450be80000c3a801414f280f146c71">
			<desc>down-long!, fmc.pn.message, 5b1648ed0000bca80137fbc3401b16bf</desc>
			<g>
				<desc>null, figure.lineshape, null</desc>
				<line x1="114.13258656485881" y1="68.01437880895766" x2="123.67190451560225" y2="54.65933367791684" stroke="rgb(0,0,0)" stroke-width="0.250000000000002" stroke-linecap="round"/>
				<path d="M 123.67190451560225,54.65933367791684 A 4.857973309658087 4.857973309658092 0 0 1 127.6249999999,52.6249999999" stroke="rgb(0,0,0)" stroke-width="0.250000000000002" fill="none" stroke-linecap="round"/>
				<line x1="127.6249999999" y1="52.6249999999" x2="128.8031249999" y2="52.6249999999" stroke="rgb(0,0,0)" stroke-width="0.250000000000002" stroke-linecap="round"/>
				<path d="M 130.0075556672431,52.459765624899994 A 0.1907962217712679 0.19079622177126787 0 0 1 130.0075556672431,52.7902343749 L 128.7184360935384,53.53450790779603 A 0.2002757149077556 0.2002757149077817 0 0 1 128.44381026286408,53.262756832556875 L 128.44381026286408,53.26275683255689 A 1.299265788597949 1.299265788597949 0 0 0 128.44381026286408,51.98724316724311 L 128.44381026286408,51.98724316724312 A 0.2002757149077556 0.2002757149077817 0 0 1 128.7184360935384,51.71549209200396 z"/>
			</g>
		</g>
		<g>
			<desc>, fmc.pn.message, 5b16748f0000bca801372a232066fb72</desc>
			<g>
				<desc>null, figure.lineshape, null</desc>
				<line x1="160.2187499999" y1="52.6249999999" x2="165.1249999999" y2="52.6249999999" stroke="rgb(0,0,0)" stroke-width="0.250000000000002" stroke-linecap="round"/>
				<path d="M 165.1249999999,52.6249999999 A 2.5 2.5 0 0 1 167.6249999999,55.1249999999" stroke="rgb(0,0,0)" stroke-width="0.250000000000002" fill="none" stroke-linecap="round"/>
				<line x1="167.6249999999" y1="55.1249999999" x2="167.6249999999" y2="66.30312499989994" stroke="rgb(0,0,0)" stroke-width="0.250000000000002" stroke-linecap="round"/>
				<path d="M 167.79023437490002,67.50755566724304 A 0.190796221771274 0.190796221771274 0 0 1 167.4597656249,67.50755566724304 L 166.71549209200398,66.21843609353833 A 0.20027571490776946 0.20027571490775908 0 0 1 166.98724316724312,65.943810262864 L 166.98724316724312,65.943810262864 A 1.2992657885979482 1.299265788597949 0 0 0 168.2627568325569,65.943810262864 L 168.2627568325569,65.943810262864 A 0.2002757149077694 0.20027571490775908 0 0 1 168.53450790779604,66.21843609353833 z"/>
			</g>
		</g>
		<g class="clickEl 5b2ddad80000bca80137c44d62ba97d8">
			<desc>Stop-decreasing, fmc.pn.transition, 5b1779cc0000bca80137bed85dc4010d</desc>
			<g>
				<desc>null, figure.plane, null</desc>
				<path d=" M 130.1249999999,95.1249999999 L 160.1249999999,95.1249999999 L 160.1249999999,80.1249999999 L 130.1249999999,80.1249999999 z" fill="rgb(255,255,255)"/>
				<line x1="130.1249999999" y1="95.1249999999" x2="160.1249999999" y2="95.1249999999" stroke="rgb(0,0,0)" stroke-width="0.5000000000000016" stroke-linecap="round"/>
				<line x1="160.1249999999" y1="95.1249999999" x2="160.1249999999" y2="80.1249999999" stroke="rgb(0,0,0)" stroke-width="0.5000000000000016" stroke-linecap="round"/>
				<line x1="160.1249999999" y1="80.1249999999" x2="130.1249999999" y2="80.1249999999" stroke="rgb(0,0,0)" stroke-width="0.5000000000000016" stroke-linecap="round"/>
				<line x1="130.1249999999" y1="80.1249999999" x2="130.1249999999" y2="95.1249999999" stroke="rgb(0,0,0)" stroke-width="0.5000000000000016" stroke-linecap="round"/>
				<g>
					<desc>null, supplement, null</desc>
					<text x="145.1249999999" y="86.6249999999" textLength="10.666666666666666" lengthAdjust="spacingAndGlyphs" text-anchor="middle" font-family="Arial" font-size="4.466666666666667">Stop-</text>
					<text x="145.1249999999" y="91.6249999999" textLength="21.8" lengthAdjust="spacingAndGlyphs" text-anchor="middle" font-family="Arial" font-size="4.466666666666667">decreasing</text>
				</g>
			</g>
		</g>
		<g class="clickEl 453facbb0000c3a80141c43d2fb4f5e2">
			<desc>released!, fmc.pn.message, 5b178e170000bca8013743e8d43f493c</desc>
			<g>
				<desc>null, figure.lineshape, null</desc>
				<line x1="161.44687499990002" y1="87.6249999999" x2="165.1249999999" y2="87.6249999999" stroke="rgb(0,0,0)" stroke-width="0.250000000000002" stroke-linecap="round"/>
				<path d="M 165.1249999999,87.6249999999 A 2.5 2.5 0 0 0 167.6249999999,85.1249999999" stroke="rgb(0,0,0)" stroke-width="0.250000000000002" fill="none" stroke-linecap="round"/>
				<line x1="167.6249999999" y1="85.1249999999" x2="167.6249999999" y2="72.7187499999" stroke="rgb(0,0,0)" stroke-width="0.250000000000002" stroke-linecap="round"/>
				<path d="M 160.24244433255691,87.79023437490001 A 0.19079622177127398 0.19079622177127406 0 0 1 160.24244433255691,87.45976562489999 L 161.53156390626162,86.71549209200396 A 0.20027571490775908 0.20027571490778173 0 0 1 161.80618973693595,86.98724316724312 L 161.80618973693595,86.98724316724311 A 1.2992657885979493 1.2992657885979488 0 0 0 161.80618973693595,88.26275683255689 L 161.80618973693595,88.26275683255687 A 0.20027571490775908 0.20027571490778173 0 0 1 161.53156390626162,88.53450790779604 z"/>
				<g>
					<desc>null, supplement, null</desc>
					<text x="169.1249999999" y="88.8249999999" textLength="14.826666666666666" lengthAdjust="spacingAndGlyphs" text-anchor="start" font-family="Arial" font-size="3.5733333333333333">released!</text>
				</g>
			</g>
		</g>
		<g>
			<desc>, fmc.pn.message, 5b17a6570000bca80137086621eff02f</desc>
			<g>
				<desc>null, figure.lineshape, null</desc>
				<line x1="114.84641972152015" y1="73.2349876101682" x2="123.67190451560225" y2="85.59066632188315" stroke="rgb(0,0,0)" stroke-width="0.250000000000002" stroke-linecap="round"/>
				<path d="M 123.67190451560225,85.59066632188315 A 4.857973309658087 4.857973309658092 0 0 0 127.6249999999,87.6249999999" stroke="rgb(0,0,0)" stroke-width="0.250000000000002" fill="none" stroke-linecap="round"/>
				<line x1="127.6249999999" y1="87.6249999999" x2="130.0312499999" y2="87.6249999999" stroke="rgb(0,0,0)" stroke-width="0.250000000000002" stroke-linecap="round"/>
				<path d="M 114.01190187444233,72.35094259206853 A 0.19079622177125777 0.1907962217712492 0 0 1 114.28081535750518,72.15886153273793 L 115.63574117546403,72.77526107435584 A 0.2002757149077871 0.20027571490774987 0 0 1 115.57423125147527,73.15668540894669 L 115.57423125147527,73.15668540894669 A 1.299265788597941 1.2992657885979393 0 0 0 114.53630308902787,73.89806266783769 L 114.53630308902784,73.89806266783769 A 0.20027571490775883 0.2002757149077925 0 0 1 114.1555471214996,73.83254254147325 z"/>
			</g>
		</g>
		<g class="clickEl 4536b0350000c3a801415986f8ea806a">
			<desc>down-short!, fmc.pn.message, 5b1a246b0000bca8013780e7c94499fc</desc>
			<g>
				<desc>null, figure.lineshape, null</desc>
				<line x1="113.49737252961418" y1="72.56764308309975" x2="124.28415900740461" y2="102.7706452209129" stroke="rgb(0,0,0)" stroke-width="0.250000000000002" stroke-linecap="round"/>
				<path d="M 124.28415900740461,102.7706452209129 A 3.547512276306871 3.5475122763068754 0 0 0 127.6249999999,105.1249999999" stroke="rgb(0,0,0)" stroke-width="0.250000000000002" fill="none" stroke-linecap="round"/>
				<line x1="127.6249999999" y1="105.1249999999" x2="202.6249999999" y2="105.1249999999" stroke="rgb(0,0,0)" stroke-width="0.250000000000002" stroke-linecap="round"/>
				<path d="M 202.6249999999,105.1249999999 A 2.5 2.5 0 0 1 205.1249999999,107.6249999999" stroke="rgb(0,0,0)" stroke-width="0.250000000000002" fill="none" stroke-linecap="round"/>
				<line x1="205.1249999999" y1="107.6249999999" x2="205.1249999999" y2="108.8031249999" stroke="rgb(0,0,0)" stroke-width="0.250000000000002" stroke-linecap="round"/>
				<path d="M 205.29023437490002,110.0075556672431 A 0.190796221771274 0.190796221771274 0 0 1 204.9597656249,110.0075556672431 L 204.21549209200398,108.71843609353839 A 0.20027571490776946 0.20027571490775908 0 0 1 204.48724316724312,108.44381026286406 L 204.48724316724312,108.44381026286406 A 1.2992657885979482 1.299265788597949 0 0 0 205.7627568325569,108.44381026286406 L 205.7627568325569,108.44381026286406 A 0.2002757149077694 0.20027571490775908 0 0 1 206.03450790779604,108.71843609353839 z"/>
				<g>
					<desc>null, supplement, null</desc>
					<text x="146.3749999999" y="102.8249999999" textLength="18.72" lengthAdjust="spacingAndGlyphs" text-anchor="middle" font-family="Arial" font-size="3.5733333333333333">down-short!</text>
				</g>
			</g>
		</g>
		<g class="clickEl 4536b0350000c3a801415986f8ea806a">
			<desc>down-short!, fmc.pn.message, 5b1a67060000bca801372750c29fd729</desc>
			<g>
				<desc>null, figure.lineshape, null</desc>
				<line x1="114.45905821360249" y1="24.45905821360249" x2="123.35723304693363" y2="33.35723304693362" stroke="rgb(0,0,0)" stroke-width="0.250000000000002" stroke-linecap="round"/>
				<path d="M 123.35723304693363,33.35723304693362 A 6.035533905932725 6.035533905932727 0 0 0 127.6249999999,35.1249999999" stroke="rgb(0,0,0)" stroke-width="0.250000000000002" fill="none" stroke-linecap="round"/>
				<line x1="127.6249999999" y1="35.1249999999" x2="202.6249999999" y2="35.1249999999" stroke="rgb(0,0,0)" stroke-width="0.250000000000002" stroke-linecap="round"/>
				<path d="M 202.6249999999,35.1249999999 A 2.5 2.5 0 0 1 205.1249999999,37.6249999999" stroke="rgb(0,0,0)" stroke-width="0.250000000000002" fill="none" stroke-linecap="round"/>
				<line x1="205.1249999999" y1="37.6249999999" x2="205.1249999999" y2="108.80312499989999" stroke="rgb(0,0,0)" stroke-width="0.250000000000002" stroke-linecap="round"/>
				<path d="M 205.29023437490002,110.0075556672431 A 0.190796221771274 0.190796221771274 0 0 1 204.9597656249,110.0075556672431 L 204.21549209200398,108.71843609353839 A 0.20027571490776946 0.20027571490775908 0 0 1 204.48724316724312,108.44381026286406 L 204.48724316724312,108.44381026286406 A 1.2992657885979482 1.299265788597949 0 0 0 205.7627568325569,108.44381026286406 L 205.7627568325569,108.44381026286406 A 0.2002757149077694 0.20027571490775908 0 0 1 206.03450790779604,108.71843609353839 z"/>
				<g>
					<desc>null, supplement, null</desc>
					<text x="166.3749999999" y="32.8249999999" textLength="18.72" lengthAdjust="spacingAndGlyphs" text-anchor="middle" font-family="Arial" font-size="3.5733333333333333">down-short!</text>
				</g>
			</g>
		</g>
		<g class="clickEl 45450be80000c3a801414f280f146c71">
			<desc>down-long!, fmc.pn.message, 5b21f1180000bca801379d0efe099844</desc>
			<g>
				<desc>null, figure.lineshape, null</desc>
				<line x1="113.62259615374616" y1="25.019230769130772" x2="124.16346153836153" y2="50.317307692207685" stroke="rgb(0,0,0)" stroke-width="0.250000000000002" stroke-linecap="round"/>
				<path d="M 124.16346153836153,50.317307692207685 A 3.7500000000000067 3.750000000000014 0 0 0 127.6249999999,52.6249999999" stroke="rgb(0,0,0)" stroke-width="0.250000000000002" fill="none" stroke-linecap="round"/>
				<line x1="127.6249999999" y1="52.6249999999" x2="128.8031249999" y2="52.6249999999" stroke="rgb(0,0,0)" stroke-width="0.250000000000002" stroke-linecap="round"/>
				<path d="M 130.0075556672431,52.459765624899994 A 0.1907962217712679 0.19079622177126787 0 0 1 130.0075556672431,52.7902343749 L 128.7184360935384,53.53450790779603 A 0.2002757149077556 0.2002757149077817 0 0 1 128.44381026286408,53.262756832556875 L 128.44381026286408,53.26275683255689 A 1.299265788597949 1.299265788597949 0 0 0 128.44381026286408,51.98724316724311 L 128.44381026286408,51.98724316724312 A 0.2002757149077556 0.2002757149077817 0 0 1 128.7184360935384,51.71549209200396 z"/>
				<g>
					<desc>null, supplement, null</desc>
					<text x="121.1249999999" y="51.8249999999" textLength="9.6" lengthAdjust="spacingAndGlyphs" text-anchor="end" font-family="Arial" font-size="3.5733333333333333">down-</text>
					<text x="121.1249999999" y="55.8249999999" textLength="7.8933333333333335" lengthAdjust="spacingAndGlyphs" text-anchor="end" font-family="Arial" font-size="3.5733333333333333">long!</text>
				</g>
			</g>
		</g>
		<g class="clickEl 5b2ddad80000bca80137c44d62ba97d8">
			<desc>Stop-decreasing, fmc.pn.transition, 5b2477590000bca8013772f6d6a43519</desc>
			<g>
				<desc>null, figure.plane, null</desc>
				<path d=" M 130.1249999999,125.1249999999 L 160.1249999999,125.1249999999 L 160.1249999999,110.1249999999 L 130.1249999999,110.1249999999 z" fill="rgb(255,255,255)"/>
				<line x1="130.1249999999" y1="125.1249999999" x2="160.1249999999" y2="125.1249999999" stroke="rgb(0,0,0)" stroke-width="0.5000000000000016" stroke-linecap="round"/>
				<line x1="160.1249999999" y1="125.1249999999" x2="160.1249999999" y2="110.1249999999" stroke="rgb(0,0,0)" stroke-width="0.5000000000000016" stroke-linecap="round"/>
				<line x1="160.1249999999" y1="110.1249999999" x2="130.1249999999" y2="110.1249999999" stroke="rgb(0,0,0)" stroke-width="0.5000000000000016" stroke-linecap="round"/>
				<line x1="130.1249999999" y1="110.1249999999" x2="130.1249999999" y2="125.1249999999" stroke="rgb(0,0,0)" stroke-width="0.5000000000000016" stroke-linecap="round"/>
				<g>
					<desc>null, supplement, null</desc>
					<text x="145.1249999999" y="116.6249999999" textLength="10.666666666666666" lengthAdjust="spacingAndGlyphs" text-anchor="middle" font-family="Arial" font-size="4.466666666666667">Stop-</text>
					<text x="145.1249999999" y="121.6249999999" textLength="21.8" lengthAdjust="spacingAndGlyphs" text-anchor="middle" font-family="Arial" font-size="4.466666666666667">decreasing</text>
				</g>
			</g>
		</g>
		<g class="clickEl 45428b930000c3a80141e28b7d4b5ae5">
			<desc>min-reached!, fmc.pn.message, 5b24920a0000bca801371780625fd458</desc>
			<g>
				<desc>null, figure.lineshape, null</desc>
				<line x1="161.44687499990002" y1="117.6249999999" x2="165.1249999999" y2="117.6249999999" stroke="rgb(0,0,0)" stroke-width="0.250000000000002" stroke-linecap="round"/>
				<path d="M 165.1249999999,117.6249999999 A 2.5 2.5 0 0 0 167.6249999999,115.1249999999" stroke="rgb(0,0,0)" stroke-width="0.250000000000002" fill="none" stroke-linecap="round"/>
				<line x1="167.6249999999" y1="115.1249999999" x2="167.6249999999" y2="72.7187499999" stroke="rgb(0,0,0)" stroke-width="0.250000000000002" stroke-linecap="round"/>
				<path d="M 160.24244433255691,117.79023437490001 A 0.19079622177127398 0.19079622177127406 0 0 1 160.24244433255691,117.45976562489999 L 161.53156390626162,116.71549209200396 A 0.20027571490775908 0.20027571490778173 0 0 1 161.80618973693595,116.98724316724312 L 161.80618973693595,116.98724316724311 A 1.2992657885979493 1.2992657885979488 0 0 0 161.80618973693595,118.26275683255689 L 161.80618973693595,118.26275683255687 A 0.20027571490775908 0.20027571490778173 0 0 1 161.53156390626162,118.53450790779604 z"/>
				<g>
					<desc>null, supplement, null</desc>
					<text x="169.1249999999" y="116.8249999999" textLength="6.986666666666666" lengthAdjust="spacingAndGlyphs" text-anchor="start" font-family="Arial" font-size="3.5733333333333333">min-</text>
					<text x="169.1249999999" y="120.8249999999" textLength="14.026666666666667" lengthAdjust="spacingAndGlyphs" text-anchor="start" font-family="Arial" font-size="3.5733333333333333">reached!</text>
				</g>
			</g>
		</g>
		<g>
			<desc>, fmc.pn.message, 5b29c8720000bca801375969152e439c</desc>
			<g>
				<desc>null, figure.lineshape, null</desc>
				<line x1="114.59133846517453" y1="120.90223077535755" x2="118.83876061133118" y2="127.98126768561865" stroke="rgb(0,0,0)" stroke-width="0.250000000000002" stroke-linecap="round"/>
				<path d="M 118.83876061133118,127.98126768561865 A 4.415475947422648 4.4154759474226495 0 0 0 122.6249999999,130.1249999999" stroke="rgb(0,0,0)" stroke-width="0.250000000000002" fill="none" stroke-linecap="round"/>
				<line x1="122.6249999999" y1="130.1249999999" x2="202.6249999999" y2="130.1249999999" stroke="rgb(0,0,0)" stroke-width="0.250000000000002" stroke-linecap="round"/>
				<path d="M 202.6249999999,130.1249999999 A 2.5 2.500000000000014 0 0 0 205.1249999999,127.6249999999" stroke="rgb(0,0,0)" stroke-width="0.250000000000002" fill="none" stroke-linecap="round"/>
				<line x1="205.1249999999" y1="127.6249999999" x2="205.1249999999" y2="125.21874999989998" stroke="rgb(0,0,0)" stroke-width="0.250000000000002" stroke-linecap="round"/>
				<path d="M 113.82997669147272,119.95445238318781 A 0.19079622177126213 0.19079622177125455 0 0 1 114.11335130676679,119.78442761401138 L 115.41480714492984,120.5069129553087 A 0.20027571490778107 0.20027571490775534 0 0 1 115.3230763445702,120.88221743707325 L 115.3230763445702,120.88221743707325 A 1.2992657885979375 1.2992657885979448 0 0 0 114.22933239991396,121.538463803867 L 114.22933239991393,121.538463803867 A 0.20027571490775267 0.20027571490778942 0 0 1 113.85501395112891,121.44278887158923 z"/>
			</g>
		</g>
		<g>
			<desc>, fmc.pn.message, 5b2a2e170000bca8013727d431fdcb1c</desc>
			<g>
				<desc>null, figure.lineshape, null</desc>
				<line x1="116.4468749999" y1="117.6249999999" x2="117.6249999999" y2="117.6249999999" stroke="rgb(0,0,0)" stroke-width="0.250000000000002" stroke-linecap="round"/>
				<line x1="117.6249999999" y1="117.6249999999" x2="130.0312499999" y2="117.6249999999" stroke="rgb(0,0,0)" stroke-width="0.250000000000002" stroke-linecap="round"/>
				<path d="M 115.24244433255689,117.7902343749 A 0.19079622177125463 0.1907962217712546 0 0 1 115.24244433255689,117.4597656249 L 116.53156390626158,116.71549209200397 A 0.20027571490779084 0.20027571490774998 0 0 1 116.80618973693593,116.9872431672431 L 116.80618973693593,116.98724316724311 A 1.2992657885979493 1.2992657885979488 0 0 0 116.80618973693593,118.26275683255689 L 116.80618973693593,118.2627568325569 A 0.20027571490779084 0.20027571490774998 0 0 1 116.53156390626158,118.53450790779603 z"/>
			</g>
		</g>
		<g class="clickEl 5b1750f80000bca801373b2d143d7478">
			<desc>Start-increasing, fmc.pn.transition, 5b2c9c330000bca80137aa0e39080038</desc>
			<g>
				<desc>null, figure.plane, null</desc>
				<path d=" M 65.1249999999,95.1249999999 L 95.1249999999,95.1249999999 L 95.1249999999,80.1249999999 L 65.1249999999,80.1249999999 z" fill="rgb(255,255,255)"/>
				<line x1="65.1249999999" y1="95.1249999999" x2="95.1249999999" y2="95.1249999999" stroke="rgb(0,0,0)" stroke-width="0.5000000000000016" stroke-linecap="round"/>
				<line x1="95.1249999999" y1="95.1249999999" x2="95.1249999999" y2="80.1249999999" stroke="rgb(0,0,0)" stroke-width="0.5000000000000016" stroke-linecap="round"/>
				<line x1="95.1249999999" y1="80.1249999999" x2="65.1249999999" y2="80.1249999999" stroke="rgb(0,0,0)" stroke-width="0.5000000000000016" stroke-linecap="round"/>
				<line x1="65.1249999999" y1="80.1249999999" x2="65.1249999999" y2="95.1249999999" stroke="rgb(0,0,0)" stroke-width="0.5000000000000016" stroke-linecap="round"/>
				<g>
					<desc>null, supplement, null</desc>
					<text x="80.1249999999" y="86.6249999999" textLength="10.933333333333334" lengthAdjust="spacingAndGlyphs" text-anchor="middle" font-family="Arial" font-size="4.466666666666667">Start-</text>
					<text x="80.1249999999" y="91.6249999999" textLength="20.333333333333332" lengthAdjust="spacingAndGlyphs" text-anchor="middle" font-family="Arial" font-size="4.466666666666667">increasing</text>
				</g>
			</g>
		</g>
		<g class="clickEl 5b2449180000bca8013722c01c9d35a5">
			<desc>Stop-increasing, fmc.pn.transition, 5b2d92b10000bca80137975218b76aa3</desc>
			<g>
				<desc>null, figure.plane, null</desc>
				<path d=" M 65.1249999999,60.1249999999 L 95.1249999999,60.1249999999 L 95.1249999999,45.1249999999 L 65.1249999999,45.1249999999 z" fill="rgb(255,255,255)"/>
				<line x1="65.1249999999" y1="60.1249999999" x2="95.1249999999" y2="60.1249999999" stroke="rgb(0,0,0)" stroke-width="0.5000000000000016" stroke-linecap="round"/>
				<line x1="95.1249999999" y1="60.1249999999" x2="95.1249999999" y2="45.1249999999" stroke="rgb(0,0,0)" stroke-width="0.5000000000000016" stroke-linecap="round"/>
				<line x1="95.1249999999" y1="45.1249999999" x2="65.1249999999" y2="45.1249999999" stroke="rgb(0,0,0)" stroke-width="0.5000000000000016" stroke-linecap="round"/>
				<line x1="65.1249999999" y1="45.1249999999" x2="65.1249999999" y2="60.1249999999" stroke="rgb(0,0,0)" stroke-width="0.5000000000000016" stroke-linecap="round"/>
				<g>
					<desc>null, supplement, null</desc>
					<text x="80.1249999999" y="51.6249999999" textLength="10.666666666666666" lengthAdjust="spacingAndGlyphs" text-anchor="middle" font-family="Arial" font-size="4.466666666666667">Stop-</text>
					<text x="80.1249999999" y="56.6249999999" textLength="20.333333333333332" lengthAdjust="spacingAndGlyphs" text-anchor="middle" font-family="Arial" font-size="4.466666666666667">increasing</text>
				</g>
			</g>
		</g>
		<g class="clickEl 5b149eab0000bca80137aad99b6eea7b">
			<desc>Increasing, fmc.pn.place, 5b2f6c3d0000bca80137cffba9b44917</desc>
			<g>
				<desc>null, figure.plane, null</desc>
				<path d="M 55.1249999999,70.1249999999 A 2.5 2.5 0 0 0 57.6249999999,72.6249999999 L 57.6249999999,72.6249999999 A 2.5 2.5 0 0 0 60.1249999999,70.1249999999 L 60.1249999999,70.1249999999 A 2.5 2.5 0 0 0 57.6249999999,67.6249999999 L 57.6249999999,67.6249999999 A 2.5 2.5 0 0 0 55.1249999999,70.1249999999 z" fill="rgb(255,255,255)"/>
				<path d="M 55.1249999999,70.1249999999 A 2.5 2.5 0 0 0 57.6249999999,72.6249999999" stroke="rgb(0,0,0)" stroke-width="0.5000000000000016" fill="none" stroke-linecap="round"/>
				<path d="M 57.6249999999,72.6249999999 A 2.5 2.5 0 0 0 60.1249999999,70.1249999999" stroke="rgb(0,0,0)" stroke-width="0.5000000000000016" fill="none" stroke-linecap="round"/>
				<path d="M 60.1249999999,70.1249999999 A 2.5 2.5 0 0 0 57.6249999999,67.6249999999" stroke="rgb(0,0,0)" stroke-width="0.5000000000000016" fill="none" stroke-linecap="round"/>
				<path d="M 57.6249999999,67.6249999999 A 2.5 2.5 0 0 0 55.1249999999,70.1249999999" stroke="rgb(0,0,0)" stroke-width="0.5000000000000016" fill="none" stroke-linecap="round"/>
				<g>
					<desc>null, supplement, null</desc>
					<text x="53.6249999999" y="71.59935897425898" textLength="21.474358974358974" lengthAdjust="spacingAndGlyphs" text-anchor="end" font-family="Arial" font-size="4.294871794871795" font-weight="bold">Increasing</text>
				</g>
			</g>
		</g>
		<g class="clickEl 453facbb0000c3a80141c43d2fb4f5e2">
			<desc>released!, fmc.pn.message, 5b2fc7d40000bca801378b7a81a7183f</desc>
			<g>
				<desc>null, figure.lineshape, null</desc>
				<line x1="63.80312499990001" y1="52.6249999999" x2="60.1249999999" y2="52.6249999999" stroke="rgb(0,0,0)" stroke-width="0.250000000000002" stroke-linecap="round"/>
				<path d="M 60.1249999999,52.6249999999 A 2.5 2.5 0 0 0 57.6249999999,55.1249999999" stroke="rgb(0,0,0)" stroke-width="0.250000000000002" fill="none" stroke-linecap="round"/>
				<line x1="57.6249999999" y1="55.1249999999" x2="57.6249999999" y2="67.5312499999" stroke="rgb(0,0,0)" stroke-width="0.250000000000002" stroke-linecap="round"/>
				<path d="M 65.00755566724311,52.459765624899994 A 0.1907962217712679 0.19079622177126787 0 0 1 65.00755566724311,52.7902343749 L 63.71843609353841,53.534507907796026 A 0.20027571490777496 0.2002757149077597 0 0 1 63.44381026286407,53.262756832556896 L 63.44381026286407,53.26275683255689 A 1.2992657885979368 1.2992657885979368 0 0 0 63.44381026286407,51.98724316724311 L 63.44381026286407,51.9872431672431 A 0.20027571490777496 0.2002757149077597 0 0 1 63.71843609353841,51.71549209200397 z"/>
				<g>
					<desc>null, supplement, null</desc>
					<text x="56.1249999999" y="53.8249999999" textLength="14.826666666666666" lengthAdjust="spacingAndGlyphs" text-anchor="end" font-family="Arial" font-size="3.5733333333333333">released!</text>
				</g>
			</g>
		</g>
		<g>
			<desc>, fmc.pn.message, 5b3036100000bca80137157f7cc1a16d</desc>
			<g>
				<desc>null, figure.lineshape, null</desc>
				<line x1="65.0312499999" y1="87.6249999999" x2="60.1249999999" y2="87.6249999999" stroke="rgb(0,0,0)" stroke-width="0.250000000000002" stroke-linecap="round"/>
				<path d="M 60.1249999999,87.6249999999 A 2.5 2.5 0 0 1 57.6249999999,85.1249999999" stroke="rgb(0,0,0)" stroke-width="0.250000000000002" fill="none" stroke-linecap="round"/>
				<line x1="57.6249999999" y1="85.1249999999" x2="57.6249999999" y2="73.9468749999" stroke="rgb(0,0,0)" stroke-width="0.250000000000002" stroke-linecap="round"/>
				<path d="M 57.4597656249,72.7424443325569 A 0.19079622177126077 0.19079622177125458 0 0 1 57.79023437490001,72.7424443325569 L 58.53450790779603,74.03156390626162 A 0.20027571490778168 0.20027571490775561 0 0 1 58.262756832556875,74.30618973693593 L 58.26275683255689,74.30618973693593 A 1.2992657885979482 1.299265788597949 0 0 0 56.98724316724311,74.30618973693593 L 56.987243167243115,74.30618973693593 A 0.20027571490777554 0.20027571490775908 0 0 1 56.71549209200396,74.03156390626162 z"/>
			</g>
		</g>
		<g class="clickEl 5b2449180000bca8013722c01c9d35a5">
			<desc>Stop-increasing, fmc.pn.transition, 5b30f4fb0000bca8013754930e490890</desc>
			<g>
				<desc>null, figure.plane, null</desc>
				<path d=" M 65.1249999999,30.124999999899998 L 95.1249999999,30.124999999899998 L 95.1249999999,15.124999999899998 L 65.1249999999,15.124999999899998 z" fill="rgb(255,255,255)"/>
				<line x1="65.1249999999" y1="30.124999999899998" x2="95.1249999999" y2="30.124999999899998" stroke="rgb(0,0,0)" stroke-width="0.5000000000000016" stroke-linecap="round"/>
				<line x1="95.1249999999" y1="30.124999999899998" x2="95.1249999999" y2="15.124999999899998" stroke="rgb(0,0,0)" stroke-width="0.5000000000000016" stroke-linecap="round"/>
				<line x1="95.1249999999" y1="15.124999999899998" x2="65.1249999999" y2="15.124999999899998" stroke="rgb(0,0,0)" stroke-width="0.5000000000000016" stroke-linecap="round"/>
				<line x1="65.1249999999" y1="15.124999999899998" x2="65.1249999999" y2="30.124999999899998" stroke="rgb(0,0,0)" stroke-width="0.5000000000000016" stroke-linecap="round"/>
				<g>
					<desc>null, supplement, null</desc>
					<text x="80.1249999999" y="21.624999999899998" textLength="10.666666666666666" lengthAdjust="spacingAndGlyphs" text-anchor="middle" font-family="Arial" font-size="4.466666666666667">Stop-</text>
					<text x="80.1249999999" y="26.624999999899998" textLength="20.333333333333332" lengthAdjust="spacingAndGlyphs" text-anchor="middle" font-family="Arial" font-size="4.466666666666667">increasing</text>
				</g>
			</g>
		</g>
		<g>
			<desc>, fmc.pn.message, 5b3114000000bca80137f63808c1f300</desc>
			<g>
				<desc>null, figure.lineshape, null</desc>
				<line x1="95.2187499999" y1="22.624999999899998" x2="108.80312499989999" y2="22.624999999899998" stroke="rgb(0,0,0)" stroke-width="0.250000000000002" stroke-linecap="round"/>
				<path d="M 110.00755566724311,22.459765624899998 A 0.19079622177125766 0.19079622177125768 0 0 1 110.00755566724311,22.7902343749 L 108.7184360935384,23.534507907796034 A 0.2002757149077767 0.20027571490776633 0 0 1 108.44381026286406,23.262756832556892 L 108.44381026286406,23.26275683255689 A 1.299265788597949 1.299265788597949 0 0 0 108.44381026286406,21.987243167243108 L 108.44381026286406,21.987243167243104 A 0.2002757149077767 0.20027571490776633 0 0 1 108.7184360935384,21.715492092003963 z"/>
			</g>
		</g>
		<g class="clickEl 453dfb670000c3a8014191107df4565e">
			<desc>max-reached!, fmc.pn.message, 5b3143e50000bca801378c6a845216f7</desc>
			<g>
				<desc>null, figure.lineshape, null</desc>
				<line x1="63.80312499990001" y1="22.624999999899998" x2="60.1249999999" y2="22.624999999899998" stroke="rgb(0,0,0)" stroke-width="0.250000000000002" stroke-linecap="round"/>
				<path d="M 60.1249999999,22.624999999899998 A 2.5 2.5 0 0 0 57.6249999999,25.124999999899998" stroke="rgb(0,0,0)" stroke-width="0.250000000000002" fill="none" stroke-linecap="round"/>
				<line x1="57.6249999999" y1="25.124999999899998" x2="57.6249999999" y2="67.5312499999" stroke="rgb(0,0,0)" stroke-width="0.250000000000002" stroke-linecap="round"/>
				<path d="M 65.00755566724311,22.459765624899998 A 0.19079622177125766 0.19079622177125768 0 0 1 65.00755566724311,22.7902343749 L 63.71843609353841,23.53450790779603 A 0.2002757149077767 0.2002757149077566 0 0 1 63.44381026286407,23.262756832556903 L 63.44381026286407,23.262756832556892 A 1.2992657885979448 1.2992657885979442 0 0 0 63.44381026286407,21.987243167243104 L 63.44381026286407,21.987243167243093 A 0.2002757149077767 0.2002757149077566 0 0 1 63.71843609353841,21.715492092003966 z"/>
				<g>
					<desc>null, supplement, null</desc>
					<text x="56.1249999999" y="21.824999999899998" textLength="7.8933333333333335" lengthAdjust="spacingAndGlyphs" text-anchor="end" font-family="Arial" font-size="3.5733333333333333">max-</text>
					<text x="56.1249999999" y="25.824999999899998" textLength="14.026666666666667" lengthAdjust="spacingAndGlyphs" text-anchor="end" font-family="Arial" font-size="3.5733333333333333">reached!</text>
				</g>
			</g>
		</g>
		<g>
			<desc>, fmc.pn.message, 5b3783a20000bca80137b20db7ca147e</desc>
			<g>
				<desc>null, figure.lineshape, null</desc>
				<line x1="110.65866153462538" y1="19.34776922444233" x2="106.41123938846881" y2="12.268732314181362" stroke="rgb(0,0,0)" stroke-width="0.250000000000002" stroke-linecap="round"/>
				<path d="M 106.41123938846881,12.268732314181364 A 4.415475947422648 4.4154759474226495 0 0 0 102.6249999999,10.124999999899998" stroke="rgb(0,0,0)" stroke-width="0.250000000000002" fill="none" stroke-linecap="round"/>
				<line x1="102.6249999999" y1="10.124999999899998" x2="22.624999999899998" y2="10.124999999899998" stroke="rgb(0,0,0)" stroke-width="0.250000000000002" stroke-linecap="round"/>
				<path d="M 22.6249999999,10.124999999899998 A 2.5 2.5 0 0 0 20.1249999999,12.624999999899998" stroke="rgb(0,0,0)" stroke-width="0.250000000000002" fill="none" stroke-linecap="round"/>
				<line x1="20.1249999999" y1="12.624999999899998" x2="20.1249999999" y2="15.031249999899998" stroke="rgb(0,0,0)" stroke-width="0.250000000000002" stroke-linecap="round"/>
				<path d="M 111.42002330832719,20.29554761661207 A 0.19079622177126218 0.19079622177125458 0 0 1 111.13664869303312,20.46557238578851 L 109.83519285487007,19.743087044491205 A 0.20027571490776863 0.2002757149077731 0 0 1 109.92692365522971,19.367782562726624 L 109.92692365522971,19.367782562726624 A 1.2992657885979637 1.2992657885979626 0 0 0 111.02066759988597,18.711536195932883 L 111.02066759988598,18.711536195932883 A 0.20027571490775267 0.2002757149077753 0 0 1 111.394986048671,18.807211128210653 z"/>
			</g>
		</g>
	</g>
</svg>
