<?xml version="1.0" encoding="UTF-8"?>
<svg width="225.49999999980002mm" height="220.49999999980002mm" viewBox="0.0 0.0 225.49999999980002 220.49999999980002" xmlns="http://www.w3.org/2000/svg" xmlns:xlink="http://www.w3.org/1999/xlink" xmlns:ev="http://www.w3.org/2001/xml-events" version="1.1">
	<g class="diagram" id="5a4755dd0000bca801375293a62c90a8" >
		<desc>SmartHome System, fmc.bd, 5a4755dd0000bca801375293a62c90a8</desc>
		<g class="clickEl 5a47935a0000bca801377c17f8cb25b0">
			<desc>User, fmc.bd.agent, 5a4772620000bca80137aece9e5b77ec</desc>
			<g>
				<desc>null, figure.plane, null</desc>
				<path d=" M 0.2499999999,110.2499999999 L 15.2499999999,110.2499999999 L 15.2499999999,85.2499999999 L 0.2499999999,85.2499999999 z" fill="rgb(255,255,255)"/>
				<line x1="0.2499999999" y1="110.2499999999" x2="15.2499999999" y2="110.2499999999" stroke="rgb(0,0,0)" stroke-width="0.5000000000000016" stroke-linecap="round"/>
				<line x1="15.2499999999" y1="110.2499999999" x2="15.2499999999" y2="85.2499999999" stroke="rgb(0,0,0)" stroke-width="0.5000000000000016" stroke-linecap="round"/>
				<line x1="15.2499999999" y1="85.2499999999" x2="0.2499999999" y2="85.2499999999" stroke="rgb(0,0,0)" stroke-width="0.5000000000000016" stroke-linecap="round"/>
				<line x1="0.2499999999" y1="85.2499999999" x2="0.2499999999" y2="110.2499999999" stroke="rgb(0,0,0)" stroke-width="0.5000000000000016" stroke-linecap="round"/>
				<g>
					<desc>null, supplement, null</desc>
					<line x1="7.7499999999" y1="95.9999999999" x2="7.7499999999" y2="99.9999999999" stroke="rgb(0,0,0)" stroke-width="0.2500000000000008" stroke-linecap="round"/>
					<line x1="11.2499999999" y1="95.9999999999" x2="7.7499999999" y2="97.7499999999" stroke="rgb(0,0,0)" stroke-width="0.2500000000000008" stroke-linecap="round"/>
					<line x1="7.7499999999" y1="97.7499999999" x2="4.2499999999" y2="95.9999999999" stroke="rgb(0,0,0)" stroke-width="0.2500000000000008" stroke-linecap="round"/>
					<line x1="4.7499999999" y1="103.4999999999" x2="7.7499999999" y2="99.9999999999" stroke="rgb(0,0,0)" stroke-width="0.2500000000000008" stroke-linecap="round"/>
					<line x1="7.7499999999" y1="99.9999999999" x2="10.7499999999" y2="103.4999999999" stroke="rgb(0,0,0)" stroke-width="0.2500000000000008" stroke-linecap="round"/>
					<path d="M 7.7499999999,95.9999999999 A 2.0 2.0 0 0 1 5.7499999999,93.9999999999" stroke="rgb(0,0,0)" stroke-width="0.2500000000000008" fill="none" stroke-linecap="round"/>
					<path d="M 5.7499999999,93.9999999999 A 2.0 2.0 0 0 1 7.7499999999,91.9999999999" stroke="rgb(0,0,0)" stroke-width="0.2500000000000008" fill="none" stroke-linecap="round"/>
					<path d="M 7.7499999999,91.9999999999 A 2.0 2.0 0 0 1 9.7499999999,93.9999999999" stroke="rgb(0,0,0)" stroke-width="0.2500000000000008" fill="none" stroke-linecap="round"/>
					<path d="M 9.7499999999,93.9999999999 A 2.0 2.0 0 0 1 7.7499999999,95.9999999999" stroke="rgb(0,0,0)" stroke-width="0.2500000000000008" fill="none" stroke-linecap="round"/>
				</g>
				<g>
					<desc>null, supplement, null</desc>
					<text x="7.7499999999" y="116.1499999999" textLength="10.34" lengthAdjust="spacingAndGlyphs" text-anchor="middle" font-family="Arial" font-size="4.913333333333334">User</text>
				</g>
			</g>
		</g>
		<g class="clickEl 803fd3750000c3a8013cf1fdb3b26d33">
			<desc>SmartHome System, fmc.bd.storage, 803f8dc70000c3a8013c6f3f8480078f</desc>
			<g>
				<desc>null, figure.plane, null</desc>
				<path d="M 40.2499999999,210.2499999999 A 10.0 10.0 0 0 0 50.2499999999,220.2499999999 L 190.2499999999,220.2499999999 A 10.0 10.0 0 0 0 200.2499999999,210.2499999999 L 200.2499999999,10.249999999899998 A 10.0 10.0 0 0 0 190.2499999999,0.24999999989999822 L 50.2499999999,0.24999999989999822 A 10.0 10.0 0 0 0 40.2499999999,10.249999999899996 z" fill="rgb(241,253,227)"/>
				<path d="M 40.2499999999,210.2499999999 A 10.0 10.0 0 0 0 41.24640397453721,214.6014662599176" stroke="rgb(0,0,0)" stroke-width="0.5000000000000016" fill="none" stroke-linecap="round"/>
				<path d="M 42.44481606285909,216.5013281554969 A 10.0 10.0 0 0 0 45.94277204756108,219.27484278892356" stroke="rgb(0,0,0)" stroke-width="0.5000000000000016" fill="none" stroke-linecap="round"/>
				<path d="M 48.06582074169171,220.0085532209473 A 10.0 10.0 0 0 0 50.2499999999,220.2499999999" stroke="rgb(0,0,0)" stroke-width="0.5000000000000016" fill="none" stroke-linecap="round"/>
				<line x1="50.24999999990001" y1="220.2499999999" x2="52.55008165490366" y2="220.2499999999" stroke="rgb(0,0,0)" stroke-width="0.5000000000000016" stroke-linecap="round"/>
				<line x1="54.80108727027273" y1="220.2499999999" x2="59.303098501010886" y2="220.2499999999" stroke="rgb(0,0,0)" stroke-width="0.5000000000000016" stroke-linecap="round"/>
				<line x1="61.55410411637996" y1="220.2499999999" x2="66.05611534711812" y2="220.2499999999" stroke="rgb(0,0,0)" stroke-width="0.5000000000000016" stroke-linecap="round"/>
				<line x1="68.3071209624872" y1="220.2499999999" x2="72.80913219322537" y2="220.2499999999" stroke="rgb(0,0,0)" stroke-width="0.5000000000000016" stroke-linecap="round"/>
				<line x1="75.06013780859445" y1="220.2499999999" x2="79.56214903933261" y2="220.2499999999" stroke="rgb(0,0,0)" stroke-width="0.5000000000000016" stroke-linecap="round"/>
				<line x1="81.81315465470169" y1="220.2499999999" x2="86.31516588543985" y2="220.2499999999" stroke="rgb(0,0,0)" stroke-width="0.5000000000000016" stroke-linecap="round"/>
				<line x1="88.56617150080893" y1="220.2499999999" x2="93.0681827315471" y2="220.2499999999" stroke="rgb(0,0,0)" stroke-width="0.5000000000000016" stroke-linecap="round"/>
				<line x1="95.31918834691618" y1="220.2499999999" x2="99.82119957765434" y2="220.2499999999" stroke="rgb(0,0,0)" stroke-width="0.5000000000000016" stroke-linecap="round"/>
				<line x1="102.07220519302342" y1="220.2499999999" x2="106.57421642376158" y2="220.2499999999" stroke="rgb(0,0,0)" stroke-width="0.5000000000000016" stroke-linecap="round"/>
				<line x1="108.82522203913067" y1="220.2499999999" x2="113.32723326986883" y2="220.2499999999" stroke="rgb(0,0,0)" stroke-width="0.5000000000000016" stroke-linecap="round"/>
				<line x1="115.57823888523791" y1="220.2499999999" x2="120.08025011597607" y2="220.2499999999" stroke="rgb(0,0,0)" stroke-width="0.5000000000000016" stroke-linecap="round"/>
				<line x1="122.33125573134515" y1="220.2499999999" x2="126.83326696208331" y2="220.2499999999" stroke="rgb(0,0,0)" stroke-width="0.5000000000000016" stroke-linecap="round"/>
				<line x1="129.0842725774524" y1="220.2499999999" x2="133.58628380819056" y2="220.2499999999" stroke="rgb(0,0,0)" stroke-width="0.5000000000000016" stroke-linecap="round"/>
				<line x1="135.83728942355964" y1="220.2499999999" x2="140.3393006542978" y2="220.2499999999" stroke="rgb(0,0,0)" stroke-width="0.5000000000000016" stroke-linecap="round"/>
				<line x1="142.59030626966688" y1="220.2499999999" x2="147.09231750040504" y2="220.2499999999" stroke="rgb(0,0,0)" stroke-width="0.5000000000000016" stroke-linecap="round"/>
				<line x1="149.34332311577413" y1="220.2499999999" x2="153.8453343465123" y2="220.2499999999" stroke="rgb(0,0,0)" stroke-width="0.5000000000000016" stroke-linecap="round"/>
				<line x1="156.09633996188137" y1="220.2499999999" x2="160.59835119261953" y2="220.2499999999" stroke="rgb(0,0,0)" stroke-width="0.5000000000000016" stroke-linecap="round"/>
				<line x1="162.8493568079886" y1="220.2499999999" x2="167.35136803872678" y2="220.2499999999" stroke="rgb(0,0,0)" stroke-width="0.5000000000000016" stroke-linecap="round"/>
				<line x1="169.60237365409586" y1="220.2499999999" x2="174.10438488483402" y2="220.2499999999" stroke="rgb(0,0,0)" stroke-width="0.5000000000000016" stroke-linecap="round"/>
				<line x1="176.3553905002031" y1="220.2499999999" x2="180.85740173094126" y2="220.2499999999" stroke="rgb(0,0,0)" stroke-width="0.5000000000000016" stroke-linecap="round"/>
				<line x1="183.10840734631034" y1="220.2499999999" x2="187.6104185770485" y2="220.2499999999" stroke="rgb(0,0,0)" stroke-width="0.5000000000000016" stroke-linecap="round"/>
				<line x1="189.8614241924176" y1="220.2499999999" x2="190.2499999999001" y2="220.2499999999" stroke="rgb(0,0,0)" stroke-width="0.5000000000000016" stroke-linecap="round"/>
				<path d="M 190.2499999999,220.2499999999 A 10.0 10.0 0 0 0 194.24841158480834,219.41584446714202" stroke="rgb(0,0,0)" stroke-width="0.5000000000000016" fill="none" stroke-linecap="round"/>
				<path d="M 196.1933950257141,218.29214247359 A 10.0 10.0 0 0 0 199.1007039463097,214.90457190857305" stroke="rgb(0,0,0)" stroke-width="0.5000000000000016" fill="none" stroke-linecap="round"/>
				<path d="M 199.9163363063073,212.81162885893337 A 10.0 10.0 0 0 0 200.2499999999,210.2499999999" stroke="rgb(0,0,0)" stroke-width="0.5000000000000016" fill="none" stroke-linecap="round"/>
				<line x1="200.2499999999" y1="210.2499999999" x2="200.2499999999" y2="208.33849415237893" stroke="rgb(0,0,0)" stroke-width="0.5000000000000016" stroke-linecap="round"/>
				<line x1="200.2499999999" y1="206.08748853700985" x2="200.2499999999" y2="201.58547730627168" stroke="rgb(0,0,0)" stroke-width="0.5000000000000016" stroke-linecap="round"/>
				<line x1="200.2499999999" y1="199.3344716909026" x2="200.2499999999" y2="194.83246046016444" stroke="rgb(0,0,0)" stroke-width="0.5000000000000016" stroke-linecap="round"/>
				<line x1="200.2499999999" y1="192.58145484479536" x2="200.2499999999" y2="188.0794436140572" stroke="rgb(0,0,0)" stroke-width="0.5000000000000016" stroke-linecap="round"/>
				<line x1="200.2499999999" y1="185.82843799868812" x2="200.2499999999" y2="181.32642676794995" stroke="rgb(0,0,0)" stroke-width="0.5000000000000016" stroke-linecap="round"/>
				<line x1="200.2499999999" y1="179.07542115258087" x2="200.2499999999" y2="174.5734099218427" stroke="rgb(0,0,0)" stroke-width="0.5000000000000016" stroke-linecap="round"/>
				<line x1="200.2499999999" y1="172.32240430647363" x2="200.2499999999" y2="167.82039307573547" stroke="rgb(0,0,0)" stroke-width="0.5000000000000016" stroke-linecap="round"/>
				<line x1="200.2499999999" y1="165.56938746036639" x2="200.2499999999" y2="161.06737622962822" stroke="rgb(0,0,0)" stroke-width="0.5000000000000016" stroke-linecap="round"/>
				<line x1="200.2499999999" y1="158.81637061425914" x2="200.2499999999" y2="154.31435938352098" stroke="rgb(0,0,0)" stroke-width="0.5000000000000016" stroke-linecap="round"/>
				<line x1="200.2499999999" y1="152.0633537681519" x2="200.2499999999" y2="147.56134253741374" stroke="rgb(0,0,0)" stroke-width="0.5000000000000016" stroke-linecap="round"/>
				<line x1="200.2499999999" y1="145.31033692204466" x2="200.2499999999" y2="140.8083256913065" stroke="rgb(0,0,0)" stroke-width="0.5000000000000016" stroke-linecap="round"/>
				<line x1="200.2499999999" y1="138.5573200759374" x2="200.2499999999" y2="134.05530884519925" stroke="rgb(0,0,0)" stroke-width="0.5000000000000016" stroke-linecap="round"/>
				<line x1="200.2499999999" y1="131.80430322983017" x2="200.2499999999" y2="127.302291999092" stroke="rgb(0,0,0)" stroke-width="0.5000000000000016" stroke-linecap="round"/>
				<line x1="200.2499999999" y1="125.05128638372292" x2="200.2499999999" y2="120.54927515298476" stroke="rgb(0,0,0)" stroke-width="0.5000000000000016" stroke-linecap="round"/>
				<line x1="200.2499999999" y1="118.29826953761568" x2="200.2499999999" y2="113.79625830687752" stroke="rgb(0,0,0)" stroke-width="0.5000000000000016" stroke-linecap="round"/>
				<line x1="200.2499999999" y1="111.54525269150844" x2="200.2499999999" y2="107.04324146077028" stroke="rgb(0,0,0)" stroke-width="0.5000000000000016" stroke-linecap="round"/>
				<line x1="200.2499999999" y1="104.7922358454012" x2="200.2499999999" y2="100.29022461466303" stroke="rgb(0,0,0)" stroke-width="0.5000000000000016" stroke-linecap="round"/>
				<line x1="200.2499999999" y1="98.03921899929395" x2="200.2499999999" y2="93.53720776855579" stroke="rgb(0,0,0)" stroke-width="0.5000000000000016" stroke-linecap="round"/>
				<line x1="200.2499999999" y1="91.28620215318671" x2="200.2499999999" y2="86.78419092244854" stroke="rgb(0,0,0)" stroke-width="0.5000000000000016" stroke-linecap="round"/>
				<line x1="200.2499999999" y1="84.53318530707946" x2="200.2499999999" y2="80.0311740763413" stroke="rgb(0,0,0)" stroke-width="0.5000000000000016" stroke-linecap="round"/>
				<line x1="200.2499999999" y1="77.78016846097222" x2="200.2499999999" y2="73.27815723023406" stroke="rgb(0,0,0)" stroke-width="0.5000000000000016" stroke-linecap="round"/>
				<line x1="200.2499999999" y1="71.02715161486498" x2="200.2499999999" y2="66.52514038412681" stroke="rgb(0,0,0)" stroke-width="0.5000000000000016" stroke-linecap="round"/>
				<line x1="200.2499999999" y1="64.27413476875773" x2="200.2499999999" y2="59.77212353801958" stroke="rgb(0,0,0)" stroke-width="0.5000000000000016" stroke-linecap="round"/>
				<line x1="200.2499999999" y1="57.521117922650504" x2="200.2499999999" y2="53.01910669191235" stroke="rgb(0,0,0)" stroke-width="0.5000000000000016" stroke-linecap="round"/>
				<line x1="200.2499999999" y1="50.768101076543275" x2="200.2499999999" y2="46.26608984580512" stroke="rgb(0,0,0)" stroke-width="0.5000000000000016" stroke-linecap="round"/>
				<line x1="200.2499999999" y1="44.015084230436045" x2="200.2499999999" y2="39.51307299969789" stroke="rgb(0,0,0)" stroke-width="0.5000000000000016" stroke-linecap="round"/>
				<line x1="200.2499999999" y1="37.262067384328816" x2="200.2499999999" y2="32.76005615359066" stroke="rgb(0,0,0)" stroke-width="0.5000000000000016" stroke-linecap="round"/>
				<line x1="200.2499999999" y1="30.509050538221583" x2="200.2499999999" y2="26.007039307483428" stroke="rgb(0,0,0)" stroke-width="0.5000000000000016" stroke-linecap="round"/>
				<line x1="200.2499999999" y1="23.75603369211435" x2="200.2499999999" y2="19.254022461376195" stroke="rgb(0,0,0)" stroke-width="0.5000000000000016" stroke-linecap="round"/>
				<line x1="200.2499999999" y1="17.003016846007117" x2="200.2499999999" y2="12.501005615268962" stroke="rgb(0,0,0)" stroke-width="0.5000000000000016" stroke-linecap="round"/>
				<path d="M 200.2499999999,10.249999999900073 A 10.0 10.0 0 0 0 199.25359602526282,5.8985337398824855" stroke="rgb(0,0,0)" stroke-width="0.5000000000000016" fill="none" stroke-linecap="round"/>
				<path d="M 198.05518393694098,3.9986718443031553 A 10.0 10.0 0 0 0 194.557227952239,1.2251572108764837" stroke="rgb(0,0,0)" stroke-width="0.5000000000000016" fill="none" stroke-linecap="round"/>
				<path d="M 192.43417925810837,0.49144677885271193 A 10.0 10.0 0 0 0 190.2499999999,0.24999999989999822" stroke="rgb(0,0,0)" stroke-width="0.5000000000000016" fill="none" stroke-linecap="round"/>
				<line x1="190.2499999999" y1="0.24999999989999822" x2="187.94991834489642" y2="0.24999999989999822" stroke="rgb(0,0,0)" stroke-width="0.5000000000000016" stroke-linecap="round"/>
				<line x1="185.69891272952734" y1="0.24999999989999822" x2="181.19690149878917" y2="0.24999999989999822" stroke="rgb(0,0,0)" stroke-width="0.5000000000000016" stroke-linecap="round"/>
				<line x1="178.9458958834201" y1="0.24999999989999822" x2="174.44388465268193" y2="0.24999999989999822" stroke="rgb(0,0,0)" stroke-width="0.5000000000000016" stroke-linecap="round"/>
				<line x1="172.19287903731285" y1="0.24999999989999822" x2="167.6908678065747" y2="0.24999999989999822" stroke="rgb(0,0,0)" stroke-width="0.5000000000000016" stroke-linecap="round"/>
				<line x1="165.4398621912056" y1="0.24999999989999822" x2="160.93785096046744" y2="0.24999999989999822" stroke="rgb(0,0,0)" stroke-width="0.5000000000000016" stroke-linecap="round"/>
				<line x1="158.68684534509836" y1="0.24999999989999822" x2="154.1848341143602" y2="0.24999999989999822" stroke="rgb(0,0,0)" stroke-width="0.5000000000000016" stroke-linecap="round"/>
				<line x1="151.93382849899112" y1="0.24999999989999822" x2="147.43181726825296" y2="0.24999999989999822" stroke="rgb(0,0,0)" stroke-width="0.5000000000000016" stroke-linecap="round"/>
				<line x1="145.18081165288388" y1="0.24999999989999822" x2="140.6788004221457" y2="0.24999999989999822" stroke="rgb(0,0,0)" stroke-width="0.5000000000000016" stroke-linecap="round"/>
				<line x1="138.42779480677663" y1="0.24999999989999822" x2="133.92578357603847" y2="0.24999999989999822" stroke="rgb(0,0,0)" stroke-width="0.5000000000000016" stroke-linecap="round"/>
				<line x1="131.6747779606694" y1="0.24999999989999822" x2="127.17276672993123" y2="0.24999999989999822" stroke="rgb(0,0,0)" stroke-width="0.5000000000000016" stroke-linecap="round"/>
				<line x1="124.92176111456214" y1="0.24999999989999822" x2="120.41974988382398" y2="0.24999999989999822" stroke="rgb(0,0,0)" stroke-width="0.5000000000000016" stroke-linecap="round"/>
				<line x1="118.1687442684549" y1="0.24999999989999822" x2="113.66673303771674" y2="0.24999999989999822" stroke="rgb(0,0,0)" stroke-width="0.5000000000000016" stroke-linecap="round"/>
				<line x1="111.41572742234766" y1="0.24999999989999822" x2="106.9137161916095" y2="0.24999999989999822" stroke="rgb(0,0,0)" stroke-width="0.5000000000000016" stroke-linecap="round"/>
				<line x1="104.66271057624041" y1="0.24999999989999822" x2="100.16069934550225" y2="0.24999999989999822" stroke="rgb(0,0,0)" stroke-width="0.5000000000000016" stroke-linecap="round"/>
				<line x1="97.90969373013317" y1="0.24999999989999822" x2="93.40768249939501" y2="0.24999999989999822" stroke="rgb(0,0,0)" stroke-width="0.5000000000000016" stroke-linecap="round"/>
				<line x1="91.15667688402593" y1="0.24999999989999822" x2="86.65466565328776" y2="0.24999999989999822" stroke="rgb(0,0,0)" stroke-width="0.5000000000000016" stroke-linecap="round"/>
				<line x1="84.40366003791868" y1="0.24999999989999822" x2="79.90164880718052" y2="0.24999999989999822" stroke="rgb(0,0,0)" stroke-width="0.5000000000000016" stroke-linecap="round"/>
				<line x1="77.65064319181144" y1="0.24999999989999822" x2="73.14863196107328" y2="0.24999999989999822" stroke="rgb(0,0,0)" stroke-width="0.5000000000000016" stroke-linecap="round"/>
				<line x1="70.8976263457042" y1="0.24999999989999822" x2="66.39561511496603" y2="0.24999999989999822" stroke="rgb(0,0,0)" stroke-width="0.5000000000000016" stroke-linecap="round"/>
				<line x1="64.14460949959695" y1="0.24999999989999822" x2="59.6425982688588" y2="0.24999999989999822" stroke="rgb(0,0,0)" stroke-width="0.5000000000000016" stroke-linecap="round"/>
				<line x1="57.391592653489724" y1="0.24999999989999822" x2="52.88958142275157" y2="0.24999999989999822" stroke="rgb(0,0,0)" stroke-width="0.5000000000000016" stroke-linecap="round"/>
				<line x1="50.638575807382495" y1="0.24999999989999822" x2="50.24999999989991" y2="0.24999999989999822" stroke="rgb(0,0,0)" stroke-width="0.5000000000000016" stroke-linecap="round"/>
				<path d="M 50.2499999999,0.24999999989999822 A 10.0 10.0 0 0 0 46.25158841499173,1.0841555326579684" stroke="rgb(0,0,0)" stroke-width="0.5000000000000016" fill="none" stroke-linecap="round"/>
				<path d="M 44.30660497408599,2.2078575262099616 A 10.0 10.0 0 0 0 41.399296053490346,5.595428091226906" stroke="rgb(0,0,0)" stroke-width="0.5000000000000016" fill="none" stroke-linecap="round"/>
				<path d="M 40.58366369349274,7.68837114086657 A 10.0 10.0 0 0 0 40.2499999999,10.249999999899993" stroke="rgb(0,0,0)" stroke-width="0.5000000000000016" fill="none" stroke-linecap="round"/>
				<line x1="40.2499999999" y1="10.249999999899996" x2="40.2499999999" y2="12.161505847420989" stroke="rgb(0,0,0)" stroke-width="0.5000000000000016" stroke-linecap="round"/>
				<line x1="40.2499999999" y1="14.412511462790066" x2="40.2499999999" y2="18.91452269352822" stroke="rgb(0,0,0)" stroke-width="0.5000000000000016" stroke-linecap="round"/>
				<line x1="40.2499999999" y1="21.165528308897297" x2="40.2499999999" y2="25.667539539635452" stroke="rgb(0,0,0)" stroke-width="0.5000000000000016" stroke-linecap="round"/>
				<line x1="40.2499999999" y1="27.91854515500453" x2="40.2499999999" y2="32.420556385742685" stroke="rgb(0,0,0)" stroke-width="0.5000000000000016" stroke-linecap="round"/>
				<line x1="40.2499999999" y1="34.67156200111177" x2="40.2499999999" y2="39.17357323184992" stroke="rgb(0,0,0)" stroke-width="0.5000000000000016" stroke-linecap="round"/>
				<line x1="40.2499999999" y1="41.424578847218996" x2="40.2499999999" y2="45.92659007795715" stroke="rgb(0,0,0)" stroke-width="0.5000000000000016" stroke-linecap="round"/>
				<line x1="40.2499999999" y1="48.177595693326225" x2="40.2499999999" y2="52.67960692406438" stroke="rgb(0,0,0)" stroke-width="0.5000000000000016" stroke-linecap="round"/>
				<line x1="40.2499999999" y1="54.930612539433454" x2="40.2499999999" y2="59.43262377017161" stroke="rgb(0,0,0)" stroke-width="0.5000000000000016" stroke-linecap="round"/>
				<line x1="40.2499999999" y1="61.683629385540684" x2="40.2499999999" y2="66.18564061627885" stroke="rgb(0,0,0)" stroke-width="0.5000000000000016" stroke-linecap="round"/>
				<line x1="40.2499999999" y1="68.43664623164793" x2="40.2499999999" y2="72.93865746238609" stroke="rgb(0,0,0)" stroke-width="0.5000000000000016" stroke-linecap="round"/>
				<line x1="40.2499999999" y1="75.18966307775517" x2="40.2499999999" y2="79.69167430849333" stroke="rgb(0,0,0)" stroke-width="0.5000000000000016" stroke-linecap="round"/>
				<line x1="40.2499999999" y1="81.94267992386241" x2="40.2499999999" y2="86.44469115460058" stroke="rgb(0,0,0)" stroke-width="0.5000000000000016" stroke-linecap="round"/>
				<line x1="40.2499999999" y1="88.69569676996966" x2="40.2499999999" y2="93.19770800070782" stroke="rgb(0,0,0)" stroke-width="0.5000000000000016" stroke-linecap="round"/>
				<line x1="40.2499999999" y1="95.4487136160769" x2="40.2499999999" y2="99.95072484681506" stroke="rgb(0,0,0)" stroke-width="0.5000000000000016" stroke-linecap="round"/>
				<line x1="40.2499999999" y1="102.20173046218414" x2="40.2499999999" y2="106.7037416929223" stroke="rgb(0,0,0)" stroke-width="0.5000000000000016" stroke-linecap="round"/>
				<line x1="40.2499999999" y1="108.95474730829139" x2="40.2499999999" y2="113.45675853902955" stroke="rgb(0,0,0)" stroke-width="0.5000000000000016" stroke-linecap="round"/>
				<line x1="40.2499999999" y1="115.70776415439863" x2="40.2499999999" y2="120.2097753851368" stroke="rgb(0,0,0)" stroke-width="0.5000000000000016" stroke-linecap="round"/>
				<line x1="40.2499999999" y1="122.46078100050588" x2="40.2499999999" y2="126.96279223124404" stroke="rgb(0,0,0)" stroke-width="0.5000000000000016" stroke-linecap="round"/>
				<line x1="40.2499999999" y1="129.21379784661312" x2="40.2499999999" y2="133.71580907735128" stroke="rgb(0,0,0)" stroke-width="0.5000000000000016" stroke-linecap="round"/>
				<line x1="40.2499999999" y1="135.96681469272036" x2="40.2499999999" y2="140.46882592345852" stroke="rgb(0,0,0)" stroke-width="0.5000000000000016" stroke-linecap="round"/>
				<line x1="40.2499999999" y1="142.7198315388276" x2="40.2499999999" y2="147.22184276956577" stroke="rgb(0,0,0)" stroke-width="0.5000000000000016" stroke-linecap="round"/>
				<line x1="40.2499999999" y1="149.47284838493485" x2="40.2499999999" y2="153.974859615673" stroke="rgb(0,0,0)" stroke-width="0.5000000000000016" stroke-linecap="round"/>
				<line x1="40.2499999999" y1="156.2258652310421" x2="40.2499999999" y2="160.72787646178026" stroke="rgb(0,0,0)" stroke-width="0.5000000000000016" stroke-linecap="round"/>
				<line x1="40.2499999999" y1="162.97888207714934" x2="40.2499999999" y2="167.4808933078875" stroke="rgb(0,0,0)" stroke-width="0.5000000000000016" stroke-linecap="round"/>
				<line x1="40.2499999999" y1="169.73189892325658" x2="40.2499999999" y2="174.23391015399474" stroke="rgb(0,0,0)" stroke-width="0.5000000000000016" stroke-linecap="round"/>
				<line x1="40.2499999999" y1="176.48491576936382" x2="40.2499999999" y2="180.98692700010199" stroke="rgb(0,0,0)" stroke-width="0.5000000000000016" stroke-linecap="round"/>
				<line x1="40.2499999999" y1="183.23793261547107" x2="40.2499999999" y2="187.73994384620923" stroke="rgb(0,0,0)" stroke-width="0.5000000000000016" stroke-linecap="round"/>
				<line x1="40.2499999999" y1="189.9909494615783" x2="40.2499999999" y2="194.49296069231647" stroke="rgb(0,0,0)" stroke-width="0.5000000000000016" stroke-linecap="round"/>
				<line x1="40.2499999999" y1="196.74396630768555" x2="40.2499999999" y2="201.24597753842372" stroke="rgb(0,0,0)" stroke-width="0.5000000000000016" stroke-linecap="round"/>
				<line x1="40.2499999999" y1="203.4969831537928" x2="40.2499999999" y2="207.99899438453096" stroke="rgb(0,0,0)" stroke-width="0.5000000000000016" stroke-linecap="round"/>
				<g>
					<desc>null, supplement, null</desc>
					<text x="120.24999999990001" y="7.349999999899999" textLength="56.279999999999994" lengthAdjust="spacingAndGlyphs" text-anchor="middle" font-family="Arial" font-size="6.253333333333334">SmartHome System</text>
				</g>
			</g>
		</g>
		<g class="clickEl 5a489c300000bca80137ee1373c16844">
			<desc>Flush-mounted Dimmer, fmc.bd.storage, 5a4860970000bca80137b260be1ad4d5</desc>
			<g>
				<desc>null, figure.plane, null</desc>
				<path d="M 55.2499999999,50.2499999999 A 10.0 10.0 0 0 0 65.2499999999,60.2499999999 L 65.2499999999,60.2499999999 A 10.0 10.0 0 0 0 75.2499999999,50.2499999999 L 75.2499999999,35.2499999999 A 10.0 10.0 0 0 0 65.2499999999,25.249999999899998 L 65.2499999999,25.249999999899998 A 10.0 10.0 0 0 0 55.2499999999,35.2499999999 z" fill="rgb(224,251,193)"/>
				<path d="M 55.2499999999,50.2499999999 A 10.0 10.0 0 0 0 65.2499999999,60.2499999999" stroke="rgb(0,0,0)" stroke-width="0.5000000000000016" fill="none" stroke-linecap="round"/>
				<path d="M 65.2499999999,60.2499999999 A 10.0 10.0 0 0 0 75.2499999999,50.2499999999" stroke="rgb(0,0,0)" stroke-width="0.5000000000000016" fill="none" stroke-linecap="round"/>
				<line x1="75.2499999999" y1="50.2499999999" x2="75.2499999999" y2="35.2499999999" stroke="rgb(0,0,0)" stroke-width="0.5000000000000016" stroke-linecap="round"/>
				<path d="M 75.2499999999,35.2499999999 A 10.0 10.0 0 0 0 65.2499999999,25.249999999899998" stroke="rgb(0,0,0)" stroke-width="0.5000000000000016" fill="none" stroke-linecap="round"/>
				<path d="M 65.2499999999,25.249999999899998 A 10.0 10.0 0 0 0 55.2499999999,35.2499999999" stroke="rgb(0,0,0)" stroke-width="0.5000000000000016" fill="none" stroke-linecap="round"/>
				<line x1="55.2499999999" y1="35.2499999999" x2="55.2499999999" y2="50.2499999999" stroke="rgb(0,0,0)" stroke-width="0.5000000000000016" stroke-linecap="round"/>
				<g>
					<desc>null, supplement, null</desc>
					<text x="65.2499999999" y="66.1499999999" textLength="32.78" lengthAdjust="spacingAndGlyphs" text-anchor="middle" font-family="Arial" font-size="4.913333333333334">Flush-mounted</text>
					<text x="65.2499999999" y="71.6499999999" textLength="17.306666666666665" lengthAdjust="spacingAndGlyphs" text-anchor="middle" font-family="Arial" font-size="4.913333333333334">Dimmer</text>
				</g>
			</g>
		</g>
		<g class="clickEl 5a4d6dee0000bca80137c1caf2f42349">
			<desc>up, fmc.bd.storage, 5a480b760000bca801370b7002c2d487</desc>
			<g>
				<desc>null, figure.plane, null</desc>
				<path d="M 60.2499999999,35.2499999999 A 5.0 5.0 0 0 0 65.2499999999,40.2499999999 L 65.2499999999,40.2499999999 A 5.0 5.0 0 0 0 70.2499999999,35.2499999999 L 70.2499999999,35.2499999999 A 5.0 5.0 0 0 0 65.2499999999,30.249999999899998 L 65.2499999999,30.249999999899998 A 5.0 5.0 0 0 0 60.2499999999,35.2499999999 z" fill="rgb(255,255,255)"/>
				<path d="M 60.2499999999,35.2499999999 A 5.0 5.0 0 0 0 65.2499999999,40.2499999999" stroke="rgb(0,0,0)" stroke-width="0.5000000000000016" fill="none" stroke-linecap="round"/>
				<path d="M 65.2499999999,40.2499999999 A 5.0 5.0 0 0 0 70.2499999999,35.2499999999" stroke="rgb(0,0,0)" stroke-width="0.5000000000000016" fill="none" stroke-linecap="round"/>
				<path d="M 70.2499999999,35.2499999999 A 5.0 5.0 0 0 0 65.2499999999,30.249999999899998" stroke="rgb(0,0,0)" stroke-width="0.5000000000000016" fill="none" stroke-linecap="round"/>
				<path d="M 65.2499999999,30.249999999899998 A 5.0 5.0 0 0 0 60.2499999999,35.2499999999" stroke="rgb(0,0,0)" stroke-width="0.5000000000000016" fill="none" stroke-linecap="round"/>
				<g>
					<desc>null, supplement, null</desc>
					<text x="65.2499999999" y="36.5999999999" textLength="4.44" lengthAdjust="spacingAndGlyphs" text-anchor="middle" font-family="Arial" font-size="4.0200000000000005">up</text>
				</g>
			</g>
		</g>
		<g class="clickEl 5a4dd77b0000bca8013736c6912ad291">
			<desc>down, fmc.bd.storage, 5a48368b0000bca801379b0d82425814</desc>
			<g>
				<desc>null, figure.plane, null</desc>
				<path d="M 60.2499999999,50.2499999999 A 5.0 5.0 0 0 0 65.2499999999,55.2499999999 L 65.2499999999,55.2499999999 A 5.0 5.0 0 0 0 70.2499999999,50.2499999999 L 70.2499999999,50.2499999999 A 5.0 5.0 0 0 0 65.2499999999,45.2499999999 L 65.2499999999,45.2499999999 A 5.0 5.0 0 0 0 60.2499999999,50.2499999999 z" fill="rgb(255,255,255)"/>
				<path d="M 60.2499999999,50.2499999999 A 5.0 5.0 0 0 0 65.2499999999,55.2499999999" stroke="rgb(0,0,0)" stroke-width="0.5000000000000016" fill="none" stroke-linecap="round"/>
				<path d="M 65.2499999999,55.2499999999 A 5.0 5.0 0 0 0 70.2499999999,50.2499999999" stroke="rgb(0,0,0)" stroke-width="0.5000000000000016" fill="none" stroke-linecap="round"/>
				<path d="M 70.2499999999,50.2499999999 A 5.0 5.0 0 0 0 65.2499999999,45.2499999999" stroke="rgb(0,0,0)" stroke-width="0.5000000000000016" fill="none" stroke-linecap="round"/>
				<path d="M 65.2499999999,45.2499999999 A 5.0 5.0 0 0 0 60.2499999999,50.2499999999" stroke="rgb(0,0,0)" stroke-width="0.5000000000000016" fill="none" stroke-linecap="round"/>
				<g>
					<desc>null, supplement, null</desc>
					<text x="65.2499999999" y="51.5999999999" textLength="9.479999999999999" lengthAdjust="spacingAndGlyphs" text-anchor="middle" font-family="Arial" font-size="4.0200000000000005">down</text>
				</g>
			</g>
		</g>
		<g class="clickEl 5a51dd920000bca8013770a4395c83fc">
			<desc>Remote Control, fmc.bd.storage, 5a51c5af0000bca80137c47a9645df70</desc>
			<g>
				<desc>null, figure.plane, null</desc>
				<path d="M 55.2499999999,105.2499999999 A 10.0 10.0 0 0 0 65.2499999999,115.2499999999 L 65.2499999999,115.2499999999 A 10.0 10.0 0 0 0 75.2499999999,105.2499999999 L 75.2499999999,90.2499999999 A 10.0 10.0 0 0 0 65.2499999999,80.2499999999 L 65.2499999999,80.2499999999 A 10.0 10.0 0 0 0 55.2499999999,90.2499999999 z" fill="rgb(224,251,193)"/>
				<path d="M 55.2499999999,105.2499999999 A 10.0 10.0 0 0 0 65.2499999999,115.2499999999" stroke="rgb(0,0,0)" stroke-width="0.5000000000000016" fill="none" stroke-linecap="round"/>
				<path d="M 65.2499999999,115.2499999999 A 10.0 10.0 0 0 0 75.2499999999,105.2499999999" stroke="rgb(0,0,0)" stroke-width="0.5000000000000016" fill="none" stroke-linecap="round"/>
				<line x1="75.2499999999" y1="105.2499999999" x2="75.2499999999" y2="90.2499999999" stroke="rgb(0,0,0)" stroke-width="0.5000000000000016" stroke-linecap="round"/>
				<path d="M 75.2499999999,90.2499999999 A 10.0 10.0 0 0 0 65.2499999999,80.2499999999" stroke="rgb(0,0,0)" stroke-width="0.5000000000000016" fill="none" stroke-linecap="round"/>
				<path d="M 65.2499999999,80.2499999999 A 10.0 10.0 0 0 0 55.2499999999,90.2499999999" stroke="rgb(0,0,0)" stroke-width="0.5000000000000016" fill="none" stroke-linecap="round"/>
				<line x1="55.2499999999" y1="90.2499999999" x2="55.2499999999" y2="105.2499999999" stroke="rgb(0,0,0)" stroke-width="0.5000000000000016" stroke-linecap="round"/>
				<g>
					<desc>null, supplement, null</desc>
					<text x="65.2499999999" y="121.1499999999" textLength="17.233333333333356" lengthAdjust="spacingAndGlyphs" text-anchor="middle" font-family="Arial" font-size="4.913333333333339">Remote</text>
					<text x="65.2499999999" y="126.64999999990002" textLength="15.766666666666687" lengthAdjust="spacingAndGlyphs" text-anchor="middle" font-family="Arial" font-size="4.913333333333339">Control</text>
				</g>
			</g>
		</g>
		<g class="clickEl 5a4d6dee0000bca80137c1caf2f42349">
			<desc>up, fmc.bd.storage, 5a4ba87e0000bca80137c8ea09d86f0b</desc>
			<g>
				<desc>null, figure.plane, null</desc>
				<path d="M 60.2499999999,90.2499999999 A 5.0 5.0 0 0 0 65.2499999999,95.2499999999 L 65.2499999999,95.2499999999 A 5.0 5.0 0 0 0 70.2499999999,90.2499999999 L 70.2499999999,90.2499999999 A 5.0 5.0 0 0 0 65.2499999999,85.2499999999 L 65.2499999999,85.2499999999 A 5.0 5.0 0 0 0 60.2499999999,90.2499999999 z" fill="rgb(255,255,255)"/>
				<path d="M 60.2499999999,90.2499999999 A 5.0 5.0 0 0 0 65.2499999999,95.2499999999" stroke="rgb(0,0,0)" stroke-width="0.5000000000000016" fill="none" stroke-linecap="round"/>
				<path d="M 65.2499999999,95.2499999999 A 5.0 5.0 0 0 0 70.2499999999,90.2499999999" stroke="rgb(0,0,0)" stroke-width="0.5000000000000016" fill="none" stroke-linecap="round"/>
				<path d="M 70.2499999999,90.2499999999 A 5.0 5.0 0 0 0 65.2499999999,85.2499999999" stroke="rgb(0,0,0)" stroke-width="0.5000000000000016" fill="none" stroke-linecap="round"/>
				<path d="M 65.2499999999,85.2499999999 A 5.0 5.0 0 0 0 60.2499999999,90.2499999999" stroke="rgb(0,0,0)" stroke-width="0.5000000000000016" fill="none" stroke-linecap="round"/>
				<g>
					<desc>null, supplement, null</desc>
					<text x="65.2499999999" y="91.59999999989999" textLength="4.44" lengthAdjust="spacingAndGlyphs" text-anchor="middle" font-family="Arial" font-size="4.0200000000000005">up</text>
				</g>
			</g>
		</g>
		<g class="clickEl 5a4dd77b0000bca8013736c6912ad291">
			<desc>down, fmc.bd.storage, 5a4ba87e0000bca80137c8ebcea1a0a9</desc>
			<g>
				<desc>null, figure.plane, null</desc>
				<path d="M 60.2499999999,105.2499999999 A 5.0 5.0 0 0 0 65.2499999999,110.2499999999 L 65.2499999999,110.2499999999 A 5.0 5.0 0 0 0 70.2499999999,105.2499999999 L 70.2499999999,105.2499999999 A 5.0 5.0 0 0 0 65.2499999999,100.2499999999 L 65.2499999999,100.2499999999 A 5.0 5.0 0 0 0 60.2499999999,105.2499999999 z" fill="rgb(255,255,255)"/>
				<path d="M 60.2499999999,105.2499999999 A 5.0 5.0 0 0 0 65.2499999999,110.2499999999" stroke="rgb(0,0,0)" stroke-width="0.5000000000000016" fill="none" stroke-linecap="round"/>
				<path d="M 65.2499999999,110.2499999999 A 5.0 5.0 0 0 0 70.2499999999,105.2499999999" stroke="rgb(0,0,0)" stroke-width="0.5000000000000016" fill="none" stroke-linecap="round"/>
				<path d="M 70.2499999999,105.2499999999 A 5.0 5.0 0 0 0 65.2499999999,100.2499999999" stroke="rgb(0,0,0)" stroke-width="0.5000000000000016" fill="none" stroke-linecap="round"/>
				<path d="M 65.2499999999,100.2499999999 A 5.0 5.0 0 0 0 60.2499999999,105.2499999999" stroke="rgb(0,0,0)" stroke-width="0.5000000000000016" fill="none" stroke-linecap="round"/>
				<g>
					<desc>null, supplement, null</desc>
					<text x="65.2499999999" y="106.59999999989999" textLength="9.479999999999999" lengthAdjust="spacingAndGlyphs" text-anchor="middle" font-family="Arial" font-size="4.0200000000000005">down</text>
				</g>
			</g>
		</g>
		<g class="clickEl 5a4c80c20000bca8013753b6999a4da8">
			<desc>Flush-mounted Shading Control, fmc.bd.storage, 5a4c427b0000bca80137e2d02f51849c</desc>
			<g>
				<desc>null, figure.plane, null</desc>
				<path d="M 55.2499999999,190.2499999999 A 10.0 10.0 0 0 0 65.2499999999,200.2499999999 L 65.2499999999,200.2499999999 A 10.0 10.0 0 0 0 75.2499999999,190.2499999999 L 75.2499999999,145.2499999999 A 10.0 10.0 0 0 0 65.2499999999,135.2499999999 L 65.2499999999,135.2499999999 A 10.0 10.0 0 0 0 55.2499999999,145.2499999999 z" fill="rgb(224,251,193)"/>
				<path d="M 55.2499999999,190.2499999999 A 10.0 10.0 0 0 0 65.2499999999,200.2499999999" stroke="rgb(0,0,0)" stroke-width="0.5000000000000016" fill="none" stroke-linecap="round"/>
				<path d="M 65.2499999999,200.2499999999 A 10.0 10.0 0 0 0 75.2499999999,190.2499999999" stroke="rgb(0,0,0)" stroke-width="0.5000000000000016" fill="none" stroke-linecap="round"/>
				<line x1="75.2499999999" y1="190.2499999999" x2="75.2499999999" y2="145.2499999999" stroke="rgb(0,0,0)" stroke-width="0.5000000000000016" stroke-linecap="round"/>
				<path d="M 75.2499999999,145.2499999999 A 10.0 10.0 0 0 0 65.2499999999,135.2499999999" stroke="rgb(0,0,0)" stroke-width="0.5000000000000016" fill="none" stroke-linecap="round"/>
				<path d="M 65.2499999999,135.2499999999 A 10.0 10.0 0 0 0 55.2499999999,145.2499999999" stroke="rgb(0,0,0)" stroke-width="0.5000000000000016" fill="none" stroke-linecap="round"/>
				<line x1="55.2499999999" y1="145.2499999999" x2="55.2499999999" y2="190.2499999999" stroke="rgb(0,0,0)" stroke-width="0.5000000000000016" stroke-linecap="round"/>
				<g>
					<desc>null, supplement, null</desc>
					<text x="65.2499999999" y="206.14999999990002" textLength="32.78" lengthAdjust="spacingAndGlyphs" text-anchor="middle" font-family="Arial" font-size="4.913333333333334">Flush-mounted</text>
					<text x="65.2499999999" y="211.64999999990002" textLength="35.126666666666665" lengthAdjust="spacingAndGlyphs" text-anchor="middle" font-family="Arial" font-size="4.913333333333334">Shading Control</text>
				</g>
			</g>
		</g>
		<g class="clickEl 5a4cfa830000bca801370d837f761f3e">
			<desc>straighten, fmc.bd.storage, 5a4ce4930000bca801379004740ff3a5</desc>
			<g>
				<desc>null, figure.plane, null</desc>
				<path d="M 60.2499999999,175.2499999999 A 5.0 5.0 0 0 0 65.2499999999,180.2499999999 L 65.2499999999,180.2499999999 A 5.0 5.0 0 0 0 70.2499999999,175.2499999999 L 70.2499999999,175.2499999999 A 5.0 5.0 0 0 0 65.2499999999,170.2499999999 L 65.2499999999,170.2499999999 A 5.0 5.0 0 0 0 60.2499999999,175.2499999999 z" fill="rgb(255,255,255)"/>
				<path d="M 60.2499999999,175.2499999999 A 5.0 5.0 0 0 0 65.2499999999,180.2499999999" stroke="rgb(0,0,0)" stroke-width="0.5000000000000016" fill="none" stroke-linecap="round"/>
				<path d="M 65.2499999999,180.2499999999 A 5.0 5.0 0 0 0 70.2499999999,175.2499999999" stroke="rgb(0,0,0)" stroke-width="0.5000000000000016" fill="none" stroke-linecap="round"/>
				<path d="M 70.2499999999,175.2499999999 A 5.0 5.0 0 0 0 65.2499999999,170.2499999999" stroke="rgb(0,0,0)" stroke-width="0.5000000000000016" fill="none" stroke-linecap="round"/>
				<path d="M 65.2499999999,170.2499999999 A 5.0 5.0 0 0 0 60.2499999999,175.2499999999" stroke="rgb(0,0,0)" stroke-width="0.5000000000000016" fill="none" stroke-linecap="round"/>
				<g>
					<desc>null, supplement, null</desc>
					<text x="65.2499999999" y="176.5999999999" textLength="17.64" lengthAdjust="spacingAndGlyphs" text-anchor="middle" font-family="Arial" font-size="4.0200000000000005">straighten</text>
				</g>
			</g>
		</g>
		<g class="clickEl 5a4d2bd00000bca80137a3f233cdffeb">
			<desc>tilt, fmc.bd.storage, 5a4d16d90000bca80137625043283c5f</desc>
			<g>
				<desc>null, figure.plane, null</desc>
				<path d="M 60.2499999999,190.2499999999 A 5.0 5.0 0 0 0 65.2499999999,195.2499999999 L 65.2499999999,195.2499999999 A 5.0 5.0 0 0 0 70.2499999999,190.2499999999 L 70.2499999999,190.2499999999 A 5.0 5.0 0 0 0 65.2499999999,185.2499999999 L 65.2499999999,185.2499999999 A 5.0 5.0 0 0 0 60.2499999999,190.2499999999 z" fill="rgb(255,255,255)"/>
				<path d="M 60.2499999999,190.2499999999 A 5.0 5.0 0 0 0 65.2499999999,195.2499999999" stroke="rgb(0,0,0)" stroke-width="0.5000000000000016" fill="none" stroke-linecap="round"/>
				<path d="M 65.2499999999,195.2499999999 A 5.0 5.0 0 0 0 70.2499999999,190.2499999999" stroke="rgb(0,0,0)" stroke-width="0.5000000000000016" fill="none" stroke-linecap="round"/>
				<path d="M 70.2499999999,190.2499999999 A 5.0 5.0 0 0 0 65.2499999999,185.2499999999" stroke="rgb(0,0,0)" stroke-width="0.5000000000000016" fill="none" stroke-linecap="round"/>
				<path d="M 65.2499999999,185.2499999999 A 5.0 5.0 0 0 0 60.2499999999,190.2499999999" stroke="rgb(0,0,0)" stroke-width="0.5000000000000016" fill="none" stroke-linecap="round"/>
				<g>
					<desc>null, supplement, null</desc>
					<text x="65.2499999999" y="191.5999999999" textLength="4.08" lengthAdjust="spacingAndGlyphs" text-anchor="middle" font-family="Arial" font-size="4.0200000000000005">tilt</text>
				</g>
			</g>
		</g>
		<g class="clickEl 5a4d6dee0000bca80137c1caf2f42349">
			<desc>up, fmc.bd.storage, 5a4d60a50000bca8013784023a545057</desc>
			<g>
				<desc>null, figure.plane, null</desc>
				<path d="M 60.2499999999,145.2499999999 A 5.0 5.0 0 0 0 65.2499999999,150.2499999999 L 65.2499999999,150.2499999999 A 5.0 5.0 0 0 0 70.2499999999,145.2499999999 L 70.2499999999,145.2499999999 A 5.0 5.0 0 0 0 65.2499999999,140.2499999999 L 65.2499999999,140.2499999999 A 5.0 5.0 0 0 0 60.2499999999,145.2499999999 z" fill="rgb(255,255,255)"/>
				<path d="M 60.2499999999,145.2499999999 A 5.0 5.0 0 0 0 65.2499999999,150.2499999999" stroke="rgb(0,0,0)" stroke-width="0.5000000000000016" fill="none" stroke-linecap="round"/>
				<path d="M 65.2499999999,150.2499999999 A 5.0 5.0 0 0 0 70.2499999999,145.2499999999" stroke="rgb(0,0,0)" stroke-width="0.5000000000000016" fill="none" stroke-linecap="round"/>
				<path d="M 70.2499999999,145.2499999999 A 5.0 5.0 0 0 0 65.2499999999,140.2499999999" stroke="rgb(0,0,0)" stroke-width="0.5000000000000016" fill="none" stroke-linecap="round"/>
				<path d="M 65.2499999999,140.2499999999 A 5.0 5.0 0 0 0 60.2499999999,145.2499999999" stroke="rgb(0,0,0)" stroke-width="0.5000000000000016" fill="none" stroke-linecap="round"/>
				<g>
					<desc>null, supplement, null</desc>
					<text x="65.2499999999" y="146.5999999999" textLength="4.44" lengthAdjust="spacingAndGlyphs" text-anchor="middle" font-family="Arial" font-size="4.0200000000000005">up</text>
				</g>
			</g>
		</g>
		<g class="clickEl 5a4dd77b0000bca8013736c6912ad291">
			<desc>down, fmc.bd.storage, 5a4dc5140000bca80137d60e60cea4b3</desc>
			<g>
				<desc>null, figure.plane, null</desc>
				<path d="M 60.2499999999,160.2499999999 A 5.0 5.0 0 0 0 65.2499999999,165.2499999999 L 65.2499999999,165.2499999999 A 5.0 5.0 0 0 0 70.2499999999,160.2499999999 L 70.2499999999,160.2499999999 A 5.0 5.0 0 0 0 65.2499999999,155.2499999999 L 65.2499999999,155.2499999999 A 5.0 5.0 0 0 0 60.2499999999,160.2499999999 z" fill="rgb(255,255,255)"/>
				<path d="M 60.2499999999,160.2499999999 A 5.0 5.0 0 0 0 65.2499999999,165.2499999999" stroke="rgb(0,0,0)" stroke-width="0.5000000000000016" fill="none" stroke-linecap="round"/>
				<path d="M 65.2499999999,165.2499999999 A 5.0 5.0 0 0 0 70.2499999999,160.2499999999" stroke="rgb(0,0,0)" stroke-width="0.5000000000000016" fill="none" stroke-linecap="round"/>
				<path d="M 70.2499999999,160.2499999999 A 5.0 5.0 0 0 0 65.2499999999,155.2499999999" stroke="rgb(0,0,0)" stroke-width="0.5000000000000016" fill="none" stroke-linecap="round"/>
				<path d="M 65.2499999999,155.2499999999 A 5.0 5.0 0 0 0 60.2499999999,160.2499999999" stroke="rgb(0,0,0)" stroke-width="0.5000000000000016" fill="none" stroke-linecap="round"/>
				<g>
					<desc>null, supplement, null</desc>
					<text x="65.2499999999" y="161.5999999999" textLength="9.479999999999999" lengthAdjust="spacingAndGlyphs" text-anchor="middle" font-family="Arial" font-size="4.0200000000000005">down</text>
				</g>
			</g>
		</g>
		<g>
			<desc>, fmc.bd.storageaccess, 5a4fa4980000bca801379b9d703f9805</desc>
			<g>
				<desc>null, figure.lineshape, null</desc>
				<line x1="15.3437499999" y1="97.7499999999" x2="25.249999999899998" y2="97.7499999999" stroke="rgb(0,0,0)" stroke-width="0.2500000000000008" stroke-linecap="round"/>
				<path d="M 25.249999999899998,97.7499999999 A 2.5 2.5 0 0 0 27.749999999899998,95.2499999999" stroke="rgb(0,0,0)" stroke-width="0.2500000000000008" fill="none" stroke-linecap="round"/>
				<line x1="27.749999999899998" y1="95.2499999999" x2="27.749999999899998" y2="45.2499999999" stroke="rgb(0,0,0)" stroke-width="0.2500000000000008" stroke-linecap="round"/>
				<path d="M 27.749999999899998,45.2499999999 A 2.5 2.5 0 0 1 30.249999999899998,42.7499999999" stroke="rgb(0,0,0)" stroke-width="0.2500000000000008" fill="none" stroke-linecap="round"/>
				<line x1="30.249999999899998" y1="42.7499999999" x2="53.92812499989999" y2="42.7499999999" stroke="rgb(0,0,0)" stroke-width="0.2500000000000008" stroke-linecap="round"/>
				<path d="M 55.13255566724311,42.5847656249 A 0.1907962217712546 0.19079622177125463 0 0 1 55.13255566724311,42.915234374899995 L 53.843436093538386,43.65950790779603 A 0.2002757149077653 0.20027571490777554 0 0 1 53.56881026286406,43.38775683255688 L 53.56881026286406,43.38775683255689 A 1.2992657885979553 1.2992657885979555 0 0 0 53.56881026286406,42.11224316724311 L 53.56881026286406,42.112243167243115 A 0.2002757149077653 0.20027571490777554 0 0 1 53.843436093538386,41.84049209200396 z"/>
			</g>
		</g>
		<g>
			<desc>, fmc.bd.storageaccess, 5a4fd9200000bca801379f9bc4c3ba98</desc>
			<g>
				<desc>null, figure.lineshape, null</desc>
				<line x1="15.3437499999" y1="97.7499999999" x2="25.249999999899998" y2="97.7499999999" stroke="rgb(0,0,0)" stroke-width="0.2500000000000008" stroke-linecap="round"/>
				<path d="M 25.249999999899998,97.7499999999 A 2.5 2.5 0 0 1 27.749999999899998,100.2499999999" stroke="rgb(0,0,0)" stroke-width="0.2500000000000008" fill="none" stroke-linecap="round"/>
				<line x1="27.749999999899998" y1="100.2499999999" x2="27.749999999899998" y2="165.2499999999" stroke="rgb(0,0,0)" stroke-width="0.2500000000000008" stroke-linecap="round"/>
				<path d="M 27.749999999899998,165.2499999999 A 2.5 2.5 0 0 0 30.249999999899998,167.7499999999" stroke="rgb(0,0,0)" stroke-width="0.2500000000000008" fill="none" stroke-linecap="round"/>
				<line x1="30.249999999899998" y1="167.7499999999" x2="53.92812499989999" y2="167.7499999999" stroke="rgb(0,0,0)" stroke-width="0.2500000000000008" stroke-linecap="round"/>
				<path d="M 55.1325556672431,167.5847656249 A 0.19079622177127406 0.190796221771274 0 0 1 55.1325556672431,167.91523437490002 L 53.84343609353839,168.65950790779604 A 0.2002757149077591 0.2002757149078011 0 0 1 53.568810262864076,168.38775683255685 L 53.568810262864076,168.38775683255687 A 1.2992657885979677 1.299265788597943 0 0 0 53.56881026286407,167.1122431672431 L 53.56881026286405,167.11224316724304 A 0.20027571490782253 0.2002757149077024 0 0 1 53.84343609353845,166.84049209200398 z"/>
			</g>
		</g>
		<g>
			<desc>, fmc.bd.storageaccess, 5a50902e0000bca80137d1a4b526c7ed</desc>
			<g>
				<desc>null, figure.lineshape, null</desc>
				<line x1="15.3437499999" y1="97.7499999999" x2="53.92812499989999" y2="97.7499999999" stroke="rgb(0,0,0)" stroke-width="0.2500000000000008" stroke-linecap="round"/>
				<path d="M 55.1325556672431,97.5847656249 A 0.1907962217712546 0.19079622177125463 0 0 1 55.1325556672431,97.9152343749 L 53.843436093538415,98.65950790779603 A 0.20027571490778467 0.20027571490775356 0 0 1 53.56881026286406,98.3877568325569 L 53.56881026286406,98.38775683255689 A 1.2992657885979553 1.2992657885979555 0 0 0 53.56881026286406,97.11224316724311 L 53.56881026286406,97.1122431672431 A 0.20027571490778467 0.20027571490775356 0 0 1 53.843436093538415,96.84049209200397 z"/>
			</g>
		</g>
		<g class="clickEl 5a50d5b60000bca8013781532547ce93">
			<desc>SmartHome Controller, fmc.bd.agent, 5a50bc3d0000bca80137761b09e0c8fe</desc>
			<g>
				<desc>null, figure.plane, null</desc>
				<path d=" M 95.2499999999,215.2499999999 L 150.2499999999,215.2499999999 L 150.2499999999,20.249999999899998 L 95.2499999999,20.249999999899998 z" fill="rgb(224,251,193)"/>
				<line x1="95.2499999999" y1="215.2499999999" x2="150.2499999999" y2="215.2499999999" stroke="rgb(0,0,0)" stroke-width="0.5000000000000016" stroke-linecap="round"/>
				<line x1="150.2499999999" y1="215.2499999999" x2="150.2499999999" y2="20.249999999900012" stroke="rgb(0,0,0)" stroke-width="0.5000000000000016" stroke-linecap="round"/>
				<line x1="150.2499999999" y1="20.249999999899998" x2="95.24999999990001" y2="20.249999999899998" stroke="rgb(0,0,0)" stroke-width="0.5000000000000016" stroke-linecap="round"/>
				<line x1="95.2499999999" y1="20.249999999899998" x2="95.2499999999" y2="215.2499999999" stroke="rgb(0,0,0)" stroke-width="0.5000000000000016" stroke-linecap="round"/>
				<g>
					<desc>null, supplement, null</desc>
					<text x="122.74999999990001" y="119.3999999999" textLength="48.91333333333333" lengthAdjust="spacingAndGlyphs" text-anchor="middle" font-family="Arial" font-size="4.913333333333334">SmartHome Controller</text>
				</g>
			</g>
		</g>
		<g class="clickEl 5a52b50c0000bca801377e3d15255f98">
			<desc>Intelligent Shading Drive, fmc.bd.storage, 5a526af20000bca801372c1a5004ec23</desc>
			<g>
				<desc>null, figure.plane, null</desc>
				<path d="M 165.2499999999,175.2499999999 A 10.0 10.0 0 0 0 175.2499999999,185.2499999999 L 175.2499999999,185.2499999999 A 10.0 10.0 0 0 0 185.2499999999,175.2499999999 L 185.2499999999,160.2499999999 A 10.0 10.0 0 0 0 175.2499999999,150.2499999999 L 175.2499999999,150.2499999999 A 10.0 10.0 0 0 0 165.2499999999,160.2499999999 z" fill="rgb(224,251,193)"/>
				<path d="M 165.2499999999,175.2499999999 A 10.0 10.0 0 0 0 175.2499999999,185.2499999999" stroke="rgb(0,0,0)" stroke-width="0.5000000000000016" fill="none" stroke-linecap="round"/>
				<path d="M 175.2499999999,185.2499999999 A 10.0 10.0 0 0 0 185.2499999999,175.2499999999" stroke="rgb(0,0,0)" stroke-width="0.5000000000000016" fill="none" stroke-linecap="round"/>
				<line x1="185.2499999999" y1="175.2499999999" x2="185.2499999999" y2="160.2499999999" stroke="rgb(0,0,0)" stroke-width="0.5000000000000016" stroke-linecap="round"/>
				<path d="M 185.2499999999,160.2499999999 A 10.0 10.0 0 0 0 175.2499999999,150.2499999999" stroke="rgb(0,0,0)" stroke-width="0.5000000000000016" fill="none" stroke-linecap="round"/>
				<path d="M 175.2499999999,150.2499999999 A 10.0 10.0 0 0 0 165.2499999999,160.2499999999" stroke="rgb(0,0,0)" stroke-width="0.5000000000000016" fill="none" stroke-linecap="round"/>
				<line x1="165.2499999999" y1="160.2499999999" x2="165.2499999999" y2="175.2499999999" stroke="rgb(0,0,0)" stroke-width="0.5000000000000016" stroke-linecap="round"/>
				<g>
					<desc>null, supplement, null</desc>
					<text x="175.2499999999" y="191.14999999990002" textLength="21.046666666666667" lengthAdjust="spacingAndGlyphs" text-anchor="middle" font-family="Arial" font-size="4.913333333333334">Intelligent</text>
					<text x="175.2499999999" y="196.64999999990002" textLength="17.966666666666665" lengthAdjust="spacingAndGlyphs" text-anchor="middle" font-family="Arial" font-size="4.913333333333334">Shading</text>
					<text x="175.2499999999" y="202.14999999990002" textLength="11.366666666666667" lengthAdjust="spacingAndGlyphs" text-anchor="middle" font-family="Arial" font-size="4.913333333333334">Drive</text>
				</g>
			</g>
		</g>
		<g>
			<desc>, fmc.bd.storageaccess, 5a53450a0000bca80137c60045eefa90</desc>
			<g>
				<desc>null, figure.lineshape, null</desc>
				<line x1="75.3437499999" y1="97.7499999999" x2="93.92812499989999" y2="97.7499999999" stroke="rgb(0,0,0)" stroke-width="0.2500000000000008" stroke-linecap="round"/>
				<path d="M 95.13255566724311,97.5847656249 A 0.1907962217712546 0.19079622177125463 0 0 1 95.13255566724311,97.9152343749 L 93.84343609353841,98.65950790779603 A 0.2002757149077908 0.20027571490774998 0 0 1 93.56881026286406,98.3877568325569 L 93.56881026286406,98.38775683255689 A 1.299265788597949 1.299265788597949 0 0 0 93.56881026286406,97.11224316724311 L 93.56881026286406,97.1122431672431 A 0.2002757149077908 0.20027571490774998 0 0 1 93.84343609353841,96.84049209200397 z"/>
			</g>
		</g>
		<g>
			<desc>, fmc.bd.storageaccess, 5a5352530000bca80137599f87756ea3</desc>
			<g>
				<desc>null, figure.lineshape, null</desc>
				<line x1="75.3437499999" y1="167.7499999999" x2="93.92812499989999" y2="167.7499999999" stroke="rgb(0,0,0)" stroke-width="0.2500000000000008" stroke-linecap="round"/>
				<path d="M 95.13255566724311,167.5847656249 A 0.19079622177127406 0.190796221771274 0 0 1 95.13255566724311,167.91523437490002 L 93.8434360935384,168.65950790779604 A 0.2002757149077591 0.2002757149078011 0 0 1 93.56881026286408,168.38775683255685 L 93.56881026286408,168.38775683255687 A 1.2992657885979615 1.2992657885979368 0 0 0 93.56881026286408,167.1122431672431 L 93.56881026286405,167.11224316724304 A 0.20027571490781018 0.20027571490770596 0 0 1 93.84343609353844,166.84049209200398 z"/>
			</g>
		</g>
		<g>
			<desc>, fmc.bd.modifyingstorageaccess, 5aa2ddbf0000bca801372919938805a4</desc>
			<g>
				<desc>null, figure.lineshape, null</desc>
			</g>
			<g>
				<desc>null, figure.lineshape, null</desc>
				<path d="M 75.3328176379758,40.2060649675461 A 21.249999999999996 21.25000000000001 0 0 1 94.06505015860068,39.66460782131746" stroke="rgb(0,0,0)" stroke-width="0.2500000000000008" fill="none" stroke-linecap="round"/>
				<path d="M 95.21788987160035,40.04983879083232 A 0.19079622177126607 0.19079622177124816 0 0 1 95.07151822828023,40.346124019553436 L 93.58608994547394,40.442431774782634 A 0.2002757149077785 0.20027571490775967 0 0 1 93.46023560796907,40.07715286833115 L 93.46023560796907,40.07715286833113 A 1.2992657885979413 1.2992657885979406 0 0 0 94.02518775932752,38.933577694991996 L 94.02518775932752,38.933577694991996 A 0.2002757149077617 0.2002757149077591 0 0 1 94.39177076758725,38.81157404003676 z"/>
			</g>
			<g>
				<desc>null, figure.lineshape, null</desc>
				<path d="M 95.1671823618242,45.293935032253906 A 21.250000000000014 21.250000000000014 0 0 1 76.43494984119931,45.835392178482536" stroke="rgb(0,0,0)" stroke-width="0.2500000000000008" fill="none" stroke-linecap="round"/>
				<path d="M 75.28211012819965,45.45016120896768 A 0.19079622177126615 0.19079622177124816 0 0 1 75.42848177151977,45.15387598024656 L 76.91391005432605,45.05756822501736 A 0.2002757149077785 0.20027571490775967 0 0 1 77.03976439183093,45.42284713146885 L 77.03976439183093,45.42284713146886 A 1.2992657885979413 1.2992657885979404 0 0 0 76.47481224047247,46.566422304808 L 76.47481224047247,46.566422304808 A 0.2002757149077617 0.20027571490775903 0 0 1 76.10822923221275,46.68842595976324 z"/>
			</g>
		</g>
		<g class="clickEl 5bcf35cf0000bca8013776d68023612a">
			<desc>M, fmc.bd.storage, 5bcf202d0000bca80137bff2dd9ded67</desc>
			<g>
				<desc>null, figure.plane, null</desc>
				<path d="M 170.2499999999,160.2499999999 A 5.0 5.0 0 0 0 175.2499999999,165.2499999999 L 175.2499999999,165.2499999999 A 5.0 5.0 0 0 0 180.2499999999,160.2499999999 L 180.2499999999,160.2499999999 A 5.0 5.0 0 0 0 175.2499999999,155.2499999999 L 175.2499999999,155.2499999999 A 5.0 5.0 0 0 0 170.2499999999,160.2499999999 z" fill="rgb(255,232,232)"/>
				<path d="M 170.2499999999,160.2499999999 A 5.0 5.0 0 0 0 175.2499999999,165.2499999999" stroke="rgb(0,0,0)" stroke-width="0.5000000000000016" fill="none" stroke-linecap="round"/>
				<path d="M 175.2499999999,165.2499999999 A 5.0 5.0 0 0 0 180.2499999999,160.2499999999" stroke="rgb(0,0,0)" stroke-width="0.5000000000000016" fill="none" stroke-linecap="round"/>
				<path d="M 180.2499999999,160.2499999999 A 5.0 5.0 0 0 0 175.2499999999,155.2499999999" stroke="rgb(0,0,0)" stroke-width="0.5000000000000016" fill="none" stroke-linecap="round"/>
				<path d="M 175.2499999999,155.2499999999 A 5.0 5.0 0 0 0 170.2499999999,160.2499999999" stroke="rgb(0,0,0)" stroke-width="0.5000000000000016" fill="none" stroke-linecap="round"/>
				<g>
					<desc>null, supplement, null</desc>
					<text x="175.2499999999" y="161.5999999999" textLength="3.3" lengthAdjust="spacingAndGlyphs" text-anchor="middle" font-family="Arial" font-size="4.0200000000000005">M</text>
				</g>
			</g>
		</g>
		<g class="clickEl 5bcf35cf0000bca8013776d68023612a">
			<desc>M, fmc.bd.storage, 5bcf65b50000bca8013708f185a9edfd</desc>
			<g>
				<desc>null, figure.plane, null</desc>
				<path d="M 170.2499999999,175.2499999999 A 5.0 5.0 0 0 0 175.2499999999,180.2499999999 L 175.2499999999,180.2499999999 A 5.0 5.0 0 0 0 180.2499999999,175.2499999999 L 180.2499999999,175.2499999999 A 5.0 5.0 0 0 0 175.2499999999,170.2499999999 L 175.2499999999,170.2499999999 A 5.0 5.0 0 0 0 170.2499999999,175.2499999999 z" fill="rgb(255,232,232)"/>
				<path d="M 170.2499999999,175.2499999999 A 5.0 5.0 0 0 0 175.2499999999,180.2499999999" stroke="rgb(0,0,0)" stroke-width="0.5000000000000016" fill="none" stroke-linecap="round"/>
				<path d="M 175.2499999999,180.2499999999 A 5.0 5.0 0 0 0 180.2499999999,175.2499999999" stroke="rgb(0,0,0)" stroke-width="0.5000000000000016" fill="none" stroke-linecap="round"/>
				<path d="M 180.2499999999,175.2499999999 A 5.0 5.0 0 0 0 175.2499999999,170.2499999999" stroke="rgb(0,0,0)" stroke-width="0.5000000000000016" fill="none" stroke-linecap="round"/>
				<path d="M 175.2499999999,170.2499999999 A 5.0 5.0 0 0 0 170.2499999999,175.2499999999" stroke="rgb(0,0,0)" stroke-width="0.5000000000000016" fill="none" stroke-linecap="round"/>
				<g>
					<desc>null, supplement, null</desc>
					<text x="175.2499999999" y="176.5999999999" textLength="3.3" lengthAdjust="spacingAndGlyphs" text-anchor="middle" font-family="Arial" font-size="4.0200000000000005">M</text>
				</g>
			</g>
		</g>
		<g class="clickEl 5bcfb01d0000bca80137f303272a5557">
			<desc>Shading, fmc.bd.agent, 5bcf9d580000bca80137ae4a401a5bc9</desc>
			<g>
				<desc>null, figure.plane, null</desc>
				<path d=" M 215.2499999999,185.2499999999 L 225.2499999999,185.2499999999 L 225.2499999999,150.2499999999 L 215.2499999999,150.2499999999 z" fill="rgb(203,227,244)"/>
				<line x1="215.2499999999" y1="185.2499999999" x2="225.2499999999" y2="185.2499999999" stroke="rgb(0,0,0)" stroke-width="0.5000000000000016" stroke-linecap="round"/>
				<line x1="225.2499999999" y1="185.2499999999" x2="225.2499999999" y2="150.2499999999" stroke="rgb(0,0,0)" stroke-width="0.5000000000000016" stroke-linecap="round"/>
				<line x1="225.2499999999" y1="150.2499999999" x2="215.2499999999" y2="150.2499999999" stroke="rgb(0,0,0)" stroke-width="0.5000000000000016" stroke-linecap="round"/>
				<line x1="215.2499999999" y1="150.2499999999" x2="215.2499999999" y2="185.2499999999" stroke="rgb(0,0,0)" stroke-width="0.5000000000000016" stroke-linecap="round"/>
				<g>
					<desc>null, supplement, null</desc>
					<text x="223.7499999999" y="191.14999999990002" textLength="17.966666666666665" lengthAdjust="spacingAndGlyphs" text-anchor="end" font-family="Arial" font-size="4.913333333333334">Shading</text>
				</g>
			</g>
		</g>
		<g>
			<desc>, fmc.bd.storageaccess, 5bd020f90000bca80137cc4124f72d6c</desc>
			<g>
				<desc>null, figure.lineshape, null</desc>
				<line x1="150.3437499999" y1="167.7499999999" x2="163.9281249999" y2="167.7499999999" stroke="rgb(0,0,0)" stroke-width="0.2500000000000008" stroke-linecap="round"/>
				<path d="M 165.1325556672431,167.5847656249 A 0.19079622177127406 0.190796221771274 0 0 1 165.1325556672431,167.91523437490002 L 163.84343609353843,168.65950790779604 A 0.20027571490778384 0.20027571490779397 0 0 1 163.56881026286408,168.38775683255687 L 163.56881026286405,168.38775683255687 A 1.2992657885979353 1.299265788597963 0 0 0 163.56881026286408,167.1122431672431 L 163.56881026286408,167.1122431672431 A 0.20027571490778384 0.20027571490775517 0 0 1 163.84343609353843,166.84049209200396 z"/>
			</g>
		</g>
		<g>
			<desc>, fmc.bd.storageaccess, 5bd03a140000bca8013709601f724510</desc>
			<g>
				<desc>null, figure.lineshape, null</desc>
				<line x1="185.3437499999" y1="167.7499999999" x2="213.9281249999" y2="167.7499999999" stroke="rgb(0,0,0)" stroke-width="0.2500000000000008" stroke-linecap="round"/>
				<path d="M 215.1325556672431,167.5847656249 A 0.19079622177127406 0.190796221771274 0 0 1 215.1325556672431,167.91523437490002 L 213.84343609353843,168.65950790779604 A 0.20027571490778384 0.20027571490779397 0 0 1 213.56881026286408,168.38775683255687 L 213.56881026286405,168.38775683255687 A 1.2992657885979353 1.299265788597963 0 0 0 213.56881026286408,167.1122431672431 L 213.56881026286408,167.1122431672431 A 0.20027571490778384 0.20027571490775517 0 0 1 213.84343609353843,166.84049209200396 z"/>
			</g>
		</g>
		<g>
			<desc>, fmc.bd.storageaccess, 5bd5af660000bca801373c99629c8648</desc>
			<g>
				<desc>null, figure.lineshape, null</desc>
				<line x1="213.9281249999" y1="15.249999999899998" x2="67.74999999990001" y2="15.249999999899998" stroke="rgb(0,0,0)" stroke-width="0.2500000000000008" stroke-linecap="round"/>
				<path d="M 67.7499999999,15.249999999899998 A 2.5 2.5 0 0 0 65.2499999999,17.749999999899998" stroke="rgb(0,0,0)" stroke-width="0.2500000000000008" fill="none" stroke-linecap="round"/>
				<line x1="65.2499999999" y1="17.749999999899998" x2="65.2499999999" y2="25.156249999899998" stroke="rgb(0,0,0)" stroke-width="0.2500000000000008" stroke-linecap="round"/>
				<path d="M 215.1325556672431,15.084765624899998 A 0.19079622177126482 0.1907962217712648 0 0 1 215.1325556672431,15.415234374899999 L 213.8434360935384,16.15950790779603 A 0.2002757149077591 0.20027571490777246 0 0 1 213.56881026286408,15.887756832556882 L 213.56881026286408,15.887756832556889 A 1.299265788597949 1.299265788597949 0 0 0 213.56881026286408,14.612243167243108 L 213.56881026286408,14.612243167243115 A 0.2002757149077591 0.20027571490777246 0 0 1 213.8434360935384,14.340492092003966 z"/>
			</g>
		</g>
		<g class="clickEl 5bd6bd890000bca8013739588a3f43d6">
			<desc>Bulb, fmc.bd.agent, 5bd6af760000bca801379d3e82346dfa</desc>
			<g>
				<desc>null, figure.plane, null</desc>
				<path d=" M 215.2499999999,20.249999999899998 L 225.2499999999,20.249999999899998 L 225.2499999999,10.249999999899998 L 215.2499999999,10.249999999899998 z" fill="rgb(255,232,232)"/>
				<line x1="215.2499999999" y1="20.249999999899998" x2="225.2499999999" y2="20.249999999899998" stroke="rgb(0,0,0)" stroke-width="0.5000000000000016" stroke-linecap="round"/>
				<line x1="225.2499999999" y1="20.249999999899998" x2="225.2499999999" y2="10.249999999899998" stroke="rgb(0,0,0)" stroke-width="0.5000000000000016" stroke-linecap="round"/>
				<line x1="225.2499999999" y1="10.249999999899998" x2="215.2499999999" y2="10.249999999899998" stroke="rgb(0,0,0)" stroke-width="0.5000000000000016" stroke-linecap="round"/>
				<line x1="215.2499999999" y1="10.249999999899998" x2="215.2499999999" y2="20.249999999899998" stroke="rgb(0,0,0)" stroke-width="0.5000000000000016" stroke-linecap="round"/>
				<g>
					<desc>null, supplement, null</desc>
					<text x="220.2499999999" y="26.149999999899997" textLength="9.826666666666666" lengthAdjust="spacingAndGlyphs" text-anchor="middle" font-family="Arial" font-size="4.913333333333334">Bulb</text>
				</g>
			</g>
		</g>
	</g>
</svg>
