<?xml version="1.0" encoding="UTF-8"?>
<svg width="150.49999999980002mm" height="115.24999999980001mm" viewBox="0.0 0.0 150.49999999980002 115.24999999980001" xmlns="http://www.w3.org/2000/svg" xmlns:xlink="http://www.w3.org/1999/xlink" xmlns:ev="http://www.w3.org/2001/xml-events" version="1.1">
	<g class="diagram" id="5a7f99af0000bca8013754f2ef12d3e5" >
		<desc>Dimmer Module, fmc.bd, 5a7f99af0000bca8013754f2ef12d3e5</desc>
		<g class="clickEl 5a752ccc0000bca80137479a2e8bab30">
			<desc>Dimmer Module, fmc.bd.agent, 5a7faaa00000bca8013770d795bced52</desc>
			<g>
				<desc>null, figure.plane, null</desc>
				<path d=" M 0.24999999990000177,95.1249999999 L 150.2499999999,95.1249999999 L 150.2499999999,20.1249999999 L 0.24999999990000177,20.1249999999 z" fill="rgb(224,251,193)"/>
				<line x1="0.24999999990000177" y1="95.1249999999" x2="150.2499999999" y2="95.1249999999" stroke="rgb(0,0,0)" stroke-width="0.499999999999999" stroke-linecap="round"/>
				<line x1="150.2499999999" y1="95.1249999999" x2="150.2499999999" y2="20.124999999899998" stroke="rgb(0,0,0)" stroke-width="0.499999999999999" stroke-linecap="round"/>
				<line x1="150.2499999999" y1="20.1249999999" x2="0.24999999990001243" y2="20.1249999999" stroke="rgb(0,0,0)" stroke-width="0.499999999999999" stroke-linecap="round"/>
				<line x1="0.24999999990000177" y1="20.1249999999" x2="0.24999999990000177" y2="95.1249999999" stroke="rgb(0,0,0)" stroke-width="0.499999999999999" stroke-linecap="round"/>
				<g>
					<desc>null, supplement, null</desc>
					<text x="120.24999999990001" y="26.774999999900004" textLength="34.68666666666667" lengthAdjust="spacingAndGlyphs" text-anchor="middle" font-family="Arial" font-size="4.913333333333334">Dimmer Module</text>
				</g>
			</g>
		</g>
		<g class="clickEl 5a8009a00000bca80137ef95bc3f643f">
			<desc>Housing, fmc.bd.agent, 5a7fec220000bca8013703bd97f05a85</desc>
			<g>
				<desc>null, figure.plane, null</desc>
				<path d=" M 5.249999999900002,90.1249999999 L 35.2499999999,90.1249999999 L 35.2499999999,30.1249999999 L 5.249999999900002,30.1249999999 z" fill="rgb(203,227,244)"/>
				<line x1="5.249999999900002" y1="90.1249999999" x2="35.2499999999" y2="90.1249999999" stroke="rgb(0,0,0)" stroke-width="0.499999999999999" stroke-linecap="round"/>
				<line x1="35.2499999999" y1="90.1249999999" x2="35.2499999999" y2="30.124999999899998" stroke="rgb(0,0,0)" stroke-width="0.499999999999999" stroke-linecap="round"/>
				<line x1="35.2499999999" y1="30.1249999999" x2="5.249999999900002" y2="30.1249999999" stroke="rgb(0,0,0)" stroke-width="0.499999999999999" stroke-linecap="round"/>
				<line x1="5.249999999900002" y1="30.1249999999" x2="5.249999999900002" y2="90.1249999999" stroke="rgb(0,0,0)" stroke-width="0.499999999999999" stroke-linecap="round"/>
				<g>
					<desc>null, supplement, null</desc>
					<text x="20.249999999900005" y="61.6249999999" textLength="16.333333333333332" lengthAdjust="spacingAndGlyphs" text-anchor="middle" font-family="Arial" font-size="4.466666666666667">Housing</text>
				</g>
			</g>
		</g>
		<g class="clickEl 5a808e2a0000bca80137bfd74268a84a">
			<desc>Dimmer Electronics, fmc.bd.agent, 5a8074630000bca801372ab8abdc2e76</desc>
			<g>
				<desc>null, figure.plane, null</desc>
				<path d=" M 60.2499999999,90.1249999999 L 90.2499999999,90.1249999999 L 90.2499999999,30.1249999999 L 60.2499999999,30.1249999999 z" fill="rgb(255,232,232)"/>
				<line x1="60.2499999999" y1="90.1249999999" x2="90.2499999999" y2="90.1249999999" stroke="rgb(0,0,0)" stroke-width="0.499999999999999" stroke-linecap="round"/>
				<line x1="90.2499999999" y1="90.1249999999" x2="90.2499999999" y2="30.124999999899998" stroke="rgb(0,0,0)" stroke-width="0.499999999999999" stroke-linecap="round"/>
				<line x1="90.2499999999" y1="30.1249999999" x2="60.2499999999" y2="30.1249999999" stroke="rgb(0,0,0)" stroke-width="0.499999999999999" stroke-linecap="round"/>
				<line x1="60.2499999999" y1="30.1249999999" x2="60.2499999999" y2="90.1249999999" stroke="rgb(0,0,0)" stroke-width="0.499999999999999" stroke-linecap="round"/>
				<g>
					<desc>null, supplement, null</desc>
					<text x="75.2499999999" y="59.1249999999" textLength="15.733333333333333" lengthAdjust="spacingAndGlyphs" text-anchor="middle" font-family="Arial" font-size="4.466666666666667">Dimmer</text>
					<text x="75.2499999999" y="64.1249999999" textLength="21.933333333333334" lengthAdjust="spacingAndGlyphs" text-anchor="middle" font-family="Arial" font-size="4.466666666666667">Electronics</text>
				</g>
			</g>
		</g>
		<g class="clickEl 5a820a3c0000bca801378c9093fb7d80">
			<desc>Thermal Resistance, fmc.bd.channel, 5a80cc620000bca8013771788ab64b9e</desc>
			<g>
				<desc>null, figure.plane, null</desc>
				<path d="M 45.2499999999,55.1249999999 A 2.5 2.5 0 0 0 47.7499999999,57.6249999999 L 47.7499999999,57.6249999999 A 2.5 2.5 0 0 0 50.2499999999,55.1249999999 L 50.2499999999,55.1249999999 A 2.5 2.5 0 0 0 47.7499999999,52.6249999999 L 47.7499999999,52.6249999999 A 2.5 2.5 0 0 0 45.2499999999,55.1249999999 z" fill="rgb(203,227,244)"/>
				<path d="M 45.2499999999,55.1249999999 A 2.5 2.5 0 0 0 47.7499999999,57.6249999999" stroke="rgb(0,0,0)" stroke-width="0.499999999999999" fill="none" stroke-linecap="round"/>
				<path d="M 47.7499999999,57.6249999999 A 2.5 2.5 0 0 0 50.2499999999,55.1249999999" stroke="rgb(0,0,0)" stroke-width="0.499999999999999" fill="none" stroke-linecap="round"/>
				<path d="M 50.2499999999,55.1249999999 A 2.5 2.5 0 0 0 47.7499999999,52.6249999999" stroke="rgb(0,0,0)" stroke-width="0.499999999999999" fill="none" stroke-linecap="round"/>
				<path d="M 47.7499999999,52.6249999999 A 2.5 2.5 0 0 0 45.2499999999,55.1249999999" stroke="rgb(0,0,0)" stroke-width="0.499999999999999" fill="none" stroke-linecap="round"/>
				<g>
					<desc>null, supplement, null</desc>
					<text x="47.7499999999" y="62.3249999999" textLength="13.12" lengthAdjust="spacingAndGlyphs" text-anchor="middle" font-family="Arial" font-size="3.5733333333333333">Thermal</text>
					<text x="47.7499999999" y="66.3249999999" textLength="17.706666666666667" lengthAdjust="spacingAndGlyphs" text-anchor="middle" font-family="Arial" font-size="3.5733333333333333">Resistance</text>
				</g>
			</g>
		</g>
		<g class="clickEl 5a82ec6f0000bca801372ef053a71bdf">
			<desc>Physical Space, fmc.bd.channel, 5a82d2f60000bca801376b19e4691010</desc>
			<g>
				<desc>null, figure.plane, null</desc>
				<path d="M 45.2499999999,35.1249999999 A 2.5 2.5 0 0 0 47.7499999999,37.6249999999 L 47.7499999999,37.6249999999 A 2.5 2.5 0 0 0 50.2499999999,35.1249999999 L 50.2499999999,35.1249999999 A 2.5 2.5 0 0 0 47.7499999999,32.6249999999 L 47.7499999999,32.6249999999 A 2.5 2.5 0 0 0 45.2499999999,35.1249999999 z" fill="rgb(203,227,244)"/>
				<path d="M 45.2499999999,35.1249999999 A 2.5 2.5 0 0 0 47.7499999999,37.6249999999" stroke="rgb(0,0,0)" stroke-width="0.499999999999999" fill="none" stroke-linecap="round"/>
				<path d="M 47.7499999999,37.6249999999 A 2.5 2.5 0 0 0 50.2499999999,35.1249999999" stroke="rgb(0,0,0)" stroke-width="0.499999999999999" fill="none" stroke-linecap="round"/>
				<path d="M 50.2499999999,35.1249999999 A 2.5 2.5 0 0 0 47.7499999999,32.6249999999" stroke="rgb(0,0,0)" stroke-width="0.499999999999999" fill="none" stroke-linecap="round"/>
				<path d="M 47.7499999999,32.6249999999 A 2.5 2.5 0 0 0 45.2499999999,35.1249999999" stroke="rgb(0,0,0)" stroke-width="0.499999999999999" fill="none" stroke-linecap="round"/>
				<g>
					<desc>null, supplement, null</desc>
					<text x="47.7499999999" y="42.3249999999" textLength="13.333333333333334" lengthAdjust="spacingAndGlyphs" text-anchor="middle" font-family="Arial" font-size="3.5733333333333333">Physical</text>
					<text x="47.7499999999" y="46.3249999999" textLength="10.133333333333333" lengthAdjust="spacingAndGlyphs" text-anchor="middle" font-family="Arial" font-size="3.5733333333333333">Space</text>
				</g>
			</g>
		</g>
		<g>
			<desc>, fmc.bd.storageaccess, 428bb3aa0000c3a801419de3397a04f4</desc>
			<g>
				<desc>null, figure.lineshape, null</desc>
				<line x1="35.3437499999" y1="35.1249999999" x2="43.92812499990001" y2="35.1249999999" stroke="rgb(0,0,0)" stroke-width="0.250000000000002" stroke-linecap="round"/>
				<path d="M 45.13255566724311,34.9597656249 A 0.1907962217712546 0.19079622177125463 0 0 1 45.13255566724311,35.290234374899995 L 43.84343609353841,36.034507907796026 A 0.20027571490777496 0.2002757149077597 0 0 1 43.56881026286407,35.762756832556896 L 43.56881026286407,35.76275683255689 A 1.299265788597927 1.2992657885979277 0 0 0 43.56881026286406,34.48724316724311 L 43.56881026286406,34.48724316724307 A 0.20027571490780047 0.20027571490773413 0 0 1 43.843436093538436,34.21549209200398 z"/>
			</g>
		</g>
		<g class="clickEl 5a844d820000bca8013750b9a0410b6b">
			<desc>Electro-Magnetic Resistance, fmc.bd.channel, 5a84364a0000bca801372f032a6a800c</desc>
			<g>
				<desc>null, figure.plane, null</desc>
				<path d="M 45.2499999999,75.1249999999 A 2.5 2.5 0 0 0 47.7499999999,77.6249999999 L 47.7499999999,77.6249999999 A 2.5 2.5 0 0 0 50.2499999999,75.1249999999 L 50.2499999999,75.1249999999 A 2.5 2.5 0 0 0 47.7499999999,72.6249999999 L 47.7499999999,72.6249999999 A 2.5 2.5 0 0 0 45.2499999999,75.1249999999 z" fill="rgb(203,227,244)"/>
				<path d="M 45.2499999999,75.1249999999 A 2.5 2.5 0 0 0 47.7499999999,77.6249999999" stroke="rgb(0,0,0)" stroke-width="0.499999999999999" fill="none" stroke-linecap="round"/>
				<path d="M 47.7499999999,77.6249999999 A 2.5 2.5 0 0 0 50.2499999999,75.1249999999" stroke="rgb(0,0,0)" stroke-width="0.499999999999999" fill="none" stroke-linecap="round"/>
				<path d="M 50.2499999999,75.1249999999 A 2.5 2.5 0 0 0 47.7499999999,72.6249999999" stroke="rgb(0,0,0)" stroke-width="0.499999999999999" fill="none" stroke-linecap="round"/>
				<path d="M 47.7499999999,72.6249999999 A 2.5 2.5 0 0 0 45.2499999999,75.1249999999" stroke="rgb(0,0,0)" stroke-width="0.499999999999999" fill="none" stroke-linecap="round"/>
				<g>
					<desc>null, supplement, null</desc>
					<text x="47.7499999999" y="82.3249999999" textLength="12.32" lengthAdjust="spacingAndGlyphs" text-anchor="middle" font-family="Arial" font-size="3.5733333333333333">Electro-</text>
					<text x="47.7499999999" y="86.3249999999" textLength="14.453333333333333" lengthAdjust="spacingAndGlyphs" text-anchor="middle" font-family="Arial" font-size="3.5733333333333333">Magnetic</text>
					<text x="47.7499999999" y="90.3249999999" textLength="17.706666666666667" lengthAdjust="spacingAndGlyphs" text-anchor="middle" font-family="Arial" font-size="3.5733333333333333">Resistance</text>
				</g>
			</g>
		</g>
		<g class="clickEl 5a85347c0000bca80137ad485c7cd330">
			<desc>Dimmer Controller Software, fmc.bd.agent, 5a85237b0000bca80137d8b5a208099e</desc>
			<g>
				<desc>null, figure.plane, null</desc>
				<path d=" M 115.2499999999,90.1249999999 L 145.2499999999,90.1249999999 L 145.2499999999,30.1249999999 L 115.2499999999,30.1249999999 z" fill="rgb(255,255,204)"/>
				<line x1="115.2499999999" y1="90.1249999999" x2="145.2499999999" y2="90.1249999999" stroke="rgb(0,0,0)" stroke-width="0.499999999999999" stroke-linecap="round"/>
				<line x1="145.2499999999" y1="90.1249999999" x2="145.2499999999" y2="30.124999999899998" stroke="rgb(0,0,0)" stroke-width="0.499999999999999" stroke-linecap="round"/>
				<line x1="145.2499999999" y1="30.1249999999" x2="115.2499999999" y2="30.1249999999" stroke="rgb(0,0,0)" stroke-width="0.499999999999999" stroke-linecap="round"/>
				<line x1="115.2499999999" y1="30.1249999999" x2="115.2499999999" y2="90.1249999999" stroke="rgb(0,0,0)" stroke-width="0.499999999999999" stroke-linecap="round"/>
				<g>
					<desc>null, supplement, null</desc>
					<text x="130.2499999999" y="56.6249999999" textLength="15.733333333333333" lengthAdjust="spacingAndGlyphs" text-anchor="middle" font-family="Arial" font-size="4.466666666666667">Dimmer</text>
					<text x="130.2499999999" y="61.6249999999" textLength="19.266666666666666" lengthAdjust="spacingAndGlyphs" text-anchor="middle" font-family="Arial" font-size="4.466666666666667">Controller</text>
					<text x="130.2499999999" y="66.6249999999" textLength="17.533333333333335" lengthAdjust="spacingAndGlyphs" text-anchor="middle" font-family="Arial" font-size="4.466666666666667">Software</text>
				</g>
			</g>
		</g>
		<g class="clickEl 5a86b8980000bca80137ca6fde1a125e">
			<desc>Processor RAM ROM, fmc.bd.channel, 5a86a8c00000bca80137b9d54801caf8</desc>
			<g>
				<desc>null, figure.plane, null</desc>
				<path d="M 100.2499999999,65.1249999999 A 2.5 2.5 0 0 0 102.7499999999,67.6249999999 L 102.7499999999,67.6249999999 A 2.5 2.5 0 0 0 105.2499999999,65.1249999999 L 105.2499999999,65.1249999999 A 2.5 2.5 0 0 0 102.7499999999,62.6249999999 L 102.7499999999,62.6249999999 A 2.5 2.5 0 0 0 100.2499999999,65.1249999999 z" fill="rgb(255,232,232)"/>
				<path d="M 100.2499999999,65.1249999999 A 2.5 2.5 0 0 0 102.7499999999,67.6249999999" stroke="rgb(0,0,0)" stroke-width="0.499999999999999" fill="none" stroke-linecap="round"/>
				<path d="M 102.7499999999,67.6249999999 A 2.5 2.5 0 0 0 105.2499999999,65.1249999999" stroke="rgb(0,0,0)" stroke-width="0.499999999999999" fill="none" stroke-linecap="round"/>
				<path d="M 105.2499999999,65.1249999999 A 2.5 2.5 0 0 0 102.7499999999,62.6249999999" stroke="rgb(0,0,0)" stroke-width="0.499999999999999" fill="none" stroke-linecap="round"/>
				<path d="M 102.7499999999,62.6249999999 A 2.5 2.5 0 0 0 100.2499999999,65.1249999999" stroke="rgb(0,0,0)" stroke-width="0.499999999999999" fill="none" stroke-linecap="round"/>
				<g>
					<desc>null, supplement, null</desc>
					<text x="102.7499999999" y="72.3249999999" textLength="16.106666666666666" lengthAdjust="spacingAndGlyphs" text-anchor="middle" font-family="Arial" font-size="3.5733333333333333">Processor</text>
					<text x="102.7499999999" y="76.3249999999" textLength="7.8933333333333335" lengthAdjust="spacingAndGlyphs" text-anchor="middle" font-family="Arial" font-size="3.5733333333333333">RAM</text>
					<text x="102.7499999999" y="80.3249999999" textLength="8.266666666666667" lengthAdjust="spacingAndGlyphs" text-anchor="middle" font-family="Arial" font-size="3.5733333333333333">ROM</text>
				</g>
			</g>
		</g>
		<g class="clickEl 5a77385f0000bca80137e1c7dc0b1721">
			<desc>Spring Clips, fmc.bd.channel, 5aa4a2840000bca80137e5aaf4edbd10</desc>
			<g>
				<desc>null, figure.plane, null</desc>
				<path d="M 20.2499999999,105.1249999999 A 2.5 2.5 0 0 0 17.7499999999,107.6249999999 L 17.7499999999,107.6249999999 A 2.5 2.5 0 0 0 20.2499999999,110.1249999999 L 20.2499999999,110.1249999999 A 2.5 2.5 0 0 0 22.7499999999,107.6249999999 L 22.7499999999,107.6249999999 A 2.5 2.5 0 0 0 20.2499999999,105.1249999999 z" fill="rgb(203,227,244)"/>
				<path d="M 20.2499999999,105.1249999999 A 2.5 2.5 0 0 0 17.7499999999,107.6249999999" stroke="rgb(0,0,0)" stroke-width="0.499999999999999" fill="none" stroke-linecap="round"/>
				<path d="M 17.7499999999,107.6249999999 A 2.5 2.5 0 0 0 20.2499999999,110.1249999999" stroke="rgb(0,0,0)" stroke-width="0.499999999999999" fill="none" stroke-linecap="round"/>
				<path d="M 20.2499999999,110.1249999999 A 2.5 2.5 0 0 0 22.7499999999,107.6249999999" stroke="rgb(0,0,0)" stroke-width="0.499999999999999" fill="none" stroke-linecap="round"/>
				<path d="M 22.7499999999,107.6249999999 A 2.5 2.5 0 0 0 20.2499999999,105.1249999999" stroke="rgb(0,0,0)" stroke-width="0.499999999999999" fill="none" stroke-linecap="round"/>
				<g>
					<desc>null, supplement, null</desc>
					<text x="24.2499999999" y="106.8249999999" textLength="10.293333333333333" lengthAdjust="spacingAndGlyphs" text-anchor="start" font-family="Arial" font-size="3.5733333333333333">Spring</text>
					<text x="24.2499999999" y="110.8249999999" textLength="7.946666666666666" lengthAdjust="spacingAndGlyphs" text-anchor="start" font-family="Arial" font-size="3.5733333333333333">Clips</text>
				</g>
			</g>
		</g>
		<g>
			<desc>, fmc.bd.storageaccess, 428bb3b10000c3a801416aaffb49b593</desc>
			<g>
				<desc>null, figure.lineshape, null</desc>
				<line x1="20.2499999999" y1="105.0312499999" x2="20.2499999999" y2="90.2187499999" stroke="rgb(0,0,0)" stroke-width="0.250000000000002" stroke-linecap="round"/>
			</g>
		</g>
		<g>
			<desc>, fmc.bd.storageaccess, 428bb3b10000c3a801416aae91d55cae</desc>
			<g>
				<desc>null, figure.lineshape, null</desc>
				<line x1="20.2499999999" y1="115.0312499999" x2="20.2499999999" y2="110.2187499999" stroke="rgb(0,0,0)" stroke-width="0.250000000000002" stroke-linecap="round"/>
			</g>
		</g>
		<g class="clickEl 5a77385f0000bca80137e1c7dc0b1721">
			<desc>Spring Clips, fmc.bd.channel, 5aa4df640000bca80137c88de7edfafe</desc>
			<g>
				<desc>null, figure.plane, null</desc>
				<path d="M 20.2499999999,5.124999999900002 A 2.5 2.5 0 0 0 17.7499999999,7.624999999900002 L 17.7499999999,7.624999999900002 A 2.5 2.5 0 0 0 20.2499999999,10.124999999900002 L 20.2499999999,10.124999999900002 A 2.5 2.5 0 0 0 22.7499999999,7.624999999900002 L 22.7499999999,7.624999999900002 A 2.5 2.5 0 0 0 20.2499999999,5.124999999900002 z" fill="rgb(203,227,244)"/>
				<path d="M 20.2499999999,5.124999999900002 A 2.5 2.5 0 0 0 17.7499999999,7.624999999900002" stroke="rgb(0,0,0)" stroke-width="0.499999999999999" fill="none" stroke-linecap="round"/>
				<path d="M 17.7499999999,7.624999999900002 A 2.5 2.5 0 0 0 20.2499999999,10.124999999900002" stroke="rgb(0,0,0)" stroke-width="0.499999999999999" fill="none" stroke-linecap="round"/>
				<path d="M 20.2499999999,10.124999999900002 A 2.5 2.5 0 0 0 22.7499999999,7.624999999900002" stroke="rgb(0,0,0)" stroke-width="0.499999999999999" fill="none" stroke-linecap="round"/>
				<path d="M 22.7499999999,7.624999999900002 A 2.5 2.5 0 0 0 20.2499999999,5.124999999900002" stroke="rgb(0,0,0)" stroke-width="0.499999999999999" fill="none" stroke-linecap="round"/>
				<g>
					<desc>null, supplement, null</desc>
					<text x="24.2499999999" y="6.824999999900002" textLength="10.293333333333333" lengthAdjust="spacingAndGlyphs" text-anchor="start" font-family="Arial" font-size="3.5733333333333333">Spring</text>
					<text x="24.2499999999" y="10.824999999900001" textLength="7.946666666666666" lengthAdjust="spacingAndGlyphs" text-anchor="start" font-family="Arial" font-size="3.5733333333333333">Clips</text>
				</g>
			</g>
		</g>
		<g>
			<desc>, fmc.bd.storageaccess, 428bb3b30000c3a80141ba8ab79dfc61</desc>
			<g>
				<desc>null, figure.lineshape, null</desc>
				<line x1="20.2499999999" y1="5.031249999900002" x2="20.2499999999" y2="0.21874999990000177" stroke="rgb(0,0,0)" stroke-width="0.250000000000002" stroke-linecap="round"/>
			</g>
		</g>
		<g>
			<desc>, fmc.bd.storageaccess, 428bb3b30000c3a80141ba8949edbb96</desc>
			<g>
				<desc>null, figure.lineshape, null</desc>
				<line x1="20.2499999999" y1="30.0312499999" x2="20.2499999999" y2="10.218749999900002" stroke="rgb(0,0,0)" stroke-width="0.250000000000002" stroke-linecap="round"/>
			</g>
		</g>
		<g class="clickEl 5a87083e0000bca801379bb412523737">
			<desc>I/O Pins, fmc.bd.channel, 5aaffe190000bca8013715cf1bece762</desc>
			<g>
				<desc>null, figure.plane, null</desc>
				<path d="M 100.2499999999,45.1249999999 A 2.5 2.5 0 0 0 102.7499999999,47.6249999999 L 102.7499999999,47.6249999999 A 2.5 2.5 0 0 0 105.2499999999,45.1249999999 L 105.2499999999,45.1249999999 A 2.5 2.5 0 0 0 102.7499999999,42.6249999999 L 102.7499999999,42.6249999999 A 2.5 2.5 0 0 0 100.2499999999,45.1249999999 z" fill="rgb(255,232,232)"/>
				<path d="M 100.2499999999,45.1249999999 A 2.5 2.5 0 0 0 102.7499999999,47.6249999999" stroke="rgb(0,0,0)" stroke-width="0.499999999999999" fill="none" stroke-linecap="round"/>
				<path d="M 102.7499999999,47.6249999999 A 2.5 2.5 0 0 0 105.2499999999,45.1249999999" stroke="rgb(0,0,0)" stroke-width="0.499999999999999" fill="none" stroke-linecap="round"/>
				<path d="M 105.2499999999,45.1249999999 A 2.5 2.5 0 0 0 102.7499999999,42.6249999999" stroke="rgb(0,0,0)" stroke-width="0.499999999999999" fill="none" stroke-linecap="round"/>
				<path d="M 102.7499999999,42.6249999999 A 2.5 2.5 0 0 0 100.2499999999,45.1249999999" stroke="rgb(0,0,0)" stroke-width="0.499999999999999" fill="none" stroke-linecap="round"/>
				<g>
					<desc>null, supplement, null</desc>
					<text x="102.7499999999" y="52.3249999999" textLength="12.8" lengthAdjust="spacingAndGlyphs" text-anchor="middle" font-family="Arial" font-size="3.5733333333333333">I/O Pins</text>
				</g>
			</g>
		</g>
		<g class="clickEl 5a99c89c0000bca801375d44cf9a50ca">
			<desc>Ground Cable, fmc.bd.channel, 5aaffe190000bca8013715d20fa5c528</desc>
			<g>
				<desc>null, figure.plane, null</desc>
				<path d="M 97.7499999999,105.1249999999 A 2.5 2.5 0 0 0 95.2499999999,107.6249999999 L 95.2499999999,107.6249999999 A 2.5 2.5 0 0 0 97.7499999999,110.1249999999 L 97.7499999999,110.1249999999 A 2.5 2.5 0 0 0 100.2499999999,107.6249999999 L 100.2499999999,107.6249999999 A 2.5 2.5 0 0 0 97.7499999999,105.1249999999 z" fill="rgb(255,232,232)"/>
				<path d="M 97.7499999999,105.1249999999 A 2.5 2.5 0 0 0 95.2499999999,107.6249999999" stroke="rgb(0,0,0)" stroke-width="0.499999999999999" fill="none" stroke-linecap="round"/>
				<path d="M 95.2499999999,107.6249999999 A 2.5 2.5 0 0 0 97.7499999999,110.1249999999" stroke="rgb(0,0,0)" stroke-width="0.499999999999999" fill="none" stroke-linecap="round"/>
				<path d="M 97.7499999999,110.1249999999 A 2.5 2.5 0 0 0 100.2499999999,107.6249999999" stroke="rgb(0,0,0)" stroke-width="0.499999999999999" fill="none" stroke-linecap="round"/>
				<path d="M 100.2499999999,107.6249999999 A 2.5 2.5 0 0 0 97.7499999999,105.1249999999" stroke="rgb(0,0,0)" stroke-width="0.499999999999999" fill="none" stroke-linecap="round"/>
				<g>
					<desc>null, supplement, null</desc>
					<text x="101.7499999999" y="106.8249999999" textLength="11.84" lengthAdjust="spacingAndGlyphs" text-anchor="start" font-family="Arial" font-size="3.5733333333333333">Ground</text>
					<text x="101.7499999999" y="110.8249999999" textLength="9.28" lengthAdjust="spacingAndGlyphs" text-anchor="start" font-family="Arial" font-size="3.5733333333333333">Cable</text>
				</g>
			</g>
		</g>
		<g>
			<desc>, fmc.bd.storageaccess, 428bb3b70000c3a80141c0ae5cb75985</desc>
			<g>
				<desc>null, figure.lineshape, null</desc>
				<line x1="97.7499999999" y1="105.0312499999" x2="97.7499999999" y2="102.6249999999" stroke="rgb(0,0,0)" stroke-width="0.250000000000002" stroke-linecap="round"/>
				<path d="M 97.7499999999,102.6249999999 A 2.5 2.5 0 0 0 95.2499999999,100.1249999999" stroke="rgb(0,0,0)" stroke-width="0.250000000000002" fill="none" stroke-linecap="round"/>
				<line x1="95.2499999999" y1="100.1249999999" x2="82.7499999999" y2="100.1249999999" stroke="rgb(0,0,0)" stroke-width="0.250000000000002" stroke-linecap="round"/>
				<path d="M 82.7499999999,100.1249999999 A 2.5 2.5 0 0 1 80.2499999999,97.6249999999" stroke="rgb(0,0,0)" stroke-width="0.250000000000002" fill="none" stroke-linecap="round"/>
				<line x1="80.2499999999" y1="97.6249999999" x2="80.2499999999" y2="90.2187499999" stroke="rgb(0,0,0)" stroke-width="0.250000000000002" stroke-linecap="round"/>
			</g>
		</g>
		<g>
			<desc>, fmc.bd.storageaccess, 428bb3b70000c3a80141c0adbe240a12</desc>
			<g>
				<desc>null, figure.lineshape, null</desc>
				<line x1="97.7499999999" y1="115.0312499999" x2="97.7499999999" y2="110.2187499999" stroke="rgb(0,0,0)" stroke-width="0.250000000000002" stroke-linecap="round"/>
			</g>
		</g>
		<g class="clickEl 5a9888810000bca801375410ce1cc142">
			<desc>Supply Cable, fmc.bd.channel, 5aaffe190000bca8013715d5e4d31f22</desc>
			<g>
				<desc>null, figure.plane, null</desc>
				<path d="M 52.7499999999,105.1249999999 A 2.5 2.5 0 0 0 50.2499999999,107.6249999999 L 50.2499999999,107.6249999999 A 2.5 2.5 0 0 0 52.7499999999,110.1249999999 L 52.7499999999,110.1249999999 A 2.5 2.5 0 0 0 55.2499999999,107.6249999999 L 55.2499999999,107.6249999999 A 2.5 2.5 0 0 0 52.7499999999,105.1249999999 z" fill="rgb(255,232,232)"/>
				<path d="M 52.7499999999,105.1249999999 A 2.5 2.5 0 0 0 50.2499999999,107.6249999999" stroke="rgb(0,0,0)" stroke-width="0.499999999999999" fill="none" stroke-linecap="round"/>
				<path d="M 50.2499999999,107.6249999999 A 2.5 2.5 0 0 0 52.7499999999,110.1249999999" stroke="rgb(0,0,0)" stroke-width="0.499999999999999" fill="none" stroke-linecap="round"/>
				<path d="M 52.7499999999,110.1249999999 A 2.5 2.5 0 0 0 55.2499999999,107.6249999999" stroke="rgb(0,0,0)" stroke-width="0.499999999999999" fill="none" stroke-linecap="round"/>
				<path d="M 55.2499999999,107.6249999999 A 2.5 2.5 0 0 0 52.7499999999,105.1249999999" stroke="rgb(0,0,0)" stroke-width="0.499999999999999" fill="none" stroke-linecap="round"/>
				<g>
					<desc>null, supplement, null</desc>
					<text x="56.7499999999" y="106.8249999999" textLength="10.88" lengthAdjust="spacingAndGlyphs" text-anchor="start" font-family="Arial" font-size="3.5733333333333333">Supply</text>
					<text x="56.7499999999" y="110.8249999999" textLength="9.28" lengthAdjust="spacingAndGlyphs" text-anchor="start" font-family="Arial" font-size="3.5733333333333333">Cable</text>
				</g>
			</g>
		</g>
		<g>
			<desc>, fmc.bd.storageaccess, 428bb3b90000c3a801415e5742b8ef98</desc>
			<g>
				<desc>null, figure.lineshape, null</desc>
				<line x1="52.7499999999" y1="105.0312499999" x2="52.7499999999" y2="102.6249999999" stroke="rgb(0,0,0)" stroke-width="0.250000000000002" stroke-linecap="round"/>
				<path d="M 52.7499999999,102.6249999999 A 2.5 2.5 0 0 1 55.2499999999,100.1249999999" stroke="rgb(0,0,0)" stroke-width="0.250000000000002" fill="none" stroke-linecap="round"/>
				<line x1="55.2499999999" y1="100.1249999999" x2="67.7499999999" y2="100.1249999999" stroke="rgb(0,0,0)" stroke-width="0.250000000000002" stroke-linecap="round"/>
				<path d="M 67.7499999999,100.1249999999 A 2.5 2.5 0 0 0 70.2499999999,97.6249999999" stroke="rgb(0,0,0)" stroke-width="0.250000000000002" fill="none" stroke-linecap="round"/>
				<line x1="70.2499999999" y1="97.6249999999" x2="70.2499999999" y2="90.2187499999" stroke="rgb(0,0,0)" stroke-width="0.250000000000002" stroke-linecap="round"/>
			</g>
		</g>
		<g>
			<desc>, fmc.bd.storageaccess, 428bb3b90000c3a801415e56fcc8b3ca</desc>
			<g>
				<desc>null, figure.lineshape, null</desc>
				<line x1="52.7499999999" y1="115.0312499999" x2="52.7499999999" y2="110.2187499999" stroke="rgb(0,0,0)" stroke-width="0.250000000000002" stroke-linecap="round"/>
			</g>
		</g>
		<g class="clickEl 5a9929510000bca80137d23c81f1ca54">
			<desc>Load Cable, fmc.bd.channel, 5ab01fdc0000bca8013784724953cc78</desc>
			<g>
				<desc>null, figure.plane, null</desc>
				<path d="M 52.7499999999,5.124999999900002 A 2.5 2.5 0 0 0 50.2499999999,7.624999999900002 L 50.2499999999,7.624999999900002 A 2.5 2.5 0 0 0 52.7499999999,10.124999999900002 L 52.7499999999,10.124999999900002 A 2.5 2.5 0 0 0 55.2499999999,7.624999999900002 L 55.2499999999,7.624999999900002 A 2.5 2.5 0 0 0 52.7499999999,5.124999999900002 z" fill="rgb(255,232,232)"/>
				<path d="M 52.7499999999,5.124999999900002 A 2.5 2.5 0 0 0 50.2499999999,7.624999999900002" stroke="rgb(0,0,0)" stroke-width="0.499999999999999" fill="none" stroke-linecap="round"/>
				<path d="M 50.2499999999,7.624999999900002 A 2.5 2.5 0 0 0 52.7499999999,10.124999999900002" stroke="rgb(0,0,0)" stroke-width="0.499999999999999" fill="none" stroke-linecap="round"/>
				<path d="M 52.7499999999,10.124999999900002 A 2.5 2.5 0 0 0 55.2499999999,7.624999999900002" stroke="rgb(0,0,0)" stroke-width="0.499999999999999" fill="none" stroke-linecap="round"/>
				<path d="M 55.2499999999,7.624999999900002 A 2.5 2.5 0 0 0 52.7499999999,5.124999999900002" stroke="rgb(0,0,0)" stroke-width="0.499999999999999" fill="none" stroke-linecap="round"/>
				<g>
					<desc>null, supplement, null</desc>
					<text x="56.7499999999" y="6.824999999900002" textLength="7.8933333333333335" lengthAdjust="spacingAndGlyphs" text-anchor="start" font-family="Arial" font-size="3.5733333333333333">Load</text>
					<text x="56.7499999999" y="10.824999999900001" textLength="9.28" lengthAdjust="spacingAndGlyphs" text-anchor="start" font-family="Arial" font-size="3.5733333333333333">Cable</text>
				</g>
			</g>
		</g>
		<g>
			<desc>, fmc.bd.storageaccess, 428bb3bb0000c3a80141f16652e89426</desc>
			<g>
				<desc>null, figure.lineshape, null</desc>
				<line x1="52.7499999999" y1="5.031249999900002" x2="52.7499999999" y2="0.21874999990000177" stroke="rgb(0,0,0)" stroke-width="0.250000000000002" stroke-linecap="round"/>
			</g>
		</g>
		<g>
			<desc>, fmc.bd.storageaccess, 428bb3ba0000c3a80141f732eddbdb69</desc>
			<g>
				<desc>null, figure.lineshape, null</desc>
				<line x1="70.2499999999" y1="30.0312499999" x2="70.2499999999" y2="17.6249999999" stroke="rgb(0,0,0)" stroke-width="0.250000000000002" stroke-linecap="round"/>
				<path d="M 70.2499999999,17.6249999999 A 2.5 2.5 0 0 0 67.7499999999,15.124999999900002" stroke="rgb(0,0,0)" stroke-width="0.250000000000002" fill="none" stroke-linecap="round"/>
				<line x1="67.7499999999" y1="15.124999999900002" x2="55.2499999999" y2="15.124999999900002" stroke="rgb(0,0,0)" stroke-width="0.250000000000002" stroke-linecap="round"/>
				<path d="M 55.2499999999,15.124999999900002 A 2.5 2.5 0 0 1 52.7499999999,12.624999999900002" stroke="rgb(0,0,0)" stroke-width="0.250000000000002" fill="none" stroke-linecap="round"/>
				<line x1="52.7499999999" y1="12.624999999900002" x2="52.7499999999" y2="10.218749999900002" stroke="rgb(0,0,0)" stroke-width="0.250000000000002" stroke-linecap="round"/>
			</g>
		</g>
		<g class="clickEl 5a9ce0310000bca801378176dc4744e8">
			<desc>Control Signals, fmc.bd.channel, 5ab1eaa80000bca801373e12255b5674</desc>
			<g>
				<desc>null, figure.plane, null</desc>
				<path d="M 85.2499999999,5.124999999900002 A 2.5 2.5 0 0 0 82.7499999999,7.624999999900002 L 82.7499999999,7.624999999900002 A 2.5 2.5 0 0 0 85.2499999999,10.124999999900002 L 85.2499999999,10.124999999900002 A 2.5 2.5 0 0 0 87.7499999999,7.624999999900002 L 87.7499999999,7.624999999900002 A 2.5 2.5 0 0 0 85.2499999999,5.124999999900002 z" fill="rgb(224,251,193)"/>
				<path d="M 85.2499999999,5.124999999900002 A 2.5 2.5 0 0 0 82.7499999999,7.624999999900002" stroke="rgb(0,0,0)" stroke-width="0.499999999999999" fill="none" stroke-linecap="round"/>
				<path d="M 82.7499999999,7.624999999900002 A 2.5 2.5 0 0 0 85.2499999999,10.124999999900002" stroke="rgb(0,0,0)" stroke-width="0.499999999999999" fill="none" stroke-linecap="round"/>
				<path d="M 85.2499999999,10.124999999900002 A 2.5 2.5 0 0 0 87.7499999999,7.624999999900002" stroke="rgb(0,0,0)" stroke-width="0.499999999999999" fill="none" stroke-linecap="round"/>
				<path d="M 87.7499999999,7.624999999900002 A 2.5 2.5 0 0 0 85.2499999999,5.124999999900002" stroke="rgb(0,0,0)" stroke-width="0.499999999999999" fill="none" stroke-linecap="round"/>
				<g>
					<desc>null, supplement, null</desc>
					<text x="89.2499999999" y="6.824999999900002" textLength="11.466666666666667" lengthAdjust="spacingAndGlyphs" text-anchor="start" font-family="Arial" font-size="3.5733333333333333">Control</text>
					<text x="89.2499999999" y="10.824999999900001" textLength="11.733333333333333" lengthAdjust="spacingAndGlyphs" text-anchor="start" font-family="Arial" font-size="3.5733333333333333">Signals</text>
				</g>
			</g>
		</g>
		<g>
			<desc>, fmc.bd.storageaccess, 428bb3bc0000c3a801412333aea19f91</desc>
			<g>
				<desc>null, figure.lineshape, null</desc>
				<line x1="85.2499999999" y1="3.803124999900003" x2="85.2499999999" y2="0.21874999990000177" stroke="rgb(0,0,0)" stroke-width="0.250000000000002" stroke-linecap="round"/>
				<path d="M 85.4152343749,5.007555667243115 A 0.19079622177125552 0.19079622177125533 0 0 1 85.0847656249,5.007555667243115 L 84.34049209200397,3.718436093538417 A 0.2002757149077533 0.20027571490778115 0 0 1 84.6122431672431,3.443810262864069 L 84.61224316724311,3.443810262864069 A 1.2992657885979437 1.299265788597944 0 0 0 85.88775683255689,3.443810262864069 L 85.8877568325569,3.443810262864069 A 0.20027571490775334 0.20027571490778115 0 0 1 86.15950790779603,3.718436093538417 z"/>
			</g>
		</g>
		<g>
			<desc>, fmc.bd.storageaccess, 428bb3bc0000c3a8014123327a464267</desc>
			<g>
				<desc>null, figure.lineshape, null</desc>
				<line x1="85.2499999999" y1="28.803124999900003" x2="85.2499999999" y2="10.218749999900002" stroke="rgb(0,0,0)" stroke-width="0.250000000000002" stroke-linecap="round"/>
				<path d="M 85.4152343749,30.007555667243118 A 0.19079622177125463 0.19079622177125458 0 0 1 85.0847656249,30.007555667243118 L 84.34049209200397,28.718436093538404 A 0.20027571490776586 0.20027571490777143 0 0 1 84.61224316724311,28.44381026286407 L 84.61224316724311,28.44381026286407 A 1.2992657885979422 1.299265788597943 0 0 0 85.88775683255689,28.44381026286407 L 85.88775683255689,28.44381026286407 A 0.20027571490776583 0.20027571490777146 0 0 1 86.15950790779603,28.718436093538404 z"/>
			</g>
		</g>
		<g class="clickEl 5c29fb8e0000bca80137eb9734c99bfd">
			<desc>Neutral Cable, fmc.bd.channel, 5c2b070c0000bca80137cf9e50ee2698</desc>
			<g>
				<desc>null, figure.plane, null</desc>
				<path d="M 75.2499999999,105.1249999999 A 2.5 2.5 0 0 0 72.7499999999,107.6249999999 L 72.7499999999,107.6249999999 A 2.5 2.5 0 0 0 75.2499999999,110.1249999999 L 75.2499999999,110.1249999999 A 2.5 2.5 0 0 0 77.7499999999,107.6249999999 L 77.7499999999,107.6249999999 A 2.5 2.5 0 0 0 75.2499999999,105.1249999999 z" fill="rgb(255,232,232)"/>
				<path d="M 75.2499999999,105.1249999999 A 2.5 2.5 0 0 0 72.7499999999,107.6249999999" stroke="rgb(0,0,0)" stroke-width="0.499999999999999" fill="none" stroke-linecap="round"/>
				<path d="M 72.7499999999,107.6249999999 A 2.5 2.5 0 0 0 75.2499999999,110.1249999999" stroke="rgb(0,0,0)" stroke-width="0.499999999999999" fill="none" stroke-linecap="round"/>
				<path d="M 75.2499999999,110.1249999999 A 2.5 2.5 0 0 0 77.7499999999,107.6249999999" stroke="rgb(0,0,0)" stroke-width="0.499999999999999" fill="none" stroke-linecap="round"/>
				<path d="M 77.7499999999,107.6249999999 A 2.5 2.5 0 0 0 75.2499999999,105.1249999999" stroke="rgb(0,0,0)" stroke-width="0.499999999999999" fill="none" stroke-linecap="round"/>
				<g>
					<desc>null, supplement, null</desc>
					<text x="79.2499999999" y="106.8249999999" textLength="11.466666666666667" lengthAdjust="spacingAndGlyphs" text-anchor="start" font-family="Arial" font-size="3.5733333333333333">Neutral</text>
					<text x="79.2499999999" y="110.8249999999" textLength="9.28" lengthAdjust="spacingAndGlyphs" text-anchor="start" font-family="Arial" font-size="3.5733333333333333">Cable</text>
				</g>
			</g>
		</g>
		<g>
			<desc>, fmc.bd.storageaccess, 428bb3be0000c3a801415d80fb0b6bd9</desc>
			<g>
				<desc>null, figure.lineshape, null</desc>
				<line x1="75.2499999999" y1="105.0312499999" x2="75.2499999999" y2="90.2187499999" stroke="rgb(0,0,0)" stroke-width="0.250000000000002" stroke-linecap="round"/>
			</g>
		</g>
		<g>
			<desc>, fmc.bd.storageaccess, 428bb3be0000c3a801415d7f4400884e</desc>
			<g>
				<desc>null, figure.lineshape, null</desc>
				<line x1="75.2499999999" y1="115.0312499999" x2="75.2499999999" y2="110.2187499999" stroke="rgb(0,0,0)" stroke-width="0.250000000000002" stroke-linecap="round"/>
			</g>
		</g>
		<g>
			<desc>, fmc.bd.storageaccess, dab38ce70000c3a801464df0b978a97b</desc>
			<g>
				<desc>null, figure.lineshape, null</desc>
				<line x1="50.3437499999" y1="35.1249999999" x2="58.92812499989999" y2="35.1249999999" stroke="rgb(0,0,0)" stroke-width="0.250000000000002" stroke-linecap="round"/>
				<path d="M 60.13255566724311,34.9597656249 A 0.1907962217712546 0.19079622177125463 0 0 1 60.13255566724311,35.290234374899995 L 58.843436093538386,36.03450790779603 A 0.2002757149077653 0.20027571490777554 0 0 1 58.56881026286406,35.76275683255688 L 58.56881026286406,35.76275683255689 A 1.2992657885979553 1.2992657885979555 0 0 0 58.56881026286406,34.48724316724311 L 58.56881026286406,34.4872431672431 A 0.20027571490776874 0.2002757149077597 0 0 1 58.84343609353839,34.21549209200397 z"/>
			</g>
		</g>
		<g>
			<desc>, fmc.bd.storageaccess, dab39f8d0000c3a801465864006a20ae</desc>
			<g>
				<desc>null, figure.lineshape, null</desc>
				<line x1="35.3437499999" y1="55.1249999999" x2="43.92812499990001" y2="55.1249999999" stroke="rgb(0,0,0)" stroke-width="0.250000000000002" stroke-linecap="round"/>
				<path d="M 45.13255566724311,54.9597656249 A 0.1907962217712546 0.19079622177125463 0 0 1 45.13255566724311,55.290234374899995 L 43.84343609353841,56.034507907796026 A 0.20027571490777496 0.2002757149077597 0 0 1 43.56881026286407,55.762756832556896 L 43.56881026286407,55.76275683255689 A 1.2992657885979368 1.2992657885979368 0 0 0 43.56881026286407,54.48724316724311 L 43.56881026286407,54.4872431672431 A 0.20027571490777496 0.2002757149077597 0 0 1 43.84343609353841,54.21549209200397 z"/>
			</g>
		</g>
		<g>
			<desc>, fmc.bd.storageaccess, dab3b55e0000c3a8014618ae43d4ae90</desc>
			<g>
				<desc>null, figure.lineshape, null</desc>
				<line x1="50.3437499999" y1="55.1249999999" x2="58.92812499989999" y2="55.1249999999" stroke="rgb(0,0,0)" stroke-width="0.250000000000002" stroke-linecap="round"/>
				<path d="M 60.13255566724311,54.9597656249 A 0.1907962217712546 0.19079622177125463 0 0 1 60.13255566724311,55.290234374899995 L 58.843436093538386,56.03450790779603 A 0.2002757149077653 0.20027571490777554 0 0 1 58.56881026286406,55.76275683255688 L 58.56881026286406,55.76275683255689 A 1.2992657885979553 1.2992657885979555 0 0 0 58.56881026286406,54.48724316724311 L 58.56881026286406,54.487243167243115 A 0.2002757149077653 0.20027571490777554 0 0 1 58.843436093538386,54.21549209200396 z"/>
			</g>
		</g>
		<g>
			<desc>, fmc.bd.storageaccess, dab3d9520000c3a80146410a088452fc</desc>
			<g>
				<desc>null, figure.lineshape, null</desc>
				<line x1="35.3437499999" y1="75.1249999999" x2="43.92812499990001" y2="75.1249999999" stroke="rgb(0,0,0)" stroke-width="0.250000000000002" stroke-linecap="round"/>
				<path d="M 45.13255566724311,74.9597656249 A 0.1907962217712546 0.19079622177125463 0 0 1 45.13255566724311,75.2902343749 L 43.843436093538415,76.03450790779603 A 0.20027571490777846 0.20027571490775356 0 0 1 43.56881026286407,75.7627568325569 L 43.56881026286407,75.76275683255689 A 1.2992657885979368 1.2992657885979368 0 0 0 43.56881026286407,74.48724316724311 L 43.56881026286407,74.4872431672431 A 0.20027571490777846 0.20027571490775356 0 0 1 43.843436093538415,74.21549209200397 z"/>
			</g>
		</g>
		<g>
			<desc>, fmc.bd.storageaccess, dab3ea810000c3a80146e04cd2d7bfd7</desc>
			<g>
				<desc>null, figure.lineshape, null</desc>
				<line x1="50.3437499999" y1="75.1249999999" x2="58.92812499989999" y2="75.1249999999" stroke="rgb(0,0,0)" stroke-width="0.250000000000002" stroke-linecap="round"/>
				<path d="M 60.13255566724311,74.9597656249 A 0.1907962217712546 0.19079622177125463 0 0 1 60.13255566724311,75.2902343749 L 58.84343609353839,76.03450790779603 A 0.2002757149077715 0.20027571490776583 0 0 1 58.56881026286406,75.76275683255689 L 58.56881026286406,75.76275683255689 A 1.2992657885979553 1.2992657885979555 0 0 0 58.56881026286406,74.48724316724311 L 58.56881026286406,74.48724316724311 A 0.2002757149077715 0.20027571490776583 0 0 1 58.84343609353839,74.21549209200397 z"/>
			</g>
		</g>
		<g>
			<desc>, fmc.bd.storageaccess, dab400800000c3a801460427be0dd068</desc>
			<g>
				<desc>null, figure.lineshape, null</desc>
				<line x1="90.3437499999" y1="45.1249999999" x2="98.92812499989999" y2="45.1249999999" stroke="rgb(0,0,0)" stroke-width="0.250000000000002" stroke-linecap="round"/>
				<path d="M 100.13255566724311,44.9597656249 A 0.1907962217712546 0.19079622177125463 0 0 1 100.13255566724311,45.290234374899995 L 98.8434360935384,46.03450790779603 A 0.20027571490777496 0.2002757149077694 0 0 1 98.56881026286406,45.76275683255689 L 98.56881026286406,45.76275683255689 A 1.299265788597949 1.299265788597949 0 0 0 98.56881026286406,44.48724316724311 L 98.56881026286406,44.48724316724311 A 0.20027571490777496 0.2002757149077694 0 0 1 98.8434360935384,44.21549209200396 z"/>
			</g>
		</g>
		<g>
			<desc>, fmc.bd.storageaccess, dab4142f0000c3a8014645633f14fe7a</desc>
			<g>
				<desc>null, figure.lineshape, null</desc>
				<line x1="105.3437499999" y1="45.1249999999" x2="113.92812499989999" y2="45.1249999999" stroke="rgb(0,0,0)" stroke-width="0.250000000000002" stroke-linecap="round"/>
				<path d="M 115.1325556672431,44.959765624899994 A 0.1907962217712679 0.19079622177126787 0 0 1 115.1325556672431,45.2902343749 L 113.84343609353837,46.03450790779603 A 0.2002757149077556 0.2002757149077817 0 0 1 113.56881026286406,45.762756832556875 L 113.56881026286406,45.76275683255689 A 1.299265788597949 1.299265788597949 0 0 0 113.56881026286406,44.48724316724311 L 113.56881026286406,44.48724316724312 A 0.2002757149077556 0.2002757149077817 0 0 1 113.84343609353837,44.21549209200396 z"/>
			</g>
		</g>
		<g>
			<desc>, fmc.bd.storageaccess, dab43f350000c3a801467e09dbbc5ba8</desc>
			<g>
				<desc>null, figure.lineshape, null</desc>
				<line x1="90.3437499999" y1="65.1249999999" x2="98.92812499989999" y2="65.1249999999" stroke="rgb(0,0,0)" stroke-width="0.250000000000002" stroke-linecap="round"/>
				<path d="M 100.13255566724311,64.9597656249 A 0.1907962217712546 0.19079622177125463 0 0 1 100.13255566724311,65.2902343749 L 98.84343609353841,66.03450790779603 A 0.2002757149077908 0.20027571490774998 0 0 1 98.56881026286406,65.7627568325569 L 98.56881026286406,65.76275683255689 A 1.299265788597949 1.299265788597949 0 0 0 98.56881026286406,64.48724316724311 L 98.56881026286406,64.4872431672431 A 0.2002757149077908 0.20027571490774998 0 0 1 98.84343609353841,64.21549209200397 z"/>
			</g>
		</g>
		<g>
			<desc>, fmc.bd.storageaccess, dab44ebf0000c3a80146e26af2f4be02</desc>
			<g>
				<desc>null, figure.lineshape, null</desc>
				<line x1="105.3437499999" y1="65.1249999999" x2="113.92812499989999" y2="65.1249999999" stroke="rgb(0,0,0)" stroke-width="0.250000000000002" stroke-linecap="round"/>
				<path d="M 115.1325556672431,64.9597656249 A 0.1907962217712546 0.19079622177125463 0 0 1 115.1325556672431,65.2902343749 L 113.84343609353837,66.03450790779604 A 0.2002757149077467 0.2002757149077888 0 0 1 113.56881026286406,65.76275683255687 L 113.56881026286406,65.76275683255689 A 1.299265788597949 1.299265788597949 0 0 0 113.56881026286406,64.48724316724311 L 113.56881026286406,64.48724316724312 A 0.2002757149077467 0.2002757149077888 0 0 1 113.84343609353837,64.21549209200396 z"/>
			</g>
		</g>
	</g>
</svg>
